<?xml version="1.0" encoding="utf-8"?>
<!-- Generator: Adobe Illustrator 19.2.1, SVG Export Plug-In . SVG Version: 6.00 Build 0)  -->
<svg version="1.1" id="レイヤー_1" xmlns="http://www.w3.org/2000/svg" xmlns:xlink="http://www.w3.org/1999/xlink" x="0px"
	 y="0px" viewBox="0 0 25 25" style="enable-background:new 0 0 25 25;" xml:space="preserve">
<style type="text/css">
	.st0{fill:#A4AAB3;}
	.st1{clip-path:url(#SVGID_2_);}
	.st2{clip-path:url(#SVGID_4_);fill:#A4AAB3;}
</style>
<g>
	<path class="st0" d="M17.6,22c-1.5,0.9-3,1.3-5.1,1.3c-6.2,0-10.2-3.7-10.2-10.9c0-7.1,3.9-11.7,10.2-11.7
		c6.2,0,10.1,4.6,10.1,11.8c0,4.1-1.8,6.7-3.5,8.4l2,2.1c0.2,0.2,0.3,0.4,0.3,0.7c0,0.3-0.7,0.9-1,0.9c-0.2,0-0.5-0.1-0.7-0.3
		L17.6,22z M12.3,17c-0.2-0.2-0.3-0.5-0.3-0.7c0-0.3,0.7-1,1.1-1c0.2,0,0.5,0.1,0.7,0.3l3.8,3.7c0.9-0.7,2.9-2.5,2.9-7.1
		c0-5.8-3.2-9.7-8-9.7c-4.8,0-8.2,3.9-8.2,9.9c0,6,3.5,8.8,8.2,8.8c1.4,0,2.4-0.3,3.4-0.8L12.3,17z"/>
</g>
<g>
	<defs>
		<path id="SVGID_1_" d="M47.5,14.4c-0.5-1-0.8-2.2-1-3.8c-0.2-1.2-0.4-2.2-0.8-3.1c-0.3-0.7-0.7-1.3-1.1-1.8
			c-0.7-0.8-1.5-1.4-2.4-1.8c-0.3-0.1-0.7-0.3-1-0.3c0.2-0.3,0.2-0.7,0.2-1c0-0.3-0.1-0.6-0.2-0.9c-0.2-0.4-0.5-0.8-0.8-1
			c-0.4-0.2-0.8-0.4-1.3-0.4c-0.3,0-0.6,0.1-0.9,0.2c-0.4,0.2-0.8,0.5-1,0.8c-0.2,0.4-0.4,0.8-0.4,1.3c0,0.3,0.1,0.6,0.2,0.9
			c0,0,0,0.1,0.1,0.1c-0.2,0.1-0.5,0.1-0.7,0.2c-0.6,0.2-1.2,0.5-1.7,1c-0.8,0.6-1.4,1.4-1.9,2.4c-0.5,1-0.8,2.1-1,3.5
			c-0.2,1.6-0.6,2.8-1,3.8c-0.5,1-1,1.9-1.7,2.8c-0.5,0.7-0.7,1.4-0.7,2.1c0,0.4,0.1,0.7,0.2,1c0.2,0.5,0.4,0.9,0.8,1.2
			c0.2,0.2,0.4,0.3,0.7,0.4c0.2,0.1,0.5,0.1,0.8,0.1h4.9c0,0.3,0.1,0.7,0.2,1c0.3,0.6,0.7,1.1,1.2,1.5c0.5,0.4,1.2,0.6,1.9,0.6
			c0.5,0,0.9-0.1,1.3-0.3c0.6-0.3,1.1-0.7,1.5-1.2c0.3-0.5,0.5-1,0.6-1.6h4.9c0.4,0,0.7-0.1,1-0.3c0.2-0.1,0.4-0.3,0.6-0.5
			c0.3-0.3,0.5-0.6,0.6-0.9c0.1-0.4,0.2-0.7,0.2-1.1c0-0.7-0.2-1.4-0.7-2.1C48.5,16.2,47.9,15.4,47.5,14.4z M38.4,2.2
			c0.1-0.1,0.2-0.3,0.3-0.4c0.1-0.1,0.3-0.1,0.4-0.1c0.1,0,0.2,0,0.3,0.1c0.1,0.1,0.3,0.2,0.4,0.3c0.1,0.1,0.1,0.3,0.1,0.4
			c0,0.1,0,0.2-0.1,0.3c-0.1,0.1-0.2,0.3-0.3,0.4c-0.1,0.1-0.3,0.1-0.4,0.1c-0.1,0-0.2,0-0.3-0.1c-0.1-0.1-0.3-0.2-0.4-0.3
			c-0.1-0.1-0.1-0.3-0.1-0.4C38.3,2.4,38.3,2.3,38.4,2.2 M32.1,15c0.5-1.1,0.9-2.5,1.1-4.2c0.1-1.1,0.4-2,0.7-2.7
			c0.2-0.6,0.5-1,0.9-1.5c0.5-0.6,1.1-1,1.8-1.4c0.7-0.3,1.5-0.5,2.5-0.5c0.8,0,1.6,0.1,2.2,0.4c0.5,0.2,0.9,0.4,1.3,0.7
			c0.6,0.5,1.1,1.1,1.5,1.9c0.4,0.8,0.7,1.8,0.8,3c0.2,1.7,0.6,3.1,1.1,4.2c0.3,0.8,0.7,1.2,1.2,1.9H30.9
			C31.3,16.2,31.7,15.7,32.1,15 M40.9,22.4c-0.1,0.3-0.4,0.6-0.7,0.8c-0.3,0.2-0.7,0.3-1.1,0.3c-0.3,0-0.5-0.1-0.7-0.2
			c-0.3-0.1-0.6-0.4-0.8-0.7c-0.1-0.2-0.2-0.5-0.3-0.7H41C40.9,22.2,40.9,22.3,40.9,22.4 M48.2,19.9c-0.1,0.3-0.2,0.4-0.4,0.6
			c-0.1,0.1-0.1,0.1-0.2,0.1c-0.1,0-0.2,0-0.2,0h-5.1h-1.7h-3.1h-1.7h-5.1c-0.1,0-0.2,0-0.3-0.1c-0.1,0-0.1-0.1-0.2-0.2
			c-0.1-0.1-0.2-0.3-0.3-0.4c-0.1-0.2-0.1-0.4-0.1-0.6c0-0.4,0.1-0.7,0.3-1.1H48c0.2,0.4,0.3,0.8,0.3,1.1
			C48.3,19.5,48.3,19.7,48.2,19.9"/>
	</defs>
	<clipPath id="SVGID_2_">
		<use xlink:href="#SVGID_1_"  style="overflow:visible;"/>
	</clipPath>
	<g class="st1">
		<defs>
			<rect id="SVGID_3_" x="20" y="-6.3" width="37.2" height="37.2"/>
		</defs>
		<clipPath id="SVGID_4_">
			<use xlink:href="#SVGID_3_"  style="overflow:visible;"/>
		</clipPath>
		<rect x="23.7" y="-4.5" class="st2" width="30.7" height="34.2"/>
	</g>
</g>
</svg>
