<?xml version="1.0" encoding="utf-8"?>
<!-- Generator: Adobe Illustrator 19.2.1, SVG Export Plug-In . SVG Version: 6.00 Build 0)  -->
<svg version="1.1" id="レイヤー_1" xmlns="http://www.w3.org/2000/svg" xmlns:xlink="http://www.w3.org/1999/xlink" x="0px"
	 y="0px" viewBox="0 0 25 25" style="enable-background:new 0 0 25 25;" xml:space="preserve">
<style type="text/css">
	.st0{fill:#A4AAB3;}
	.st1{clip-path:url(#SVGID_2_);}
	.st2{clip-path:url(#SVGID_4_);fill:#A4AAB3;}
</style>
<g>
	<defs>
		<path id="SVGID_1_" d="M20.9,14.2c-0.5-1-0.8-2.2-1-3.8c-0.2-1.2-0.4-2.2-0.8-3.1c-0.3-0.7-0.7-1.3-1.1-1.8
			c-0.7-0.8-1.5-1.4-2.4-1.8c-0.3-0.1-0.7-0.3-1-0.3c0.2-0.3,0.2-0.7,0.2-1c0-0.3-0.1-0.6-0.2-0.9c-0.2-0.4-0.5-0.8-0.8-1
			c-0.4-0.2-0.8-0.4-1.3-0.4c-0.3,0-0.6,0.1-0.9,0.2c-0.4,0.2-0.8,0.5-1,0.8c-0.2,0.4-0.4,0.8-0.4,1.3c0,0.3,0.1,0.6,0.2,0.9
			c0,0,0,0.1,0.1,0.1C10.2,3.4,10,3.5,9.8,3.6C9.1,3.8,8.5,4.1,8,4.6C7.2,5.2,6.6,6,6.1,7c-0.5,1-0.8,2.1-1,3.5
			c-0.2,1.6-0.6,2.8-1,3.8c-0.5,1-1,1.9-1.7,2.8c-0.5,0.7-0.7,1.4-0.7,2.1c0,0.4,0.1,0.7,0.2,1c0.2,0.5,0.4,0.9,0.8,1.2
			c0.2,0.2,0.4,0.3,0.7,0.4c0.2,0.1,0.5,0.1,0.8,0.1h4.9c0,0.3,0.1,0.7,0.2,1c0.3,0.6,0.7,1.1,1.2,1.5c0.5,0.4,1.2,0.6,1.9,0.6
			c0.5,0,0.9-0.1,1.3-0.3c0.6-0.3,1.1-0.7,1.5-1.2c0.3-0.5,0.5-1,0.6-1.6h4.9c0.4,0,0.7-0.1,1-0.3c0.2-0.1,0.4-0.3,0.6-0.5
			c0.3-0.3,0.5-0.6,0.6-0.9c0.1-0.4,0.2-0.7,0.2-1.1c0-0.7-0.2-1.4-0.7-2.1C21.9,16.1,21.3,15.2,20.9,14.2z M11.8,2
			c0.1-0.1,0.2-0.3,0.3-0.4c0.1-0.1,0.3-0.1,0.4-0.1c0.1,0,0.2,0,0.3,0.1c0.1,0.1,0.3,0.2,0.4,0.3c0.1,0.1,0.1,0.3,0.1,0.4
			c0,0.1,0,0.2-0.1,0.3c-0.1,0.1-0.2,0.3-0.3,0.4c-0.1,0.1-0.3,0.1-0.4,0.1c-0.1,0-0.2,0-0.3-0.1C12,3,11.9,2.9,11.8,2.8
			c-0.1-0.1-0.1-0.3-0.1-0.4C11.7,2.2,11.7,2.1,11.8,2 M5.5,14.8c0.5-1.1,0.9-2.5,1.1-4.2c0.1-1.1,0.4-2,0.7-2.7
			c0.2-0.6,0.5-1,0.9-1.5c0.5-0.6,1.1-1,1.8-1.4c0.7-0.3,1.5-0.5,2.5-0.5c0.8,0,1.6,0.1,2.2,0.4c0.5,0.2,0.9,0.4,1.3,0.7
			c0.6,0.5,1.1,1.1,1.5,1.9c0.4,0.8,0.7,1.8,0.8,3c0.2,1.7,0.6,3.1,1.1,4.2c0.3,0.8,0.7,1.2,1.2,1.9H4.3C4.8,16.1,5.2,15.6,5.5,14.8
			 M14.3,22.3c-0.1,0.3-0.4,0.6-0.7,0.8c-0.3,0.2-0.7,0.3-1.1,0.3c-0.3,0-0.5-0.1-0.7-0.2c-0.3-0.1-0.6-0.4-0.8-0.7
			c-0.1-0.2-0.2-0.5-0.3-0.7h3.8C14.4,22,14.3,22.1,14.3,22.3 M21.6,19.7c-0.1,0.3-0.2,0.4-0.4,0.6c-0.1,0.1-0.1,0.1-0.2,0.1
			c-0.1,0-0.2,0-0.2,0h-5.1H14H11H9.3H4.2c-0.1,0-0.2,0-0.3-0.1c-0.1,0-0.1-0.1-0.2-0.2c-0.1-0.1-0.2-0.3-0.3-0.4
			c-0.1-0.2-0.1-0.4-0.1-0.6c0-0.4,0.1-0.7,0.3-1.1h17.8c0.2,0.4,0.3,0.8,0.3,1.1C21.7,19.4,21.7,19.6,21.6,19.7"/>
	</defs>
	<clipPath id="SVGID_2_">
		<use xlink:href="#SVGID_1_"  style="overflow:visible;"/>
	</clipPath>
	<g class="st1">
		<defs>
			<rect id="SVGID_3_" x="-6.6" y="-6.5" width="37.2" height="37.2"/>
		</defs>
		<clipPath id="SVGID_4_">
			<use xlink:href="#SVGID_3_"  style="overflow:visible;"/>
		</clipPath>
		<rect x="-2.9" y="-4.6" class="st2" width="30.7" height="34.2"/>
	</g>
</g>
</svg>
