<?xml version="1.0" encoding="utf-8"?>
<!-- Generator: Adobe Illustrator 19.2.1, SVG Export Plug-In . SVG Version: 6.00 Build 0)  -->
<svg version="1.1" id="レイヤー_1" xmlns="http://www.w3.org/2000/svg" xmlns:xlink="http://www.w3.org/1999/xlink" x="0px"
	 y="0px" viewBox="0 0 25 25" style="enable-background:new 0 0 25 25;" xml:space="preserve">
<style type="text/css">
	.st0{fill:#A4AAB3;}
	.st1{clip-path:url(#SVGID_2_);}
	.st2{clip-path:url(#SVGID_4_);fill:#A4AAB3;}
</style>
<g>
	<defs>
		<path id="SVGID_1_" d="M-6.2,14.4c-0.5-1-0.8-2.2-1-3.8c-0.2-1.2-0.4-2.2-0.8-3.1c-0.3-0.7-0.7-1.3-1.1-1.8
			c-0.7-0.8-1.5-1.4-2.4-1.8c-0.3-0.1-0.7-0.3-1-0.3c0.2-0.3,0.2-0.7,0.2-1c0-0.3-0.1-0.6-0.2-0.9c-0.2-0.4-0.5-0.8-0.8-1
			c-0.4-0.2-0.8-0.4-1.3-0.4c-0.3,0-0.6,0.1-0.9,0.2c-0.4,0.2-0.8,0.5-1,0.8c-0.2,0.4-0.4,0.8-0.4,1.3c0,0.3,0.1,0.6,0.2,0.9
			c0,0,0,0.1,0.1,0.1c-0.2,0.1-0.5,0.1-0.7,0.2c-0.6,0.2-1.2,0.5-1.7,1c-0.8,0.6-1.4,1.4-1.9,2.4c-0.5,1-0.8,2.1-1,3.5
			c-0.2,1.6-0.6,2.8-1,3.8c-0.5,1-1,1.9-1.7,2.8c-0.5,0.7-0.7,1.4-0.7,2.1c0,0.4,0.1,0.7,0.2,1c0.2,0.5,0.4,0.9,0.8,1.2
			c0.2,0.2,0.4,0.3,0.7,0.4c0.2,0.1,0.5,0.1,0.8,0.1h4.9c0,0.3,0.1,0.7,0.2,1c0.3,0.6,0.7,1.1,1.2,1.5c0.5,0.4,1.2,0.6,1.9,0.6
			c0.5,0,0.9-0.1,1.3-0.3c0.6-0.3,1.1-0.7,1.5-1.2c0.3-0.5,0.5-1,0.6-1.6h4.9c0.4,0,0.7-0.1,1-0.3c0.2-0.1,0.4-0.3,0.6-0.5
			c0.3-0.3,0.5-0.6,0.6-0.9c0.1-0.4,0.2-0.7,0.2-1.1c0-0.7-0.2-1.4-0.7-2.1C-5.2,16.2-5.8,15.4-6.2,14.4z M-15.3,2.2
			c0.1-0.1,0.2-0.3,0.3-0.4c0.1-0.1,0.3-0.1,0.4-0.1c0.1,0,0.2,0,0.3,0.1c0.1,0.1,0.3,0.2,0.4,0.3c0.1,0.1,0.1,0.3,0.1,0.4
			c0,0.1,0,0.2-0.1,0.3c-0.1,0.1-0.2,0.3-0.3,0.4c-0.1,0.1-0.3,0.1-0.4,0.1c-0.1,0-0.2,0-0.3-0.1c-0.1-0.1-0.3-0.2-0.4-0.3
			c-0.1-0.1-0.1-0.3-0.1-0.4C-15.4,2.4-15.4,2.3-15.3,2.2 M-21.6,15c0.5-1.1,0.9-2.5,1.1-4.2c0.1-1.1,0.4-2,0.7-2.7
			c0.2-0.6,0.5-1,0.9-1.5c0.5-0.6,1.1-1,1.8-1.4c0.7-0.3,1.5-0.5,2.5-0.5c0.8,0,1.6,0.1,2.2,0.4c0.5,0.2,0.9,0.4,1.3,0.7
			C-10.4,6.3-10,7-9.6,7.8c0.4,0.8,0.7,1.8,0.8,3c0.2,1.7,0.6,3.1,1.1,4.2c0.3,0.8,0.7,1.2,1.2,1.9h-16.3
			C-22.3,16.2-21.9,15.7-21.6,15 M-12.8,22.4c-0.1,0.3-0.4,0.6-0.7,0.8c-0.3,0.2-0.7,0.3-1.1,0.3c-0.3,0-0.5-0.1-0.7-0.2
			c-0.3-0.1-0.6-0.4-0.8-0.7c-0.1-0.2-0.2-0.5-0.3-0.7h3.8C-12.7,22.2-12.8,22.3-12.8,22.4 M-5.5,19.9c-0.1,0.3-0.2,0.4-0.4,0.6
			C-5.9,20.5-6,20.6-6,20.6c-0.1,0-0.2,0-0.2,0h-5.1h-1.7h-3.1h-1.7h-5.1c-0.1,0-0.2,0-0.3-0.1c-0.1,0-0.1-0.1-0.2-0.2
			c-0.1-0.1-0.2-0.3-0.3-0.4c-0.1-0.2-0.1-0.4-0.1-0.6c0-0.4,0.1-0.7,0.3-1.1h17.8c0.2,0.4,0.3,0.8,0.3,1.1
			C-5.4,19.5-5.4,19.7-5.5,19.9"/>
	</defs>
	<clipPath id="SVGID_2_">
		<use xlink:href="#SVGID_1_"  style="overflow:visible;"/>
	</clipPath>
	<g class="st1">
		<defs>
			<rect id="SVGID_3_" x="-33.7" y="-6.3" width="37.2" height="37.2"/>
		</defs>
		<clipPath id="SVGID_4_">
			<use xlink:href="#SVGID_3_"  style="overflow:visible;"/>
		</clipPath>
		<rect x="-30" y="-4.5" class="st2" width="30.7" height="34.2"/>
	</g>
</g>
<g>
	<g>
		<path class="st0" d="M20.2,15.6c-1.7,0-3.1-1.4-3.1-3.1s1.4-3.1,3.1-3.1s3.1,1.4,3.1,3.1S21.9,15.6,20.2,15.6z M20.2,11.1
			c-0.8,0-1.4,0.6-1.4,1.4s0.6,1.4,1.4,1.4s1.4-0.6,1.4-1.4S21,11.1,20.2,11.1z M12.5,15.6c-1.7,0-3.1-1.4-3.1-3.1s1.4-3.1,3.1-3.1
			s3.1,1.4,3.1,3.1S14.2,15.6,12.5,15.6z M12.5,11.1c-0.8,0-1.4,0.6-1.4,1.4s0.6,1.4,1.4,1.4s1.4-0.6,1.4-1.4S13.3,11.1,12.5,11.1z
			 M4.8,15.6c-1.7,0-3.1-1.4-3.1-3.1s1.4-3.1,3.1-3.1s3.1,1.4,3.1,3.1S6.5,15.6,4.8,15.6z M4.8,11.1c-0.8,0-1.4,0.6-1.4,1.4
			s0.6,1.4,1.4,1.4s1.4-0.6,1.4-1.4S5.6,11.1,4.8,11.1z"/>
	</g>
</g>
</svg>
