<svg id="レイヤー_1" data-name="レイヤー 1" xmlns="http://www.w3.org/2000/svg" xmlns:xlink="http://www.w3.org/1999/xlink" viewBox="0 0 25 25"><defs><style>.cls-1,.cls-2,.cls-6{fill:#f5a623;}.cls-1,.cls-3,.cls-4{clip-rule:evenodd;}.cls-3,.cls-5{fill:none;}.cls-15,.cls-17,.cls-4{fill:#a4aab3;}.cls-15,.cls-6{fill-rule:evenodd;}.cls-7{clip-path:url(#clip-path);}.cls-8{clip-path:url(#clip-path-2);}.cls-9{clip-path:url(#clip-path-3);}.cls-10{clip-path:url(#clip-path-4);}.cls-11{clip-path:url(#clip-path-5);}.cls-12{clip-path:url(#clip-path-6);}.cls-13{clip-path:url(#clip-path-7);}.cls-14{clip-path:url(#clip-path-8);}.cls-16{clip-path:url(#clip-path-9);}.cls-18{clip-path:url(#clip-path-10);}.cls-19{clip-path:url(#clip-path-11);}.cls-20{clip-path:url(#clip-path-12);}.cls-21{clip-path:url(#clip-path-13);}.cls-22{clip-path:url(#clip-path-14);}.cls-23{clip-path:url(#clip-path-15);}.cls-24{clip-path:url(#clip-path-16);}</style><clipPath id="clip-path"><path class="cls-1" d="M20.86,14.21a13.1,13.1,0,0,1-1-3.79A11.48,11.48,0,0,0,19,7.3a7.5,7.5,0,0,0-1.1-1.81,6.19,6.19,0,0,0-2.38-1.77,6.73,6.73,0,0,0-1-.34,2.29,2.29,0,1,0-4.15-.14l0.07,0.14a6.9,6.9,0,0,0-.71.22A6.25,6.25,0,0,0,8,4.56,6.8,6.8,0,0,0,6.12,7a11.07,11.07,0,0,0-1,3.46,13.13,13.13,0,0,1-1,3.79A16.88,16.88,0,0,1,2.46,17a3.6,3.6,0,0,0-.66,2.06,3.3,3.3,0,0,0,.16,1,2.73,2.73,0,0,0,.8,1.24,2.21,2.21,0,0,0,.65.39,2.16,2.16,0,0,0,.78.14H9.11a3.38,3.38,0,0,0,.25,1,3.44,3.44,0,0,0,1.23,1.5,3.41,3.41,0,0,0,5.29-2.48h4.92a2.16,2.16,0,0,0,1-.25,2.32,2.32,0,0,0,.6-0.46A2.77,2.77,0,0,0,23,20.22a3.26,3.26,0,0,0,.2-1.13A3.61,3.61,0,0,0,22.54,17,16.8,16.8,0,0,1,20.86,14.21ZM11.77,2a0.8,0.8,0,0,1,.29-0.35,0.8,0.8,0,0,1,.75-0.07,0.8,0.8,0,0,1,.35.29,0.8,0.8,0,0,1,.07.76,0.8,0.8,0,0,1-.29.35,0.8,0.8,0,0,1-.75.07,0.8,0.8,0,0,1-.42-1M5.5,14.82a14.63,14.63,0,0,0,1.13-4.21A10,10,0,0,1,7.33,7.9a6,6,0,0,1,.88-1.45A4.7,4.7,0,0,1,10,5.1a6.32,6.32,0,0,1,2.48-.46A6.51,6.51,0,0,1,14.74,5a4.75,4.75,0,0,1,1.32.73,5.31,5.31,0,0,1,1.48,1.89,9.62,9.62,0,0,1,.83,3,14.63,14.63,0,0,0,1.13,4.21,12.84,12.84,0,0,0,1.16,1.9H4.34a12.84,12.84,0,0,0,1.16-1.9m8.77,7.45a1.93,1.93,0,0,1-.69.84,1.92,1.92,0,0,1-1.81.18,1.93,1.93,0,0,1-.84-0.7,1.91,1.91,0,0,1-.3-0.72h3.77a1.89,1.89,0,0,1-.12.4m7.36-2.54a1.25,1.25,0,0,1-.35.57,0.74,0.74,0,0,1-.22.13,0.66,0.66,0,0,1-.24,0H4.19a0.67,0.67,0,0,1-.32-0.08,0.81,0.81,0,0,1-.21-0.17A1.28,1.28,0,0,1,3.4,19.8a1.8,1.8,0,0,1-.11-0.62,2.11,2.11,0,0,1,.32-1.11H21.38a2.11,2.11,0,0,1,.32,1.11,1.82,1.82,0,0,1-.09.56"/></clipPath><clipPath id="clip-path-2"><rect class="cls-2" x="-6.57" y="-6.45" width="37.21" height="37.21"/></clipPath><clipPath id="clip-path-3"><path class="cls-3" d="M-84.52,75.67a1.77,1.77,0,0,1,1.35-.79,1.77,1.77,0,0,1,1.45.59l1.15,1.3a2.19,2.19,0,0,0,3.64-.26l4-6.1a1.77,1.77,0,0,1,1.47-.79,1.77,1.77,0,0,1,1.48.79l7.14,10.75c0.91,1.38.31,2.49-1.34,2.49H-86.79c-1.66,0-2.25-1.13-1.35-2.5Zm1.87-12.16a3.57,3.57,0,0,1,3.58,3.56,3.57,3.57,0,0,1-3.58,3.56,3.57,3.57,0,0,1-3.58-3.56A3.57,3.57,0,0,1-82.65,63.51ZM-93.46,83.3a5,5,0,0,0,5,5h26a5,5,0,0,0,5-5V65a5,5,0,0,0-5-5h-26a5,5,0,0,0-5,5V83.3Z"/></clipPath><clipPath id="clip-path-4"><path class="cls-3" d="M-31.48,65.74a1.83,1.83,0,0,0,1.83-1.84V61a1.83,1.83,0,0,0-1.83-1.84A1.83,1.83,0,0,0-33.31,61V63.9A1.83,1.83,0,0,0-31.48,65.74Z"/></clipPath><clipPath id="clip-path-5"><path class="cls-3" d="M-18,65.74a1.83,1.83,0,0,0,1.83-1.84V61A1.83,1.83,0,0,0-18,59.17,1.83,1.83,0,0,0-19.83,61V63.9A1.83,1.83,0,0,0-18,65.74Z"/></clipPath><clipPath id="clip-path-6"><path class="cls-3" d="M-15.79,84.56H-34.57a1.85,1.85,0,0,1-1.88-1.81v-12h22.53v12A1.85,1.85,0,0,1-15.79,84.56Zm1.23-22.77V63.9A3.45,3.45,0,0,1-18,67.36a3.45,3.45,0,0,1-3.44-3.46V61.79H-28V63.9a3.45,3.45,0,0,1-3.43,3.46,3.45,3.45,0,0,1-3.44-3.46V61.79H-36a4.42,4.42,0,0,0-4.4,4.43V84.74A4.42,4.42,0,0,0-36,89.17h22.61A4.42,4.42,0,0,0-9,84.74V66.22a4.42,4.42,0,0,0-4.4-4.43h-1.13Z"/></clipPath><clipPath id="clip-path-7"><path class="cls-3" d="M27.2,74.3a1.93,1.93,0,1,1,1.93-1.93A1.93,1.93,0,0,1,27.2,74.3Zm-7.54,0a1.93,1.93,0,1,1,1.93-1.93A1.93,1.93,0,0,1,19.66,74.3Zm-7.54,0a1.93,1.93,0,1,1,1.93-1.93A1.93,1.93,0,0,1,12.12,74.3Zm7.61-15.13c-9.7,0-16.28,4.95-16.28,12.64a12.38,12.38,0,0,0,5.77,11c0.25,0.16.55,0.19,0.44,0.66-0.45,1.9-1.24,5.27-1.24,5.27a0.37,0.37,0,0,0,.54.41s5.56-3.3,6.31-3.71a8.48,8.48,0,0,1,4.34-1.18c7.69,0,16.27-3.08,16.27-12.51C35.87,64.42,30,59.17,19.73,59.17Z"/></clipPath><clipPath id="clip-path-8"><path class="cls-3" d="M-82.65,140.51H-82a1.28,1.28,0,0,1,.42.95,1.28,1.28,0,0,1-.47,1h-0.83a0.29,0.29,0,0,0-.29.29,0.29,0.29,0,0,0,.29.29h0.52a1,1,0,0,1,.22.68,1.28,1.28,0,0,1-.47,1h-0.8a0.29,0.29,0,0,0-.29.29,0.29,0.29,0,0,0,.29.29h0.23a1.23,1.23,0,0,1,0,.34,1.28,1.28,0,0,1-1.06,1.27L-85,147a12.4,12.4,0,0,1-1.73.11l-1.53,0a12.83,12.83,0,0,1-4.36-.81c-2.58-1.31-2.58-5.6-.78-7.42,1-1,2-1.67,2.78-2.66,1.28-1.53,2.52-3.34,2.65-4.13a1.25,1.25,0,0,1,1.13-1.2,1.21,1.21,0,0,1,1.08.94,4.55,4.55,0,0,1-.27,3.17c-0.23.63-1.47,1.65-.71,2.47a2,2,0,0,0,1.35.42h2.73a1.28,1.28,0,0,1,1.27,1.29,1.05,1.05,0,0,1-.39.77h-0.82a0.29,0.29,0,0,0-.29.29A0.29,0.29,0,0,0-82.65,140.51Z"/></clipPath><clipPath id="clip-path-9"><path class="cls-4" d="M-54,140.51h0.62a1.28,1.28,0,0,1,.42.95,1.28,1.28,0,0,1-.47,1h-0.83a0.29,0.29,0,0,0-.29.29,0.29,0.29,0,0,0,.29.29h0.52a1,1,0,0,1,.22.68,1.28,1.28,0,0,1-.47,1h-0.8A0.29,0.29,0,0,0-55,145a0.29,0.29,0,0,0,.29.29h0.23a1.23,1.23,0,0,1,0,.34,1.28,1.28,0,0,1-1.06,1.27l-0.8.12a12.4,12.4,0,0,1-1.73.11l-1.53,0a12.83,12.83,0,0,1-4.36-.81c-2.58-1.31-2.58-5.6-.78-7.42,1-1,2-1.67,2.78-2.66,1.28-1.53,2.52-3.34,2.65-4.13a1.25,1.25,0,0,1,1.13-1.2,1.21,1.21,0,0,1,1.08.94,4.55,4.55,0,0,1-.27,3.17c-0.23.63-1.47,1.65-.71,2.47a2,2,0,0,0,1.35.42H-54a1.28,1.28,0,0,1,1.27,1.29,1.05,1.05,0,0,1-.39.77H-54a0.29,0.29,0,0,0-.29.29A0.29,0.29,0,0,0-54,140.51Z"/></clipPath><clipPath id="clip-path-10"><path class="cls-3" d="M-24.13,139.06a1,1,0,0,1-1-1,1,1,0,0,1,1-1,1,1,0,0,1,1,1A1,1,0,0,1-24.13,139.06Zm-4.05,0a1,1,0,0,1-1-1,1,1,0,0,1,1-1,1,1,0,0,1,1,1A1,1,0,0,1-28.18,139.06Zm-4.05,0a1,1,0,0,1-1-1,1,1,0,0,1,1-1,1,1,0,0,1,1,1A1,1,0,0,1-32.23,139.06Zm4.09-8.07c-5.21,0-8.75,2.64-8.75,6.74a6.59,6.59,0,0,0,3.1,5.85c0.14,0.09.3,0.1,0.24,0.35-0.24,1-.67,2.81-0.67,2.81a0.2,0.2,0,0,0,.07.2,0.2,0.2,0,0,0,.22,0s3-1.76,3.39-2a4.58,4.58,0,0,1,2.33-.63c4.13,0,8.74-1.64,8.74-6.67C-19.47,133.79-22.63,131-28.14,131Z"/></clipPath><clipPath id="clip-path-11"><path class="cls-3" d="M8.93,138.16l-7.38-6v3.08c-7.19.06-9.86,5.46-9,10.66,1.57-3.23,4.84-4.51,9-4.65v3Z"/></clipPath><clipPath id="clip-path-12"><path class="cls-3" d="M36,145.18H34.7a7.76,7.76,0,0,0,.29-2h1.69A4,4,0,0,1,36,145.18Zm-0.61.75a4.32,4.32,0,0,1-1.6,1,4.31,4.31,0,0,0,.72-1.28h1.16C35.62,145.73,35.53,145.83,35.43,145.92Zm-2.26,1a1.52,1.52,0,0,1-.34.2l-0.21,0v-1.51h1.44c-0.06.14-.12,0.28-0.19,0.41A2.8,2.8,0,0,1,33.17,146.91Zm-0.55-3.7h1.91a7.24,7.24,0,0,1-.31,2h-1.6v-2Zm0-2.41h1.6a7.25,7.25,0,0,1,.31,2H32.62v-2Zm0-2,0.21,0a1.53,1.53,0,0,1,.34.2,3.2,3.2,0,0,1,.89,1.29H32.62v-1.51Zm2.81,1.21c0.1,0.1.19,0.2,0.28,0.3H34.55a5.21,5.21,0,0,0-.27-0.62,3.75,3.75,0,0,0-.45-0.67A4.33,4.33,0,0,1,35.43,140.05ZM36,140.8a4,4,0,0,1,.64,2H35a7.78,7.78,0,0,0-.29-2H36Zm-3.89-.44H30.72c0.06-.14.12-0.28,0.19-0.41a2.8,2.8,0,0,1,.7-0.88,1.52,1.52,0,0,1,.34-0.2l0.21,0v1.51h0Zm0,2.41H30.25a7.24,7.24,0,0,1,.31-2h1.6v2h0Zm0,2.41h-1.6a7.25,7.25,0,0,1-.31-2h1.92v2h0Zm0,2-0.21,0a1.52,1.52,0,0,1-.34-0.2,3.2,3.2,0,0,1-.89-1.29h1.44v1.51h0Zm-2.81-1.21c-0.1-.1-0.19-0.2-0.28-0.3h1.16a5.2,5.2,0,0,0,.27.62,3.75,3.75,0,0,0,.45.67A4.33,4.33,0,0,1,29.35,145.92Zm-0.61-.75a4,4,0,0,1-.64-2h1.69a7.78,7.78,0,0,0,.29,2H28.73Zm0-4.37h1.34a7.76,7.76,0,0,0-.29,2H28.1A4,4,0,0,1,28.73,140.8Zm0.61-.75a4.33,4.33,0,0,1,1.6-1,4.3,4.3,0,0,0-.72,1.28H29.06C29.15,140.25,29.25,140.15,29.35,140.05Zm3-1.81A4.75,4.75,0,1,0,37.3,143,4.83,4.83,0,0,0,32.39,138.24Z"/></clipPath><clipPath id="clip-path-13"><ellipse class="cls-5" cx="57.17" cy="141.49" rx="1.78" ry="1.8"/></clipPath><clipPath id="clip-path-14"><ellipse class="cls-5" cx="53.25" cy="142.75" rx="1.32" ry="1.34"/></clipPath><clipPath id="clip-path-15"><path class="cls-3" d="M51.5,145.57v1A1.54,1.54,0,0,0,53,148.12h1.25v-3a1.87,1.87,0,0,1,.13-0.38,1.91,1.91,0,0,0-1.18-.37A1.7,1.7,0,0,0,51.5,145.57Z"/></clipPath><clipPath id="clip-path-16"><path class="cls-3" d="M54.84,145.27v2.58a0.84,0.84,0,0,0,.83.84h3a0.84,0.84,0,0,0,.83-0.84v-2.58A2.51,2.51,0,0,0,54.84,145.27Z"/></clipPath></defs><title>icon</title><path class="cls-6" d="M20.86,14.21a13.1,13.1,0,0,1-1-3.79A11.48,11.48,0,0,0,19,7.3a7.5,7.5,0,0,0-1.1-1.81,6.19,6.19,0,0,0-2.38-1.77,6.73,6.73,0,0,0-1-.34,2.29,2.29,0,1,0-4.15-.14l0.07,0.14a6.9,6.9,0,0,0-.71.22A6.25,6.25,0,0,0,8,4.56,6.8,6.8,0,0,0,6.12,7a11.07,11.07,0,0,0-1,3.46,13.13,13.13,0,0,1-1,3.79A16.88,16.88,0,0,1,2.46,17a3.6,3.6,0,0,0-.66,2.06,3.3,3.3,0,0,0,.16,1,2.73,2.73,0,0,0,.8,1.24,2.21,2.21,0,0,0,.65.39,2.16,2.16,0,0,0,.78.14H9.11a3.38,3.38,0,0,0,.25,1,3.44,3.44,0,0,0,1.23,1.5,3.41,3.41,0,0,0,5.29-2.48h4.92a2.16,2.16,0,0,0,1-.25,2.32,2.32,0,0,0,.6-0.46A2.77,2.77,0,0,0,23,20.22a3.26,3.26,0,0,0,.2-1.13A3.61,3.61,0,0,0,22.54,17,16.8,16.8,0,0,1,20.86,14.21ZM11.77,2a0.8,0.8,0,0,1,.29-0.35,0.8,0.8,0,0,1,.75-0.07,0.8,0.8,0,0,1,.35.29,0.8,0.8,0,0,1,.07.76,0.8,0.8,0,0,1-.29.35,0.8,0.8,0,0,1-.75.07,0.8,0.8,0,0,1-.42-1M5.5,14.82a14.63,14.63,0,0,0,1.13-4.21A10,10,0,0,1,7.33,7.9a6,6,0,0,1,.88-1.45A4.7,4.7,0,0,1,10,5.1a6.32,6.32,0,0,1,2.48-.46A6.51,6.51,0,0,1,14.74,5a4.75,4.75,0,0,1,1.32.73,5.31,5.31,0,0,1,1.48,1.89,9.62,9.62,0,0,1,.83,3,14.63,14.63,0,0,0,1.13,4.21,12.84,12.84,0,0,0,1.16,1.9H4.34a12.84,12.84,0,0,0,1.16-1.9m8.77,7.45a1.93,1.93,0,0,1-.69.84,1.92,1.92,0,0,1-1.81.18,1.93,1.93,0,0,1-.84-0.7,1.91,1.91,0,0,1-.3-0.72h3.77a1.89,1.89,0,0,1-.12.4m7.36-2.54a1.25,1.25,0,0,1-.35.57,0.74,0.74,0,0,1-.22.13,0.66,0.66,0,0,1-.24,0H4.19a0.67,0.67,0,0,1-.32-0.08,0.81,0.81,0,0,1-.21-0.17A1.28,1.28,0,0,1,3.4,19.8a1.8,1.8,0,0,1-.11-0.62,2.11,2.11,0,0,1,.32-1.11H21.38a2.11,2.11,0,0,1,.32,1.11,1.82,1.82,0,0,1-.09.56"/><g class="cls-7"><rect class="cls-2" x="-6.57" y="-6.45" width="37.21" height="37.21"/><g class="cls-8"><rect class="cls-2" x="-2.85" y="-4.59" width="30.7" height="34.19"/></g></g><path class="cls-15" d="M-54,140.51h0.62a1.28,1.28,0,0,1,.42.95,1.28,1.28,0,0,1-.47,1h-0.83a0.29,0.29,0,0,0-.29.29,0.29,0.29,0,0,0,.29.29h0.52a1,1,0,0,1,.22.68,1.28,1.28,0,0,1-.47,1h-0.8A0.29,0.29,0,0,0-55,145a0.29,0.29,0,0,0,.29.29h0.23a1.23,1.23,0,0,1,0,.34,1.28,1.28,0,0,1-1.06,1.27l-0.8.12a12.4,12.4,0,0,1-1.73.11l-1.53,0a12.83,12.83,0,0,1-4.36-.81c-2.58-1.31-2.58-5.6-.78-7.42,1-1,2-1.67,2.78-2.66,1.28-1.53,2.52-3.34,2.65-4.13a1.25,1.25,0,0,1,1.13-1.2,1.21,1.21,0,0,1,1.08.94,4.55,4.55,0,0,1-.27,3.17c-0.23.63-1.47,1.65-.71,2.47a2,2,0,0,0,1.35.42H-54a1.28,1.28,0,0,1,1.27,1.29,1.05,1.05,0,0,1-.39.77H-54a0.29,0.29,0,0,0-.29.29A0.29,0.29,0,0,0-54,140.51Z"/><g class="cls-16"><rect class="cls-17" x="-87.89" y="-355.01" width="375" height="667"/></g></svg>