<?xml version="1.0" encoding="utf-8"?>
<!-- Generator: Adobe Illustrator 19.2.1, SVG Export Plug-In . SVG Version: 6.00 Build 0)  -->
<svg version="1.1" id="レイヤー_1" xmlns="http://www.w3.org/2000/svg" xmlns:xlink="http://www.w3.org/1999/xlink" x="0px"
	 y="0px" viewBox="0 0 26.6 25" style="enable-background:new 0 0 26.6 25;" xml:space="preserve">
<style type="text/css">
	.st0{fill:#A4AAB3;}
	.st1{clip-path:url(#SVGID_2_);}
	.st2{clip-path:url(#SVGID_4_);fill:#A4AAB3;}
</style>
<g>
	<path class="st0" d="M19.9,24.3H6.4c-1.1,0-2-0.8-2-1.8v-6.4H2.1c-0.8,0-1.4-0.4-1.8-1C-0.1,14.4,0,13.5,0.6,13L11.8,1.4
		c0.7-0.8,2.2-0.8,3,0l0,0L26,13c0.6,0.6,0.7,1.4,0.3,2.1c-0.4,0.6-1,1-1.8,1h-2.4v6.2C22.1,23.4,21.1,24.3,19.9,24.3z M6.5,22.3
		l13.4,0c0.2,0,0.2-0.1,0.2-0.1l0-0.3v-6.7c0-0.6,0.5-1.2,1.2-1.2h3L13.4,2.8l-0.2,0L2.3,14.1l3,0c0.7,0,1.2,0.5,1.2,1.2V22.3z"/>
</g>
</svg>
