<svg id="レイヤー_1" data-name="レイヤー 1" xmlns="http://www.w3.org/2000/svg" xmlns:xlink="http://www.w3.org/1999/xlink" viewBox="0 0 26.62 25.02"><defs><style>.cls-1,.cls-3{fill:none;}.cls-1,.cls-2{clip-rule:evenodd;}.cls-13,.cls-15,.cls-2{fill:#a4aab3;}.cls-4{fill:#f5a623;}.cls-5{clip-path:url(#clip-path);}.cls-6{clip-path:url(#clip-path-2);}.cls-7{clip-path:url(#clip-path-3);}.cls-8{clip-path:url(#clip-path-4);}.cls-9{clip-path:url(#clip-path-5);}.cls-10{clip-path:url(#clip-path-6);}.cls-11{clip-path:url(#clip-path-7);}.cls-12{clip-path:url(#clip-path-8);}.cls-13{fill-rule:evenodd;}.cls-14{clip-path:url(#clip-path-9);}.cls-16{clip-path:url(#clip-path-10);}.cls-17{clip-path:url(#clip-path-11);}.cls-18{clip-path:url(#clip-path-12);}.cls-19{clip-path:url(#clip-path-13);}.cls-20{clip-path:url(#clip-path-14);}.cls-21{clip-path:url(#clip-path-15);}.cls-22{clip-path:url(#clip-path-16);}</style><clipPath id="clip-path"><path class="cls-1" d="M-5.81,32.12l2.76,2.81,0.44-.44a1.66,1.66,0,0,0,.09-2.21l-0.29-.35-0.43-.37a1.57,1.57,0,0,0-2.16.12Zm-0.48.56-9.45,9.63s-1.47,2.27-.83,3.29,3.4-.65,3.4-0.65l9.62-9.51-1-1-1-1Z"/></clipPath><clipPath id="clip-path-2"><path class="cls-1" d="M-9.72,34.67H-24.46a1,1,0,0,0-1,1v18a1,1,0,0,0,1,1h18a1,1,0,0,0,1-1V38.78l-2,2V51.66a1,1,0,0,1-1,1h-14a1,1,0,0,1-1-1v-14a1,1,0,0,1,1-1h10.77Z"/></clipPath><clipPath id="clip-path-3"><path class="cls-1" d="M-29.71,75.68a1.77,1.77,0,0,1,1.35-.79,1.77,1.77,0,0,1,1.45.59l1.15,1.3a2.19,2.19,0,0,0,3.64-.26l4-6.1a1.77,1.77,0,0,1,1.47-.79,1.77,1.77,0,0,1,1.48.79L-8,81.17c0.91,1.38.31,2.49-1.34,2.49H-32c-1.66,0-2.25-1.13-1.35-2.5Zm1.87-12.16a3.57,3.57,0,0,1,3.58,3.56,3.57,3.57,0,0,1-3.58,3.56,3.57,3.57,0,0,1-3.58-3.56A3.57,3.57,0,0,1-27.84,63.52ZM-38.66,83.31a5,5,0,0,0,5,5h26a5,5,0,0,0,5-5V65.05a5,5,0,0,0-5-5h-26a5,5,0,0,0-5,5V83.31Z"/></clipPath><clipPath id="clip-path-4"><path class="cls-1" d="M23.32,65.75a1.83,1.83,0,0,0,1.83-1.84V61a1.83,1.83,0,1,0-3.66,0v2.89A1.83,1.83,0,0,0,23.32,65.75Z"/></clipPath><clipPath id="clip-path-5"><path class="cls-1" d="M36.81,65.75a1.83,1.83,0,0,0,1.83-1.84V61A1.83,1.83,0,1,0,35,61v2.89A1.83,1.83,0,0,0,36.81,65.75Z"/></clipPath><clipPath id="clip-path-6"><path class="cls-1" d="M39,84.58H20.23a1.85,1.85,0,0,1-1.88-1.81v-12H40.89v12A1.85,1.85,0,0,1,39,84.58ZM40.24,61.8v2.11a3.43,3.43,0,1,1-6.87,0V61.8H26.76v2.11a3.43,3.43,0,1,1-6.87,0V61.8H18.76a4.42,4.42,0,0,0-4.4,4.43V84.75a4.42,4.42,0,0,0,4.4,4.43H41.37a4.42,4.42,0,0,0,4.4-4.43V66.23a4.42,4.42,0,0,0-4.4-4.43H40.24Z"/></clipPath><clipPath id="clip-path-7"><path class="cls-1" d="M82,74.32a1.93,1.93,0,1,1,1.93-1.93A1.93,1.93,0,0,1,82,74.32Zm-7.54,0a1.93,1.93,0,1,1,1.93-1.93A1.93,1.93,0,0,1,74.46,74.32Zm-7.54,0a1.93,1.93,0,1,1,1.93-1.93A1.93,1.93,0,0,1,66.92,74.32Zm7.61-15.13c-9.7,0-16.28,4.95-16.28,12.64a12.38,12.38,0,0,0,5.77,11c0.25,0.16.55,0.19,0.44,0.66-0.45,1.9-1.24,5.27-1.24,5.27a0.37,0.37,0,0,0,.54.41s5.56-3.3,6.31-3.71a8.48,8.48,0,0,1,4.34-1.18c7.69,0,16.27-3.08,16.27-12.51C90.68,64.43,84.79,59.18,74.54,59.18Z"/></clipPath><clipPath id="clip-path-8"><path class="cls-1" d="M-27.84,140.52h0.62a1.28,1.28,0,0,1,.42.95,1.28,1.28,0,0,1-.47,1h-0.83a0.29,0.29,0,0,0-.29.29,0.29,0.29,0,0,0,.29.29h0.52a1,1,0,0,1,.22.68,1.28,1.28,0,0,1-.47,1h-0.8a0.29,0.29,0,0,0-.29.29,0.29,0.29,0,0,0,.29.29h0.23a1.23,1.23,0,0,1,0,.34,1.28,1.28,0,0,1-1.06,1.27l-0.8.12a12.4,12.4,0,0,1-1.73.11l-1.53,0a12.83,12.83,0,0,1-4.36-.81c-2.58-1.31-2.58-5.6-.78-7.42,1-1,2-1.67,2.78-2.66,1.28-1.53,2.52-3.34,2.65-4.13a1.25,1.25,0,0,1,1.13-1.2,1.21,1.21,0,0,1,1.08.94,4.55,4.55,0,0,1-.27,3.17c-0.23.63-1.47,1.65-.71,2.47a2,2,0,0,0,1.35.42h2.73a1.28,1.28,0,0,1,1.27,1.29,1.05,1.05,0,0,1-.39.77h-0.82a0.29,0.29,0,0,0-.29.29A0.29,0.29,0,0,0-27.84,140.52Z"/></clipPath><clipPath id="clip-path-9"><path class="cls-2" d="M0.84,140.52H1.46a1.29,1.29,0,0,1-.06,1.94H0.57a0.29,0.29,0,0,0,0,.58H1.09a1,1,0,0,1,.22.68,1.28,1.28,0,0,1-.47,1H0a0.29,0.29,0,0,0,0,.58H0.28a1.23,1.23,0,0,1,0,.34A1.28,1.28,0,0,1-.74,146.9l-0.8.12a12.4,12.4,0,0,1-1.73.11l-1.53,0a12.83,12.83,0,0,1-4.36-.81c-2.58-1.31-2.58-5.6-.78-7.42,1-1,2-1.67,2.78-2.66,1.28-1.53,2.52-3.34,2.65-4.13a1.25,1.25,0,0,1,1.13-1.2,1.21,1.21,0,0,1,1.08.94A4.55,4.55,0,0,1-2.58,135c-0.23.63-1.47,1.65-.71,2.47a2,2,0,0,0,1.35.42H0.78a1.28,1.28,0,0,1,1.27,1.29,1.05,1.05,0,0,1-.39.77H0.84A0.29,0.29,0,0,0,.84,140.52Z"/></clipPath><clipPath id="clip-path-10"><path class="cls-1" d="M30.68,139.07a1,1,0,1,1,1-1A1,1,0,0,1,30.68,139.07Zm-4.05,0a1,1,0,1,1,1-1A1,1,0,0,1,26.62,139.07Zm-4.05,0a1,1,0,1,1,1-1A1,1,0,0,1,22.57,139.07ZM26.66,131c-5.21,0-8.75,2.64-8.75,6.74a6.59,6.59,0,0,0,3.1,5.85c0.14,0.09.3,0.1,0.24,0.35-0.24,1-.67,2.81-0.67,2.81a0.2,0.2,0,0,0,.07.2,0.2,0.2,0,0,0,.22,0s3-1.76,3.39-2a4.58,4.58,0,0,1,2.33-.63c4.13,0,8.74-1.64,8.74-6.67C35.34,133.8,32.17,131,26.66,131Z"/></clipPath><clipPath id="clip-path-11"><path class="cls-1" d="M63.73,138.17l-7.38-6v3.08c-7.19.06-9.86,5.46-9,10.66,1.57-3.23,4.84-4.51,9-4.65v3Z"/></clipPath><clipPath id="clip-path-12"><path class="cls-1" d="M90.85,145.19H89.51a7.76,7.76,0,0,0,.29-2h1.69A4,4,0,0,1,90.85,145.19Zm-0.61.75a4.32,4.32,0,0,1-1.6,1,4.31,4.31,0,0,0,.72-1.28h1.16C90.43,145.74,90.33,145.84,90.23,145.94Zm-2.26,1a1.52,1.52,0,0,1-.34.2l-0.21,0v-1.51h1.44c-0.06.14-.12,0.28-0.19,0.41A2.8,2.8,0,0,1,88,146.93Zm-0.55-3.7h1.91a7.24,7.24,0,0,1-.31,2h-1.6v-2Zm0-2.41H89a7.25,7.25,0,0,1,.31,2H87.42v-2Zm0-2,0.21,0a1.53,1.53,0,0,1,.34.2,3.2,3.2,0,0,1,.89,1.29H87.42v-1.51Zm2.81,1.21c0.1,0.1.19,0.2,0.28,0.3H89.36a5.21,5.21,0,0,0-.27-0.62,3.75,3.75,0,0,0-.45-0.67A4.33,4.33,0,0,1,90.23,140.06Zm0.61,0.75a4,4,0,0,1,.64,2H89.8a7.78,7.78,0,0,0-.29-2h1.34ZM87,140.37H85.52c0.06-.14.12-0.28,0.19-0.41a2.8,2.8,0,0,1,.7-0.88,1.52,1.52,0,0,1,.34-0.2l0.21,0v1.51h0Zm0,2.41H85a7.24,7.24,0,0,1,.31-2H87v2h0Zm0,2.41h-1.6a7.25,7.25,0,0,1-.31-2H87v2h0Zm0,2-0.21,0a1.52,1.52,0,0,1-.34-0.2,3.2,3.2,0,0,1-.89-1.29H87v1.51h0Zm-2.81-1.21c-0.1-.1-0.19-0.2-0.28-0.3H85a5.2,5.2,0,0,0,.27.62,3.75,3.75,0,0,0,.45.67A4.33,4.33,0,0,1,84.15,145.94Zm-0.61-.75a4,4,0,0,1-.64-2h1.69a7.78,7.78,0,0,0,.29,2H83.54Zm0-4.37h1.34a7.76,7.76,0,0,0-.29,2H82.9A4,4,0,0,1,83.54,140.81Zm0.61-.75a4.33,4.33,0,0,1,1.6-1,4.3,4.3,0,0,0-.72,1.28H83.87C84,140.26,84.05,140.16,84.15,140.06Zm3-1.81A4.75,4.75,0,1,0,92.11,143,4.83,4.83,0,0,0,87.19,138.25Z"/></clipPath><clipPath id="clip-path-13"><ellipse class="cls-3" cx="111.98" cy="141.5" rx="1.78" ry="1.8"/></clipPath><clipPath id="clip-path-14"><ellipse class="cls-3" cx="108.06" cy="142.76" rx="1.32" ry="1.34"/></clipPath><clipPath id="clip-path-15"><path class="cls-1" d="M106.31,145.58v1a1.54,1.54,0,0,0,1.53,1.54h1.25v-3a1.87,1.87,0,0,1,.13-0.38,1.91,1.91,0,0,0-1.18-.37A1.7,1.7,0,0,0,106.31,145.58Z"/></clipPath><clipPath id="clip-path-16"><path class="cls-1" d="M109.65,145.28v2.58a0.84,0.84,0,0,0,.83.84h3a0.84,0.84,0,0,0,.83-0.84v-2.58A2.51,2.51,0,0,0,109.65,145.28Z"/></clipPath></defs><title>icon</title><path class="cls-4" d="M19.91,24.27H6.44a1.89,1.89,0,0,1-2-1.8V16.06H2.12a2.05,2.05,0,0,1-1.8-1A1.75,1.75,0,0,1,.6,13L11.8,1.38a2.23,2.23,0,0,1,3,0h0L26,13a1.76,1.76,0,0,1,.28,2.1,2.06,2.06,0,0,1-1.8,1H22.14v6.17A2.14,2.14,0,0,1,19.91,24.27Zm-13.43-2H19.91a0.32,0.32,0,0,0,.24-0.08V15.24a1.19,1.19,0,0,1,1.21-1.17h3L13.4,2.78H13.23L2.31,14.07h3a1.19,1.19,0,0,1,1.21,1.17v7Z"/><path class="cls-13" d="M0.84,140.52H1.46a1.29,1.29,0,0,1-.06,1.94H0.57a0.29,0.29,0,0,0,0,.58H1.09a1,1,0,0,1,.22.68,1.28,1.28,0,0,1-.47,1H0a0.29,0.29,0,0,0,0,.58H0.28a1.23,1.23,0,0,1,0,.34A1.28,1.28,0,0,1-.74,146.9l-0.8.12a12.4,12.4,0,0,1-1.73.11l-1.53,0a12.83,12.83,0,0,1-4.36-.81c-2.58-1.31-2.58-5.6-.78-7.42,1-1,2-1.67,2.78-2.66,1.28-1.53,2.52-3.34,2.65-4.13a1.25,1.25,0,0,1,1.13-1.2,1.21,1.21,0,0,1,1.08.94A4.55,4.55,0,0,1-2.58,135c-0.23.63-1.47,1.65-.71,2.47a2,2,0,0,0,1.35.42H0.78a1.28,1.28,0,0,1,1.27,1.29,1.05,1.05,0,0,1-.39.77H0.84A0.29,0.29,0,0,0,.84,140.52Z"/><g class="cls-14"><rect class="cls-15" x="-33.08" y="-355" width="375" height="667"/></g></svg>