<svg id="レイヤー_1" data-name="レイヤー 1" xmlns="http://www.w3.org/2000/svg" xmlns:xlink="http://www.w3.org/1999/xlink" viewBox="0 0 48 36"><defs><style>.cls-1,.cls-2{fill:none;}.cls-1,.cls-3{clip-rule:evenodd;}.cls-15,.cls-17,.cls-3{fill:#a4aab3;}.cls-4{clip-path:url(#clip-path);}.cls-5{clip-path:url(#clip-path-2);}.cls-6{clip-path:url(#clip-path-3);}.cls-7{clip-path:url(#clip-path-4);}.cls-8{clip-path:url(#clip-path-5);}.cls-9{clip-path:url(#clip-path-6);}.cls-10{clip-path:url(#clip-path-7);}.cls-11{clip-path:url(#clip-path-8);}.cls-12{clip-path:url(#clip-path-9);}.cls-13{fill:#f99494;}.cls-14{clip-path:url(#clip-path-10);}.cls-15{fill-rule:evenodd;}.cls-16{clip-path:url(#clip-path-11);}.cls-18{clip-path:url(#clip-path-12);}.cls-19{clip-path:url(#clip-path-13);}.cls-20{clip-path:url(#clip-path-14);}.cls-21{clip-path:url(#clip-path-15);}.cls-22{clip-path:url(#clip-path-16);}.cls-23{clip-path:url(#clip-path-17);}</style><clipPath id="clip-path"><path class="cls-1" d="M-249.33,4.5A1.77,1.77,0,0,1-248,3.71a1.77,1.77,0,0,1,1.45.59l1.15,1.3a2.19,2.19,0,0,0,3.64-.26l4-6.1a1.77,1.77,0,0,1,1.47-.79,1.77,1.77,0,0,1,1.48.79L-227.6,10c0.91,1.38.31,2.49-1.34,2.49H-251.6c-1.66,0-2.25-1.13-1.35-2.5Zm1.87-12.16a3.57,3.57,0,0,1,3.58,3.56,3.57,3.57,0,0,1-3.58,3.56A3.57,3.57,0,0,1-251-4.1,3.57,3.57,0,0,1-247.46-7.66Zm-10.82,19.79a5,5,0,0,0,5,5h26a5,5,0,0,0,5-5V-6.13a5,5,0,0,0-5-5h-26a5,5,0,0,0-5,5V12.13Z"/></clipPath><clipPath id="clip-path-2"><path class="cls-1" d="M-196.29-5.43a1.83,1.83,0,0,0,1.83-1.84v-2.89A1.83,1.83,0,0,0-196.29-12a1.83,1.83,0,0,0-1.83,1.84v2.89A1.83,1.83,0,0,0-196.29-5.43Z"/></clipPath><clipPath id="clip-path-3"><path class="cls-1" d="M-182.81-5.43A1.83,1.83,0,0,0-181-7.27v-2.89A1.83,1.83,0,0,0-182.81-12a1.83,1.83,0,0,0-1.83,1.84v2.89A1.83,1.83,0,0,0-182.81-5.43Z"/></clipPath><clipPath id="clip-path-4"><path class="cls-1" d="M-180.6,13.39h-18.78a1.85,1.85,0,0,1-1.88-1.81v-12h22.53v12A1.85,1.85,0,0,1-180.6,13.39Zm1.23-22.77v2.11a3.45,3.45,0,0,1-3.43,3.46,3.45,3.45,0,0,1-3.44-3.46V-9.38h-6.61v2.11a3.45,3.45,0,0,1-3.43,3.46,3.45,3.45,0,0,1-3.44-3.46V-9.38h-1.13A4.42,4.42,0,0,0-205.26-5V13.57a4.42,4.42,0,0,0,4.4,4.43h22.61a4.42,4.42,0,0,0,4.4-4.43V-5a4.42,4.42,0,0,0-4.4-4.43h-1.13Z"/></clipPath><clipPath id="clip-path-5"><path class="cls-1" d="M-83.23-62.4a1.9,1.9,0,0,0-1.89-1.91A1.9,1.9,0,0,0-87-62.4a1.92,1.92,0,0,0,.53,1.33c-1.28,2.7-3.74,3.64-5.64,2.78-1.69-.76-2.32-2.93-2.53-4.61a2.21,2.21,0,0,0,1.16-1.95A2.19,2.19,0,0,0-95.65-67a2.19,2.19,0,0,0-2.17,2.2,2.2,2.2,0,0,0,1.16,1.95c-0.21,1.68-.84,3.85-2.53,4.61-1.9.85-4.35-.09-5.64-2.78a1.92,1.92,0,0,0,.53-1.33,1.9,1.9,0,0,0-1.89-1.91,1.9,1.9,0,0,0-1.89,1.91,1.9,1.9,0,0,0,1.64,1.9l2.71,10.21h16.15l2.71-10.21A1.9,1.9,0,0,0-83.23-62.4Z"/></clipPath><clipPath id="clip-path-6"><path class="cls-1" d="M-64,5.91a3.4,3.4,0,0,0-3.37,3.42,3.43,3.43,0,0,0,.95,2.38c-2.29,4.82-6.68,6.5-10.08,5-3-1.36-4.14-5.24-4.52-8.25A3.94,3.94,0,0,0-78.94,5,3.91,3.91,0,0,0-82.82,1,3.91,3.91,0,0,0-86.7,5a3.94,3.94,0,0,0,2.08,3.48c-0.38,3-1.5,6.89-4.52,8.25-3.4,1.52-7.78-.16-10.08-5a3.44,3.44,0,0,0,.95-2.38,3.4,3.4,0,0,0-3.37-3.42A3.4,3.4,0,0,0-105,9.33a3.4,3.4,0,0,0,2.93,3.39L-97.26,31h28.87l4.84-18.25a3.4,3.4,0,0,0,2.93-3.39A3.4,3.4,0,0,0-64,5.91Z"/></clipPath><clipPath id="clip-path-7"><path class="cls-1" d="M-10.93,7.91a3.4,3.4,0,0,0-3.37,3.42,3.43,3.43,0,0,0,.95,2.38c-2.29,4.82-6.68,6.5-10.08,5-3-1.36-4.14-5.24-4.52-8.25A3.94,3.94,0,0,0-25.88,7,3.91,3.91,0,0,0-29.76,3,3.91,3.91,0,0,0-33.64,7a3.94,3.94,0,0,0,2.08,3.48c-0.38,3-1.5,6.89-4.52,8.25-3.4,1.52-7.78-.16-10.08-5a3.44,3.44,0,0,0,.95-2.38,3.4,3.4,0,0,0-3.37-3.42A3.4,3.4,0,0,0-52,11.33,3.4,3.4,0,0,0-49,14.72L-44.19,33h28.87l4.84-18.25a3.4,3.4,0,0,0,2.93-3.39A3.4,3.4,0,0,0-10.93,7.91Z"/></clipPath><clipPath id="clip-path-8"><path class="cls-1" d="M42.83,7.91a3.43,3.43,0,0,0-2.42,5.8c-2.29,4.82-6.68,6.5-10.08,5-3-1.36-4.14-5.24-4.52-8.25a3.88,3.88,0,1,0-3.61,0c-0.38,3-1.5,6.89-4.52,8.25-3.4,1.52-7.78-.16-10.08-5a3.44,3.44,0,0,0,.95-2.38,3.37,3.37,0,1,0-6.75,0,3.4,3.4,0,0,0,2.93,3.39L9.56,33H38.44l4.84-18.25A3.42,3.42,0,0,0,42.83,7.91Z"/></clipPath><clipPath id="clip-path-9"><rect class="cls-2" x="-11.2" y="-336.98" width="375" height="667"/></clipPath><clipPath id="clip-path-10"><path class="cls-1" d="M-247.46,69.34h0.62a1.28,1.28,0,0,1,.42.95,1.28,1.28,0,0,1-.47,1h-0.83a0.29,0.29,0,0,0-.29.29,0.29,0.29,0,0,0,.29.29h0.52a1,1,0,0,1,.22.68,1.28,1.28,0,0,1-.47,1h-0.8a0.29,0.29,0,0,0-.29.29,0.29,0.29,0,0,0,.29.29H-248a1.23,1.23,0,0,1,0,.34A1.28,1.28,0,0,1-249,75.72l-0.8.12a12.4,12.4,0,0,1-1.73.11l-1.53,0a12.83,12.83,0,0,1-4.36-.81c-2.58-1.31-2.58-5.6-.78-7.42,1-1,2-1.67,2.78-2.66,1.28-1.53,2.52-3.34,2.65-4.13a1.25,1.25,0,0,1,1.13-1.2,1.21,1.21,0,0,1,1.08.94,4.55,4.55,0,0,1-.27,3.17c-0.23.63-1.47,1.65-.71,2.47a2,2,0,0,0,1.35.42h2.73A1.28,1.28,0,0,1-246.24,68a1.05,1.05,0,0,1-.39.77h-0.82a0.29,0.29,0,0,0-.29.29A0.29,0.29,0,0,0-247.46,69.34Z"/></clipPath><clipPath id="clip-path-11"><path class="cls-3" d="M-218.77,69.34h0.62a1.28,1.28,0,0,1,.42.95,1.28,1.28,0,0,1-.47,1H-219a0.29,0.29,0,0,0-.29.29,0.29,0.29,0,0,0,.29.29h0.52a1,1,0,0,1,.22.68,1.28,1.28,0,0,1-.47,1h-0.8a0.29,0.29,0,0,0-.29.29,0.29,0.29,0,0,0,.29.29h0.23a1.23,1.23,0,0,1,0,.34,1.28,1.28,0,0,1-1.06,1.27l-0.8.12a12.4,12.4,0,0,1-1.73.11l-1.53,0a12.83,12.83,0,0,1-4.36-.81c-2.58-1.31-2.58-5.6-.78-7.42,1-1,2-1.67,2.78-2.66,1.28-1.53,2.52-3.34,2.65-4.13a1.25,1.25,0,0,1,1.13-1.2,1.21,1.21,0,0,1,1.08.94,4.55,4.55,0,0,1-.27,3.17c-0.23.63-1.47,1.65-.71,2.47a2,2,0,0,0,1.35.42h2.73A1.28,1.28,0,0,1-217.56,68a1.05,1.05,0,0,1-.39.77h-0.82a0.29,0.29,0,0,0-.29.29A0.29,0.29,0,0,0-218.77,69.34Z"/></clipPath><clipPath id="clip-path-12"><path class="cls-1" d="M-188.94,67.89a1,1,0,0,1-1-1,1,1,0,0,1,1-1,1,1,0,0,1,1,1A1,1,0,0,1-188.94,67.89Zm-4.05,0a1,1,0,0,1-1-1,1,1,0,0,1,1-1,1,1,0,0,1,1,1A1,1,0,0,1-193,67.89Zm-4.05,0a1,1,0,0,1-1-1,1,1,0,0,1,1-1,1,1,0,0,1,1,1A1,1,0,0,1-197,67.89Zm4.09-8.07c-5.21,0-8.75,2.64-8.75,6.74a6.59,6.59,0,0,0,3.1,5.85c0.14,0.09.3,0.1,0.24,0.35-0.24,1-.67,2.81-0.67,2.81a0.2,0.2,0,0,0,.07.2,0.2,0.2,0,0,0,.22,0s3-1.76,3.39-2a4.58,4.58,0,0,1,2.33-.63c4.13,0,8.74-1.64,8.74-6.67C-184.28,62.62-187.44,59.82-193,59.82Z"/></clipPath><clipPath id="clip-path-13"><path class="cls-1" d="M-128.77,74h-1.34a7.76,7.76,0,0,0,.29-2h1.69A4,4,0,0,1-128.77,74Zm-0.61.75a4.32,4.32,0,0,1-1.6,1,4.31,4.31,0,0,0,.72-1.28h1.16C-129.18,74.56-129.28,74.66-129.38,74.75Zm-2.26,1a1.52,1.52,0,0,1-.34.2l-0.21,0V74.45h1.44c-0.06.14-.12,0.28-0.19,0.41A2.8,2.8,0,0,1-131.64,75.74Zm-0.55-3.7h1.91a7.24,7.24,0,0,1-.31,2h-1.6V72Zm0-2.41h1.6a7.25,7.25,0,0,1,.31,2h-1.92v-2Zm0-2,0.21,0a1.53,1.53,0,0,1,.34.2,3.2,3.2,0,0,1,.89,1.29h-1.44V67.67Zm2.81,1.21c0.1,0.1.19,0.2,0.28,0.3h-1.16a5.21,5.21,0,0,0-.27-0.62,3.75,3.75,0,0,0-.45-0.67A4.33,4.33,0,0,1-129.38,68.88Zm0.61,0.75a4,4,0,0,1,.64,2h-1.69a7.78,7.78,0,0,0-.29-2h1.34Zm-3.89-.44h-1.44c0.06-.14.12-0.28,0.19-0.41a2.8,2.8,0,0,1,.7-0.88,1.52,1.52,0,0,1,.34-0.2l0.21,0v1.51h0Zm0,2.41h-1.91a7.24,7.24,0,0,1,.31-2h1.6v2h0Zm0,2.41h-1.6a7.25,7.25,0,0,1-.31-2h1.92v2h0Zm0,2-0.21,0a1.52,1.52,0,0,1-.34-0.2,3.2,3.2,0,0,1-.89-1.29h1.44V76h0Zm-2.81-1.21c-0.1-.1-0.19-0.2-0.28-0.3h1.16a5.2,5.2,0,0,0,.27.62,3.75,3.75,0,0,0,.45.67A4.33,4.33,0,0,1-135.46,74.75Zm-0.61-.75a4,4,0,0,1-.64-2H-135a7.78,7.78,0,0,0,.29,2h-1.34Zm0-4.37h1.34a7.76,7.76,0,0,0-.29,2h-1.69A4,4,0,0,1-136.08,69.63Zm0.61-.75a4.33,4.33,0,0,1,1.6-1,4.3,4.3,0,0,0-.72,1.28h-1.16C-135.66,69.08-135.56,69-135.46,68.88Zm3-1.81a4.83,4.83,0,0,0-4.91,4.74,4.83,4.83,0,0,0,4.91,4.74,4.83,4.83,0,0,0,4.91-4.74A4.83,4.83,0,0,0-132.42,67.07Z"/></clipPath><clipPath id="clip-path-14"><ellipse class="cls-2" cx="-107.64" cy="70.32" rx="1.78" ry="1.8"/></clipPath><clipPath id="clip-path-15"><ellipse class="cls-2" cx="-111.56" cy="71.58" rx="1.32" ry="1.34"/></clipPath><clipPath id="clip-path-16"><path class="cls-1" d="M-113.31,74.4v1A1.54,1.54,0,0,0-111.78,77h1.25V74a1.87,1.87,0,0,1,.13-0.38,1.91,1.91,0,0,0-1.18-.37A1.7,1.7,0,0,0-113.31,74.4Z"/></clipPath><clipPath id="clip-path-17"><path class="cls-1" d="M-110,74.1v2.58a0.84,0.84,0,0,0,.83.84h3a0.84,0.84,0,0,0,.83-0.84V74.1a2.29,2.29,0,0,0-2.33-1.57A2.29,2.29,0,0,0-110,74.1Z"/></clipPath></defs><title>icon</title><g class="cls-11"><g class="cls-12"><rect class="cls-13" x="-3.2" y="-1.98" width="54.41" height="39.95"/></g></g><path class="cls-15" d="M-218.77,69.34h0.62a1.28,1.28,0,0,1,.42.95,1.28,1.28,0,0,1-.47,1H-219a0.29,0.29,0,0,0-.29.29,0.29,0.29,0,0,0,.29.29h0.52a1,1,0,0,1,.22.68,1.28,1.28,0,0,1-.47,1h-0.8a0.29,0.29,0,0,0-.29.29,0.29,0.29,0,0,0,.29.29h0.23a1.23,1.23,0,0,1,0,.34,1.28,1.28,0,0,1-1.06,1.27l-0.8.12a12.4,12.4,0,0,1-1.73.11l-1.53,0a12.83,12.83,0,0,1-4.36-.81c-2.58-1.31-2.58-5.6-.78-7.42,1-1,2-1.67,2.78-2.66,1.28-1.53,2.52-3.34,2.65-4.13a1.25,1.25,0,0,1,1.13-1.2,1.21,1.21,0,0,1,1.08.94,4.55,4.55,0,0,1-.27,3.17c-0.23.63-1.47,1.65-.71,2.47a2,2,0,0,0,1.35.42h2.73A1.28,1.28,0,0,1-217.56,68a1.05,1.05,0,0,1-.39.77h-0.82a0.29,0.29,0,0,0-.29.29A0.29,0.29,0,0,0-218.77,69.34Z"/><g class="cls-16"><rect class="cls-17" x="-252.69" y="-426.18" width="375" height="667"/></g></svg>