<svg id="レイヤー_1" data-name="レイヤー 1" xmlns="http://www.w3.org/2000/svg" xmlns:xlink="http://www.w3.org/1999/xlink" viewBox="0 0 38 30"><defs><style>.cls-1,.cls-3{fill:none;}.cls-1,.cls-2{clip-rule:evenodd;}.cls-16,.cls-18,.cls-2{fill:#a4aab3;}.cls-4{clip-path:url(#clip-path);}.cls-5{clip-path:url(#clip-path-2);}.cls-6{clip-path:url(#clip-path-3);}.cls-7{fill:#f5a623;}.cls-8{clip-path:url(#clip-path-4);}.cls-9{clip-path:url(#clip-path-5);}.cls-10{fill:#fff;}.cls-11{clip-path:url(#clip-path-6);}.cls-12{clip-path:url(#clip-path-7);}.cls-13{clip-path:url(#clip-path-8);}.cls-14{clip-path:url(#clip-path-9);}.cls-15{clip-path:url(#clip-path-10);}.cls-16{fill-rule:evenodd;}.cls-17{clip-path:url(#clip-path-11);}.cls-19{clip-path:url(#clip-path-12);}.cls-20{clip-path:url(#clip-path-13);}.cls-21{clip-path:url(#clip-path-14);}.cls-22{clip-path:url(#clip-path-15);}.cls-23{clip-path:url(#clip-path-16);}.cls-24{clip-path:url(#clip-path-17);}.cls-25{clip-path:url(#clip-path-18);}</style><clipPath id="clip-path"><path class="cls-1" d="M33.85-27.06l2.76,2.81L37-24.69a1.66,1.66,0,0,0,.09-2.21l-0.29-.35-0.43-.37a1.57,1.57,0,0,0-2.16.12Zm-0.48.56-9.45,9.63s-1.47,2.27-.83,3.29,3.4-.65,3.4-0.65l9.62-9.51-1-1-1-1Z"/></clipPath><clipPath id="clip-path-2"><path class="cls-1" d="M29.94-24.52H15.19a1,1,0,0,0-1,1v18a1,1,0,0,0,1,1h18a1,1,0,0,0,1-1V-20.4l-2,2V-7.52a1,1,0,0,1-1,1h-14a1,1,0,0,1-1-1v-14a1,1,0,0,1,1-1H28Z"/></clipPath><clipPath id="clip-path-3"><rect class="cls-3" x="-327.8" y="-61.52" width="375" height="667"/></clipPath><clipPath id="clip-path-4"><path class="cls-1" d="M9.94,16.5a1.77,1.77,0,0,1,2.8-.2l1.15,1.3a2.19,2.19,0,0,0,3.64-.26l4-6.1a1.77,1.77,0,0,1,2.95,0L31.67,22c0.91,1.38.31,2.49-1.34,2.49H7.67C6,24.48,5.42,23.35,6.33,22ZM11.82,4.34A3.56,3.56,0,1,1,8.23,7.9,3.57,3.57,0,0,1,11.82,4.34ZM1,24.13a5,5,0,0,0,5,5H32a5,5,0,0,0,5-5V5.87a5,5,0,0,0-5-5H6a5,5,0,0,0-5,5V24.13Z"/></clipPath><clipPath id="clip-path-5"><rect class="cls-3" x="-49" y="-527.18" width="375" height="930"/></clipPath><clipPath id="clip-path-6"><path class="cls-1" d="M63,6.57a1.83,1.83,0,0,0,1.83-1.84V1.84a1.83,1.83,0,1,0-3.66,0V4.73A1.83,1.83,0,0,0,63,6.57Z"/></clipPath><clipPath id="clip-path-7"><path class="cls-1" d="M76.46,6.57a1.83,1.83,0,0,0,1.83-1.84V1.84a1.83,1.83,0,1,0-3.66,0V4.73A1.83,1.83,0,0,0,76.46,6.57Z"/></clipPath><clipPath id="clip-path-8"><path class="cls-1" d="M78.67,25.39H59.89A1.85,1.85,0,0,1,58,23.59v-12H80.55v12A1.85,1.85,0,0,1,78.67,25.39ZM79.9,2.62V4.73a3.43,3.43,0,1,1-6.87,0V2.62H66.42V4.73a3.43,3.43,0,1,1-6.87,0V2.62H58.42A4.42,4.42,0,0,0,54,7V25.57A4.42,4.42,0,0,0,58.42,30H81a4.42,4.42,0,0,0,4.4-4.43V7A4.42,4.42,0,0,0,81,2.62H79.9Z"/></clipPath><clipPath id="clip-path-9"><path class="cls-1" d="M121.66,15.13a1.93,1.93,0,1,1,1.93-1.93A1.93,1.93,0,0,1,121.66,15.13Zm-7.54,0a1.93,1.93,0,1,1,1.93-1.93A1.93,1.93,0,0,1,114.12,15.13Zm-7.54,0a1.93,1.93,0,1,1,1.93-1.93A1.93,1.93,0,0,1,106.58,15.13ZM114.19,0c-9.7,0-16.28,4.95-16.28,12.64a12.38,12.38,0,0,0,5.77,11c0.25,0.16.55,0.19,0.44,0.66-0.45,1.9-1.24,5.27-1.24,5.27a0.37,0.37,0,0,0,.54.41s5.56-3.3,6.31-3.71a8.48,8.48,0,0,1,4.34-1.18c7.69,0,16.27-3.08,16.27-12.51C130.34,5.25,124.44,0,114.19,0Z"/></clipPath><clipPath id="clip-path-10"><path class="cls-1" d="M11.82,81.34h0.62a1.29,1.29,0,0,1-.06,1.94H11.55a0.29,0.29,0,0,0,0,.58h0.52a1,1,0,0,1,.22.68,1.28,1.28,0,0,1-.47,1H11a0.29,0.29,0,0,0,0,.58h0.23a1.23,1.23,0,0,1,0,.34,1.28,1.28,0,0,1-1.06,1.27l-0.8.12a12.4,12.4,0,0,1-1.73.11l-1.53,0a12.83,12.83,0,0,1-4.36-.81C-0.77,85.79-.77,81.5,1,79.67,2,78.64,3,78,3.8,77c1.28-1.53,2.52-3.34,2.65-4.13a1.25,1.25,0,0,1,1.13-1.2,1.21,1.21,0,0,1,1.08.94,4.55,4.55,0,0,1-.27,3.17c-0.23.63-1.47,1.65-.71,2.47A2,2,0,0,0,9,78.69h2.73A1.28,1.28,0,0,1,13,80a1.05,1.05,0,0,1-.39.77H11.82A0.29,0.29,0,0,0,11.82,81.34Z"/></clipPath><clipPath id="clip-path-11"><path class="cls-2" d="M40.5,81.34h0.62a1.29,1.29,0,0,1-.06,1.94H40.23a0.29,0.29,0,0,0,0,.58h0.52a1,1,0,0,1,.22.68,1.28,1.28,0,0,1-.47,1h-0.8a0.29,0.29,0,0,0,0,.58h0.23a1.23,1.23,0,0,1,0,.34,1.28,1.28,0,0,1-1.06,1.27l-0.8.12a12.4,12.4,0,0,1-1.73.11l-1.53,0a12.83,12.83,0,0,1-4.36-.81c-2.58-1.31-2.58-5.6-.78-7.42,1-1,2-1.67,2.78-2.66,1.28-1.53,2.52-3.34,2.65-4.13a1.25,1.25,0,0,1,1.13-1.2,1.21,1.21,0,0,1,1.08.94,4.55,4.55,0,0,1-.27,3.17c-0.23.63-1.47,1.65-.71,2.47a2,2,0,0,0,1.35.42h2.73A1.28,1.28,0,0,1,41.71,80a1.05,1.05,0,0,1-.39.77H40.5A0.29,0.29,0,0,0,40.5,81.34Z"/></clipPath><clipPath id="clip-path-12"><path class="cls-1" d="M70.34,79.89a1,1,0,1,1,1-1A1,1,0,0,1,70.34,79.89Zm-4.05,0a1,1,0,1,1,1-1A1,1,0,0,1,66.28,79.89Zm-4.05,0a1,1,0,1,1,1-1A1,1,0,0,1,62.23,79.89Zm4.09-8.07c-5.21,0-8.75,2.64-8.75,6.74a6.59,6.59,0,0,0,3.1,5.85c0.14,0.09.3,0.1,0.24,0.35-0.24,1-.67,2.81-0.67,2.81a0.2,0.2,0,0,0,.07.2,0.2,0.2,0,0,0,.22,0s3-1.76,3.39-2a4.58,4.58,0,0,1,2.33-.63c4.13,0,8.74-1.64,8.74-6.67C75,74.62,71.83,71.82,66.32,71.82Z"/></clipPath><clipPath id="clip-path-13"><path class="cls-1" d="M103.39,79l-7.38-6V76c-7.19.06-9.86,5.46-9,10.66,1.57-3.23,4.84-4.51,9-4.65v3Z"/></clipPath><clipPath id="clip-path-14"><path class="cls-1" d="M130.51,86h-1.34a7.76,7.76,0,0,0,.29-2h1.69A4,4,0,0,1,130.51,86Zm-0.61.75a4.32,4.32,0,0,1-1.6,1,4.31,4.31,0,0,0,.72-1.28h1.16C130.09,86.56,130,86.66,129.89,86.75Zm-2.26,1a1.52,1.52,0,0,1-.34.2l-0.21,0V86.45h1.44c-0.06.14-.12,0.28-0.19,0.41A2.8,2.8,0,0,1,127.63,87.74ZM127.08,84H129a7.24,7.24,0,0,1-.31,2h-1.6V84Zm0-2.41h1.6a7.25,7.25,0,0,1,.31,2h-1.92v-2Zm0-2,0.21,0a1.53,1.53,0,0,1,.34.2,3.2,3.2,0,0,1,.89,1.29h-1.44V79.67Zm2.81,1.21c0.1,0.1.19,0.2,0.28,0.3H129a5.21,5.21,0,0,0-.27-0.62,3.75,3.75,0,0,0-.45-0.67A4.33,4.33,0,0,1,129.89,80.88Zm0.61,0.75a4,4,0,0,1,.64,2h-1.69a7.78,7.78,0,0,0-.29-2h1.34Zm-3.89-.44h-1.44c0.06-.14.12-0.28,0.19-0.41a2.8,2.8,0,0,1,.7-0.88,1.52,1.52,0,0,1,.34-0.2l0.21,0v1.51h0Zm0,2.41h-1.91a7.24,7.24,0,0,1,.31-2h1.6v2h0Zm0,2.41H125a7.25,7.25,0,0,1-.31-2h1.92v2h0Zm0,2-0.21,0a1.52,1.52,0,0,1-.34-0.2,3.2,3.2,0,0,1-.89-1.29h1.44V88h0Zm-2.81-1.21c-0.1-.1-0.19-0.2-0.28-0.3h1.16a5.2,5.2,0,0,0,.27.62,3.75,3.75,0,0,0,.45.67A4.33,4.33,0,0,1,123.81,86.75ZM123.2,86a4,4,0,0,1-.64-2h1.69a7.78,7.78,0,0,0,.29,2H123.2Zm0-4.37h1.34a7.76,7.76,0,0,0-.29,2h-1.69A4,4,0,0,1,123.2,81.63Zm0.61-.75a4.33,4.33,0,0,1,1.6-1,4.3,4.3,0,0,0-.72,1.28h-1.16C123.62,81.08,123.71,81,123.81,80.88Zm3-1.81a4.75,4.75,0,1,0,4.91,4.74A4.83,4.83,0,0,0,126.85,79.07Z"/></clipPath><clipPath id="clip-path-15"><ellipse class="cls-3" cx="151.63" cy="82.32" rx="1.78" ry="1.8"/></clipPath><clipPath id="clip-path-16"><ellipse class="cls-3" cx="147.72" cy="83.58" rx="1.32" ry="1.34"/></clipPath><clipPath id="clip-path-17"><path class="cls-1" d="M146,86.4v1A1.54,1.54,0,0,0,147.5,89h1.25V86a1.87,1.87,0,0,1,.13-0.38,1.91,1.91,0,0,0-1.18-.37A1.7,1.7,0,0,0,146,86.4Z"/></clipPath><clipPath id="clip-path-18"><path class="cls-1" d="M149.31,86.1v2.58a0.84,0.84,0,0,0,.83.84h3a0.84,0.84,0,0,0,.83-0.84V86.1A2.51,2.51,0,0,0,149.31,86.1Z"/></clipPath></defs><title>icon</title><g class="cls-5"><g class="cls-6"><rect class="cls-7" x="9.2" y="-29.52" width="30" height="30"/></g></g><g class="cls-8"><g class="cls-9"><rect class="cls-10" x="-4" y="-4.14" width="46" height="38.27"/></g></g><path class="cls-16" d="M40.5,81.34h0.62a1.29,1.29,0,0,1-.06,1.94H40.23a0.29,0.29,0,0,0,0,.58h0.52a1,1,0,0,1,.22.68,1.28,1.28,0,0,1-.47,1h-0.8a0.29,0.29,0,0,0,0,.58h0.23a1.23,1.23,0,0,1,0,.34,1.28,1.28,0,0,1-1.06,1.27l-0.8.12a12.4,12.4,0,0,1-1.73.11l-1.53,0a12.83,12.83,0,0,1-4.36-.81c-2.58-1.31-2.58-5.6-.78-7.42,1-1,2-1.67,2.78-2.66,1.28-1.53,2.52-3.34,2.65-4.13a1.25,1.25,0,0,1,1.13-1.2,1.21,1.21,0,0,1,1.08.94,4.55,4.55,0,0,1-.27,3.17c-0.23.63-1.47,1.65-.71,2.47a2,2,0,0,0,1.35.42h2.73A1.28,1.28,0,0,1,41.71,80a1.05,1.05,0,0,1-.39.77H40.5A0.29,0.29,0,0,0,40.5,81.34Z"/><g class="cls-17"><rect class="cls-18" x="6.58" y="-414.18" width="375" height="667"/></g></svg>