<svg id="レイヤー_1" data-name="レイヤー 1" xmlns="http://www.w3.org/2000/svg" xmlns:xlink="http://www.w3.org/1999/xlink" viewBox="0 0 10 10"><defs><style>.cls-1,.cls-3{fill:none;}.cls-1,.cls-2{clip-rule:evenodd;}.cls-10,.cls-12,.cls-2{fill:#a4aab3;}.cls-4{clip-path:url(#clip-path);}.cls-5{clip-path:url(#clip-path-2);}.cls-6{clip-path:url(#clip-path-3);}.cls-7{clip-path:url(#clip-path-4);}.cls-8{clip-path:url(#clip-path-5);}.cls-9{clip-path:url(#clip-path-6);}.cls-10{fill-rule:evenodd;}.cls-11{clip-path:url(#clip-path-7);}.cls-13{clip-path:url(#clip-path-8);}.cls-14{clip-path:url(#clip-path-9);}.cls-15{clip-path:url(#clip-path-10);}.cls-16{clip-path:url(#clip-path-11);}.cls-17{fill:#f5a623;}.cls-18{clip-path:url(#clip-path-12);}.cls-19{clip-path:url(#clip-path-13);}.cls-20{clip-path:url(#clip-path-14);}.cls-21{clip-path:url(#clip-path-15);}</style><clipPath id="clip-path"><path class="cls-1" d="M-111.91-62.32a1.77,1.77,0,0,1,1.35-.79,1.77,1.77,0,0,1,1.45.59l1.15,1.3a2.19,2.19,0,0,0,3.64-.26l4-6.1a1.77,1.77,0,0,1,1.47-.79,1.77,1.77,0,0,1,1.48.79l7.14,10.75c0.91,1.38.31,2.49-1.34,2.49h-22.66c-1.66,0-2.25-1.13-1.35-2.5ZM-110-74.48a3.57,3.57,0,0,1,3.58,3.56A3.57,3.57,0,0,1-110-67.36a3.57,3.57,0,0,1-3.58-3.56A3.57,3.57,0,0,1-110-74.48Zm-10.82,19.79a5,5,0,0,0,5,5h26a5,5,0,0,0,5-5V-72.95a5,5,0,0,0-5-5h-26a5,5,0,0,0-5,5v18.26Z"/></clipPath><clipPath id="clip-path-2"><path class="cls-1" d="M-58.87-72.25A1.83,1.83,0,0,0-57-74.09V-77a1.83,1.83,0,0,0-1.83-1.84A1.83,1.83,0,0,0-60.7-77v2.89A1.83,1.83,0,0,0-58.87-72.25Z"/></clipPath><clipPath id="clip-path-3"><path class="cls-1" d="M-45.39-72.25a1.83,1.83,0,0,0,1.83-1.84V-77a1.83,1.83,0,0,0-1.83-1.84A1.83,1.83,0,0,0-47.22-77v2.89A1.83,1.83,0,0,0-45.39-72.25Z"/></clipPath><clipPath id="clip-path-4"><path class="cls-1" d="M-43.18-53.42H-62a1.85,1.85,0,0,1-1.88-1.81v-12H-41.3v12A1.85,1.85,0,0,1-43.18-53.42ZM-42-76.2v2.11a3.45,3.45,0,0,1-3.43,3.46,3.45,3.45,0,0,1-3.44-3.46V-76.2h-6.61v2.11a3.45,3.45,0,0,1-3.43,3.46,3.45,3.45,0,0,1-3.44-3.46V-76.2h-1.13a4.42,4.42,0,0,0-4.4,4.43v18.52a4.42,4.42,0,0,0,4.4,4.43h22.61a4.42,4.42,0,0,0,4.4-4.43V-71.77a4.42,4.42,0,0,0-4.4-4.43H-42Z"/></clipPath><clipPath id="clip-path-5"><path class="cls-1" d="M-0.19-63.68a1.93,1.93,0,0,1-1.93-1.93A1.93,1.93,0,0,1-.19-67.55a1.93,1.93,0,0,1,1.93,1.93A1.93,1.93,0,0,1-.19-63.68Zm-7.54,0a1.93,1.93,0,0,1-1.93-1.93,1.93,1.93,0,0,1,1.93-1.93A1.93,1.93,0,0,1-5.8-65.62,1.93,1.93,0,0,1-7.73-63.68Zm-7.54,0a1.93,1.93,0,0,1-1.93-1.93,1.93,1.93,0,0,1,1.93-1.93,1.93,1.93,0,0,1,1.93,1.93A1.93,1.93,0,0,1-15.27-63.68Zm7.61-15.13c-9.7,0-16.28,4.95-16.28,12.64a12.38,12.38,0,0,0,5.77,11c0.25,0.16.55,0.19,0.44,0.66-0.45,1.9-1.24,5.27-1.24,5.27a0.37,0.37,0,0,0,.14.38,0.37,0.37,0,0,0,.4,0s5.56-3.3,6.31-3.71a8.48,8.48,0,0,1,4.34-1.18c7.69,0,16.27-3.08,16.27-12.51C8.48-73.57,2.59-78.82-7.66-78.82Z"/></clipPath><clipPath id="clip-path-6"><path class="cls-1" d="M-110,2.52h0.62a1.28,1.28,0,0,1,.42.95,1.28,1.28,0,0,1-.47,1h-0.83a0.29,0.29,0,0,0-.29.29,0.29,0.29,0,0,0,.29.29h0.52a1,1,0,0,1,.22.68,1.28,1.28,0,0,1-.47,1h-0.8a0.29,0.29,0,0,0-.29.29,0.29,0.29,0,0,0,.29.29h0.23a1.23,1.23,0,0,1,0,.34,1.28,1.28,0,0,1-1.06,1.27l-0.8.12a12.4,12.4,0,0,1-1.73.11l-1.53,0A12.83,12.83,0,0,1-120,8.28c-2.58-1.31-2.58-5.6-.78-7.42,1-1,2-1.67,2.78-2.66,1.28-1.53,2.52-3.34,2.65-4.13a1.25,1.25,0,0,1,1.13-1.2,1.21,1.21,0,0,1,1.08.94A4.55,4.55,0,0,1-113.46-3c-0.23.63-1.47,1.65-.71,2.47a2,2,0,0,0,1.35.42h2.73a1.28,1.28,0,0,1,1.27,1.29,1.05,1.05,0,0,1-.39.77H-110a0.29,0.29,0,0,0-.29.29A0.29,0.29,0,0,0-110,2.52Z"/></clipPath><clipPath id="clip-path-7"><path class="cls-2" d="M-81.35,2.52h0.62a1.28,1.28,0,0,1,.42.95,1.28,1.28,0,0,1-.47,1h-0.83a0.29,0.29,0,0,0-.29.29,0.29,0.29,0,0,0,.29.29h0.52a1,1,0,0,1,.22.68,1.28,1.28,0,0,1-.47,1h-0.8a0.29,0.29,0,0,0-.29.29,0.29,0.29,0,0,0,.29.29h0.23a1.23,1.23,0,0,1,0,.34A1.28,1.28,0,0,1-82.94,8.9l-0.8.12a12.4,12.4,0,0,1-1.73.11l-1.53,0a12.83,12.83,0,0,1-4.36-.81C-93.94,7-93.94,2.68-92.14.85c1-1,2-1.67,2.78-2.66,1.28-1.53,2.52-3.34,2.65-4.13a1.25,1.25,0,0,1,1.13-1.2,1.21,1.21,0,0,1,1.08.94A4.55,4.55,0,0,1-84.78-3c-0.23.63-1.47,1.65-.71,2.47a2,2,0,0,0,1.35.42h2.73a1.28,1.28,0,0,1,1.27,1.29,1.05,1.05,0,0,1-.39.77h-0.82a0.29,0.29,0,0,0-.29.29A0.29,0.29,0,0,0-81.35,2.52Z"/></clipPath><clipPath id="clip-path-8"><path class="cls-1" d="M-51.52,1.07a1,1,0,0,1-1-1,1,1,0,0,1,1-1,1,1,0,0,1,1,1A1,1,0,0,1-51.52,1.07Zm-4.05,0a1,1,0,0,1-1-1,1,1,0,0,1,1-1,1,1,0,0,1,1,1A1,1,0,0,1-55.57,1.07Zm-4.05,0a1,1,0,0,1-1-1,1,1,0,0,1,1-1,1,1,0,0,1,1,1A1,1,0,0,1-59.62,1.07ZM-55.53-7c-5.21,0-8.75,2.64-8.75,6.74a6.59,6.59,0,0,0,3.1,5.85c0.14,0.09.3,0.1,0.24,0.35-0.24,1-.67,2.81-0.67,2.81a0.2,0.2,0,0,0,.07.2,0.2,0.2,0,0,0,.22,0s3-1.76,3.39-2a4.58,4.58,0,0,1,2.33-.63c4.13,0,8.74-1.64,8.74-6.67C-46.86-4.2-50-7-55.53-7Z"/></clipPath><clipPath id="clip-path-9"><path class="cls-1" d="M-18.46.17l-7.38-6v3.08c-7.19.06-9.86,5.46-9,10.66,1.57-3.23,4.84-4.51,9-4.65v3Z"/></clipPath><clipPath id="clip-path-10"><path class="cls-1" d="M8.65,7.19H7.31a7.76,7.76,0,0,0,.29-2H9.29A4,4,0,0,1,8.65,7.19ZM8,7.94a4.32,4.32,0,0,1-1.6,1,4.31,4.31,0,0,0,.72-1.28H8.33C8.24,7.74,8.14,7.84,8,7.94Zm-2.26,1a1.52,1.52,0,0,1-.34.2l-0.21,0V7.63H6.67C6.61,7.78,6.55,7.92,6.48,8A2.8,2.8,0,0,1,5.78,8.93ZM5.23,5.22H7.14a7.24,7.24,0,0,1-.31,2H5.23v-2Zm0-2.41h1.6a7.25,7.25,0,0,1,.31,2H5.23v-2Zm0-2,0.21,0a1.53,1.53,0,0,1,.34.2,3.2,3.2,0,0,1,.89,1.29H5.23V0.85ZM8,2.06c0.1,0.1.19,0.2,0.28,0.3H7.16a5.21,5.21,0,0,0-.27-0.62,3.75,3.75,0,0,0-.45-0.67A4.33,4.33,0,0,1,8,2.06ZM8.65,2.81a4,4,0,0,1,.64,2H7.6a7.78,7.78,0,0,0-.29-2H8.65ZM4.77,2.37H3.33C3.39,2.22,3.45,2.08,3.52,2a2.8,2.8,0,0,1,.7-0.88A1.52,1.52,0,0,1,4.56.87l0.21,0V2.37h0Zm0,2.41H2.86a7.24,7.24,0,0,1,.31-2h1.6v2h0Zm0,2.41H3.17a7.25,7.25,0,0,1-.31-2H4.77v2h0Zm0,2-0.21,0a1.52,1.52,0,0,1-.34-0.2,3.2,3.2,0,0,1-.89-1.29H4.77V9.15h0ZM2,7.94c-0.1-.1-0.19-0.2-0.28-0.3H2.84a5.2,5.2,0,0,0,.27.62,3.75,3.75,0,0,0,.45.67A4.33,4.33,0,0,1,2,7.94ZM1.35,7.19a4,4,0,0,1-.64-2H2.4a7.78,7.78,0,0,0,.29,2H1.35Zm0-4.37H2.69a7.76,7.76,0,0,0-.29,2H0.71A4,4,0,0,1,1.35,2.81ZM2,2.06a4.33,4.33,0,0,1,1.6-1,4.3,4.3,0,0,0-.72,1.28H1.67C1.76,2.26,1.86,2.16,2,2.06ZM5,0.26A4.83,4.83,0,0,0,.09,5,4.83,4.83,0,0,0,5,9.74,4.83,4.83,0,0,0,9.91,5,4.83,4.83,0,0,0,5,.26Z"/></clipPath><clipPath id="clip-path-11"><rect class="cls-3" x="-151.28" y="-544.26" width="368.58" height="655.58"/></clipPath><clipPath id="clip-path-12"><ellipse class="cls-3" cx="29.78" cy="3.5" rx="1.78" ry="1.8"/></clipPath><clipPath id="clip-path-13"><ellipse class="cls-3" cx="25.87" cy="4.76" rx="1.32" ry="1.34"/></clipPath><clipPath id="clip-path-14"><path class="cls-1" d="M24.11,7.58v1a1.54,1.54,0,0,0,1.53,1.54h1.25v-3A1.87,1.87,0,0,1,27,6.79a1.91,1.91,0,0,0-1.18-.37A1.7,1.7,0,0,0,24.11,7.58Z"/></clipPath><clipPath id="clip-path-15"><path class="cls-1" d="M27.45,7.28V9.86a0.84,0.84,0,0,0,.83.84h3a0.84,0.84,0,0,0,.83-0.84V7.28a2.29,2.29,0,0,0-2.33-1.57A2.29,2.29,0,0,0,27.45,7.28Z"/></clipPath></defs><title>icon</title><path class="cls-10" d="M-81.35,2.52h0.62a1.28,1.28,0,0,1,.42.95,1.28,1.28,0,0,1-.47,1h-0.83a0.29,0.29,0,0,0-.29.29,0.29,0.29,0,0,0,.29.29h0.52a1,1,0,0,1,.22.68,1.28,1.28,0,0,1-.47,1h-0.8a0.29,0.29,0,0,0-.29.29,0.29,0.29,0,0,0,.29.29h0.23a1.23,1.23,0,0,1,0,.34A1.28,1.28,0,0,1-82.94,8.9l-0.8.12a12.4,12.4,0,0,1-1.73.11l-1.53,0a12.83,12.83,0,0,1-4.36-.81C-93.94,7-93.94,2.68-92.14.85c1-1,2-1.67,2.78-2.66,1.28-1.53,2.52-3.34,2.65-4.13a1.25,1.25,0,0,1,1.13-1.2,1.21,1.21,0,0,1,1.08.94A4.55,4.55,0,0,1-84.78-3c-0.23.63-1.47,1.65-.71,2.47a2,2,0,0,0,1.35.42h2.73a1.28,1.28,0,0,1,1.27,1.29,1.05,1.05,0,0,1-.39.77h-0.82a0.29,0.29,0,0,0-.29.29A0.29,0.29,0,0,0-81.35,2.52Z"/><g class="cls-11"><rect class="cls-12" x="-115.27" y="-493" width="375" height="667"/></g><g class="cls-15"><g class="cls-16"><rect class="cls-17" x="-4.83" y="-4.66" width="19.66" height="19.32"/></g></g></svg>