<svg id="レイヤー_1" data-name="レイヤー 1" xmlns="http://www.w3.org/2000/svg" xmlns:xlink="http://www.w3.org/1999/xlink" viewBox="0 0 25 25"><defs><style>.cls-1,.cls-5,.cls-6{fill:#f5a623;}.cls-1,.cls-2,.cls-4{clip-rule:evenodd;}.cls-2,.cls-3{fill:none;}.cls-20,.cls-22,.cls-4{fill:#a4aab3;}.cls-20,.cls-6{fill-rule:evenodd;}.cls-7{clip-path:url(#clip-path);}.cls-8{clip-path:url(#clip-path-2);}.cls-9{clip-path:url(#clip-path-3);}.cls-10{clip-path:url(#clip-path-4);}.cls-11{clip-path:url(#clip-path-5);}.cls-12{fill:#fff;}.cls-13{clip-path:url(#clip-path-6);}.cls-14{clip-path:url(#clip-path-7);}.cls-15{clip-path:url(#clip-path-8);}.cls-16{clip-path:url(#clip-path-9);}.cls-17{clip-path:url(#clip-path-10);}.cls-18{clip-path:url(#clip-path-11);}.cls-19{clip-path:url(#clip-path-12);}.cls-21{clip-path:url(#clip-path-13);}.cls-23{clip-path:url(#clip-path-14);}.cls-24{clip-path:url(#clip-path-15);}.cls-25{clip-path:url(#clip-path-16);}.cls-26{clip-path:url(#clip-path-17);}.cls-27{clip-path:url(#clip-path-18);}.cls-28{clip-path:url(#clip-path-19);}.cls-29{clip-path:url(#clip-path-20);}</style><clipPath id="clip-path"><path class="cls-1" d="M10.85-16.44a13.1,13.1,0,0,1-1-3.79A11.48,11.48,0,0,0,9-23.35a7.5,7.5,0,0,0-1.1-1.81,6.19,6.19,0,0,0-2.38-1.77,6.73,6.73,0,0,0-1-.34,2.3,2.3,0,0,0,.25-1,2.29,2.29,0,0,0-.18-0.89,2.29,2.29,0,0,0-.83-1,2.28,2.28,0,0,0-1.28-.39,2.28,2.28,0,0,0-.89.18,2.29,2.29,0,0,0-1,.83A2.29,2.29,0,0,0,.2-28.3a2.29,2.29,0,0,0,.18.89l0.07,0.14a6.9,6.9,0,0,0-.71.22A6.25,6.25,0,0,0-2-26.1a6.8,6.8,0,0,0-1.9,2.41,11.07,11.07,0,0,0-1,3.46,13.13,13.13,0,0,1-1,3.79,16.88,16.88,0,0,1-1.67,2.81,3.6,3.6,0,0,0-.66,2.06,3.3,3.3,0,0,0,.16,1,2.73,2.73,0,0,0,.8,1.24,2.21,2.21,0,0,0,.65.39,2.16,2.16,0,0,0,.78.14H-0.9a3.38,3.38,0,0,0,.25,1A3.44,3.44,0,0,0,.58-6.3a3.4,3.4,0,0,0,1.91.58A3.39,3.39,0,0,0,3.81-6a3.42,3.42,0,0,0,1.5-1.24,3.39,3.39,0,0,0,.56-1.56h4.92a2.16,2.16,0,0,0,1-.25,2.32,2.32,0,0,0,.6-0.46A2.77,2.77,0,0,0,13-10.43a3.26,3.26,0,0,0,.2-1.13,3.61,3.61,0,0,0-.66-2.06A16.8,16.8,0,0,1,10.85-16.44ZM1.75-28.62A0.8,0.8,0,0,1,2-29a0.79,0.79,0,0,1,.44-0.14A0.79,0.79,0,0,1,2.8-29a0.8,0.8,0,0,1,.35.29,0.79,0.79,0,0,1,.14.45,0.79,0.79,0,0,1-.06.31,0.8,0.8,0,0,1-.29.35,0.78,0.78,0,0,1-.44.14,0.78,0.78,0,0,1-.31-0.06,0.8,0.8,0,0,1-.35-0.29,0.79,0.79,0,0,1-.14-0.45,0.79,0.79,0,0,1,.06-0.31M-4.52-15.83A14.63,14.63,0,0,0-3.39-20a10,10,0,0,1,.71-2.72,6,6,0,0,1,.88-1.45A4.7,4.7,0,0,1,0-25.56,6.32,6.32,0,0,1,2.49-26a6.51,6.51,0,0,1,2.24.36A4.75,4.75,0,0,1,6-24.92,5.31,5.31,0,0,1,7.53-23a9.62,9.62,0,0,1,.83,3,14.63,14.63,0,0,0,1.13,4.21,12.84,12.84,0,0,0,1.16,1.9H-5.68a12.84,12.84,0,0,0,1.16-1.9M4.25-8.38a1.93,1.93,0,0,1-.69.84,1.89,1.89,0,0,1-1.07.33,1.9,1.9,0,0,1-.75-0.15A1.93,1.93,0,0,1,.9-8.05,1.91,1.91,0,0,1,.6-8.78H4.37a1.89,1.89,0,0,1-.12.4m7.36-2.54a1.25,1.25,0,0,1-.35.57,0.74,0.74,0,0,1-.22.13,0.66,0.66,0,0,1-.24,0H-5.82a0.67,0.67,0,0,1-.32-0.08,0.81,0.81,0,0,1-.21-0.17,1.28,1.28,0,0,1-.26-0.44,1.8,1.8,0,0,1-.11-0.62,2.11,2.11,0,0,1,.32-1.11H11.37a2.11,2.11,0,0,1,.32,1.11,1.82,1.82,0,0,1-.09.56"/></clipPath><clipPath id="clip-path-2"><circle class="cls-5" cx="12.5" cy="12.5" r="12"/></clipPath><clipPath id="clip-path-3"><rect class="cls-5" x="0.5" y="0.5" width="24" height="24"/></clipPath><clipPath id="clip-path-4"><path class="cls-3" d="M7.58,12.63l4,4a1,1,0,0,0,1.41,0l5.43-5.43A1,1,0,0,0,17,9.79l-5.43,5.43H13l-4-4A1,1,0,1,0,7.58,12.63Z"/></clipPath><clipPath id="clip-path-5"><rect class="cls-3" x="0.29" y="0.93" width="24" height="24"/></clipPath><clipPath id="clip-path-6"><path class="cls-2" d="M-94.53,45a1.77,1.77,0,0,1,1.35-.79,1.77,1.77,0,0,1,1.45.59l1.15,1.3a2.19,2.19,0,0,0,3.64-.26l4-6.1A1.77,1.77,0,0,1-81.43,39a1.77,1.77,0,0,1,1.48.79l7.14,10.75c0.91,1.38.31,2.49-1.34,2.49H-96.8c-1.66,0-2.25-1.13-1.35-2.5Zm1.87-12.16a3.57,3.57,0,0,1,3.58,3.56A3.57,3.57,0,0,1-92.66,40a3.57,3.57,0,0,1-3.58-3.56A3.57,3.57,0,0,1-92.66,32.86Zm-10.82,19.79a5,5,0,0,0,5,5h26a5,5,0,0,0,5-5V34.38a5,5,0,0,0-5-5h-26a5,5,0,0,0-5,5V52.65Z"/></clipPath><clipPath id="clip-path-7"><path class="cls-2" d="M-41.49,35.09a1.83,1.83,0,0,0,1.83-1.84V30.35a1.83,1.83,0,0,0-1.83-1.84,1.83,1.83,0,0,0-1.83,1.84v2.89A1.83,1.83,0,0,0-41.49,35.09Z"/></clipPath><clipPath id="clip-path-8"><path class="cls-2" d="M-28,35.09a1.83,1.83,0,0,0,1.83-1.84V30.35A1.83,1.83,0,0,0-28,28.52a1.83,1.83,0,0,0-1.83,1.84v2.89A1.83,1.83,0,0,0-28,35.09Z"/></clipPath><clipPath id="clip-path-9"><path class="cls-2" d="M-25.81,53.91H-44.59a1.85,1.85,0,0,1-1.88-1.81v-12h22.53v12A1.85,1.85,0,0,1-25.81,53.91Zm1.23-22.77v2.11A3.45,3.45,0,0,1-28,36.7a3.45,3.45,0,0,1-3.44-3.46V31.14h-6.61v2.11a3.45,3.45,0,0,1-3.43,3.46,3.45,3.45,0,0,1-3.44-3.46V31.14h-1.13a4.42,4.42,0,0,0-4.4,4.43V54.09a4.42,4.42,0,0,0,4.4,4.43h22.61A4.42,4.42,0,0,0-19,54.09V35.56a4.42,4.42,0,0,0-4.4-4.43h-1.13Z"/></clipPath><clipPath id="clip-path-10"><path class="cls-2" d="M17.19,43.65a1.93,1.93,0,1,1,1.93-1.93A1.93,1.93,0,0,1,17.19,43.65Zm-7.54,0a1.93,1.93,0,1,1,1.93-1.93A1.93,1.93,0,0,1,9.65,43.65Zm-7.54,0A1.93,1.93,0,1,1,4,41.72,1.93,1.93,0,0,1,2.1,43.65ZM9.72,28.52C0,28.52-6.57,33.46-6.57,41.16a12.38,12.38,0,0,0,5.77,11c0.25,0.16.55,0.19,0.44,0.66-0.45,1.9-1.24,5.27-1.24,5.27a0.37,0.37,0,0,0,.14.38,0.37,0.37,0,0,0,.4,0s5.56-3.3,6.31-3.71a8.48,8.48,0,0,1,4.34-1.18c7.69,0,16.27-3.08,16.27-12.51C25.86,33.76,20,28.52,9.72,28.52Z"/></clipPath><clipPath id="clip-path-11"><rect class="cls-3" x="-294.57" y="-499.48" width="375" height="930"/></clipPath><clipPath id="clip-path-12"><path class="cls-2" d="M-92.66,109.85H-92a1.28,1.28,0,0,1,.42.95,1.28,1.28,0,0,1-.47,1h-0.83a0.29,0.29,0,0,0-.29.29,0.29,0.29,0,0,0,.29.29h0.52a1,1,0,0,1,.22.68,1.28,1.28,0,0,1-.47,1h-0.8a0.29,0.29,0,0,0-.29.29,0.29,0.29,0,0,0,.29.29h0.23a1.23,1.23,0,0,1,0,.34,1.28,1.28,0,0,1-1.06,1.27l-0.8.12a12.4,12.4,0,0,1-1.73.11l-1.53,0a12.83,12.83,0,0,1-4.36-.81c-2.58-1.31-2.58-5.6-.78-7.42,1-1,2-1.67,2.78-2.66,1.28-1.53,2.52-3.34,2.65-4.13a1.25,1.25,0,0,1,1.13-1.2,1.21,1.21,0,0,1,1.08.94,4.55,4.55,0,0,1-.27,3.17c-0.23.63-1.47,1.65-.71,2.47a2,2,0,0,0,1.35.42h2.73a1.28,1.28,0,0,1,1.27,1.29,1.05,1.05,0,0,1-.39.77h-0.82a0.29,0.29,0,0,0-.29.29A0.29,0.29,0,0,0-92.66,109.85Z"/></clipPath><clipPath id="clip-path-13"><path class="cls-4" d="M-64,109.85h0.62a1.28,1.28,0,0,1,.42.95,1.28,1.28,0,0,1-.47,1h-0.83a0.29,0.29,0,0,0-.29.29,0.29,0.29,0,0,0,.29.29h0.52a1,1,0,0,1,.22.68,1.28,1.28,0,0,1-.47,1h-0.8a0.29,0.29,0,0,0-.29.29,0.29,0.29,0,0,0,.29.29h0.23a1.23,1.23,0,0,1,0,.34,1.28,1.28,0,0,1-1.06,1.27l-0.8.12a12.4,12.4,0,0,1-1.73.11l-1.53,0a12.83,12.83,0,0,1-4.36-.81c-2.58-1.31-2.58-5.6-.78-7.42,1-1,2-1.67,2.78-2.66,1.28-1.53,2.52-3.34,2.65-4.13a1.25,1.25,0,0,1,1.13-1.2,1.21,1.21,0,0,1,1.08.94,4.55,4.55,0,0,1-.27,3.17c-0.23.63-1.47,1.65-.71,2.47a2,2,0,0,0,1.35.42H-64a1.28,1.28,0,0,1,1.27,1.29,1.05,1.05,0,0,1-.39.77H-64a0.29,0.29,0,0,0-.29.29A0.29,0.29,0,0,0-64,109.85Z"/></clipPath><clipPath id="clip-path-14"><path class="cls-2" d="M-34.14,108.4a1,1,0,0,1-1-1,1,1,0,0,1,1-1,1,1,0,0,1,1,1A1,1,0,0,1-34.14,108.4Zm-4.05,0a1,1,0,0,1-1-1,1,1,0,0,1,1-1,1,1,0,0,1,1,1A1,1,0,0,1-38.19,108.4Zm-4.05,0a1,1,0,0,1-1-1,1,1,0,0,1,1-1,1,1,0,0,1,1,1A1,1,0,0,1-42.25,108.4Zm4.09-8.07c-5.21,0-8.75,2.64-8.75,6.74a6.59,6.59,0,0,0,3.1,5.85c0.14,0.09.3,0.1,0.24,0.35-0.24,1-.67,2.81-0.67,2.81a0.2,0.2,0,0,0,.07.2,0.2,0.2,0,0,0,.22,0s3-1.76,3.39-2a4.58,4.58,0,0,1,2.33-.63c4.13,0,8.74-1.64,8.74-6.67C-29.48,103.13-32.65,100.33-38.16,100.33Z"/></clipPath><clipPath id="clip-path-15"><path class="cls-2" d="M-1.08,107.5l-7.38-6v3.08c-7.19.06-9.86,5.46-9,10.66,1.57-3.23,4.84-4.51,9-4.65v3Z"/></clipPath><clipPath id="clip-path-16"><path class="cls-2" d="M26,114.52H24.69a7.76,7.76,0,0,0,.29-2h1.69A4,4,0,0,1,26,114.52Zm-0.61.75a4.32,4.32,0,0,1-1.6,1,4.31,4.31,0,0,0,.72-1.28H25.7C25.61,115.07,25.52,115.17,25.42,115.27Zm-2.26,1a1.52,1.52,0,0,1-.34.2l-0.21,0V115H24c-0.06.14-.12,0.28-0.19,0.41A2.8,2.8,0,0,1,23.16,116.26Zm-0.55-3.7h1.91a7.24,7.24,0,0,1-.31,2h-1.6v-2Zm0-2.41h1.6a7.25,7.25,0,0,1,.31,2H22.61v-2Zm0-2,0.21,0a1.53,1.53,0,0,1,.34.2A3.2,3.2,0,0,1,24,109.7H22.61v-1.51Zm2.81,1.21c0.1,0.1.19,0.2,0.28,0.3H24.54a5.21,5.21,0,0,0-.27-0.62,3.75,3.75,0,0,0-.45-0.67A4.33,4.33,0,0,1,25.42,109.4ZM26,110.15a4,4,0,0,1,.64,2H25a7.78,7.78,0,0,0-.29-2H26Zm-3.89-.44H20.71c0.06-.14.12-0.28,0.19-0.41a2.8,2.8,0,0,1,.7-0.88,1.52,1.52,0,0,1,.34-0.2l0.21,0v1.51h0Zm0,2.41H20.23a7.24,7.24,0,0,1,.31-2h1.6v2h0Zm0,2.41h-1.6a7.25,7.25,0,0,1-.31-2h1.92v2h0Zm0,2-0.21,0a1.52,1.52,0,0,1-.34-0.2A3.2,3.2,0,0,1,20.7,115h1.44v1.51h0Zm-2.81-1.21c-0.1-.1-0.19-0.2-0.28-0.3h1.16a5.2,5.2,0,0,0,.27.62,3.75,3.75,0,0,0,.45.67A4.33,4.33,0,0,1,19.33,115.27Zm-0.61-.75a4,4,0,0,1-.64-2h1.69a7.78,7.78,0,0,0,.29,2H18.72Zm0-4.37h1.34a7.76,7.76,0,0,0-.29,2H18.08A4,4,0,0,1,18.72,110.15Zm0.61-.75a4.33,4.33,0,0,1,1.6-1,4.3,4.3,0,0,0-.72,1.28H19.05C19.14,109.6,19.23,109.49,19.33,109.4Zm3-1.81a4.75,4.75,0,1,0,4.91,4.74A4.83,4.83,0,0,0,22.38,107.59Z"/></clipPath><clipPath id="clip-path-17"><ellipse class="cls-3" cx="47.16" cy="110.83" rx="1.78" ry="1.8"/></clipPath><clipPath id="clip-path-18"><ellipse class="cls-3" cx="43.24" cy="112.1" rx="1.32" ry="1.34"/></clipPath><clipPath id="clip-path-19"><path class="cls-2" d="M41.49,114.91v1A1.54,1.54,0,0,0,43,117.47h1.25v-3a1.87,1.87,0,0,1,.13-0.38,1.91,1.91,0,0,0-1.18-.37A1.7,1.7,0,0,0,41.49,114.91Z"/></clipPath><clipPath id="clip-path-20"><path class="cls-2" d="M44.83,114.61v2.58a0.84,0.84,0,0,0,.83.84h3a0.84,0.84,0,0,0,.83-0.84v-2.58A2.51,2.51,0,0,0,44.83,114.61Z"/></clipPath></defs><title>icon</title><path class="cls-6" d="M10.85-16.44a13.1,13.1,0,0,1-1-3.79A11.48,11.48,0,0,0,9-23.35a7.5,7.5,0,0,0-1.1-1.81,6.19,6.19,0,0,0-2.38-1.77,6.73,6.73,0,0,0-1-.34,2.3,2.3,0,0,0,.25-1,2.29,2.29,0,0,0-.18-0.89,2.29,2.29,0,0,0-.83-1,2.28,2.28,0,0,0-1.28-.39,2.28,2.28,0,0,0-.89.18,2.29,2.29,0,0,0-1,.83A2.29,2.29,0,0,0,.2-28.3a2.29,2.29,0,0,0,.18.89l0.07,0.14a6.9,6.9,0,0,0-.71.22A6.25,6.25,0,0,0-2-26.1a6.8,6.8,0,0,0-1.9,2.41,11.07,11.07,0,0,0-1,3.46,13.13,13.13,0,0,1-1,3.79,16.88,16.88,0,0,1-1.67,2.81,3.6,3.6,0,0,0-.66,2.06,3.3,3.3,0,0,0,.16,1,2.73,2.73,0,0,0,.8,1.24,2.21,2.21,0,0,0,.65.39,2.16,2.16,0,0,0,.78.14H-0.9a3.38,3.38,0,0,0,.25,1A3.44,3.44,0,0,0,.58-6.3a3.4,3.4,0,0,0,1.91.58A3.39,3.39,0,0,0,3.81-6a3.42,3.42,0,0,0,1.5-1.24,3.39,3.39,0,0,0,.56-1.56h4.92a2.16,2.16,0,0,0,1-.25,2.32,2.32,0,0,0,.6-0.46A2.77,2.77,0,0,0,13-10.43a3.26,3.26,0,0,0,.2-1.13,3.61,3.61,0,0,0-.66-2.06A16.8,16.8,0,0,1,10.85-16.44ZM1.75-28.62A0.8,0.8,0,0,1,2-29a0.79,0.79,0,0,1,.44-0.14A0.79,0.79,0,0,1,2.8-29a0.8,0.8,0,0,1,.35.29,0.79,0.79,0,0,1,.14.45,0.79,0.79,0,0,1-.06.31,0.8,0.8,0,0,1-.29.35,0.78,0.78,0,0,1-.44.14,0.78,0.78,0,0,1-.31-0.06,0.8,0.8,0,0,1-.35-0.29,0.79,0.79,0,0,1-.14-0.45,0.79,0.79,0,0,1,.06-0.31M-4.52-15.83A14.63,14.63,0,0,0-3.39-20a10,10,0,0,1,.71-2.72,6,6,0,0,1,.88-1.45A4.7,4.7,0,0,1,0-25.56,6.32,6.32,0,0,1,2.49-26a6.51,6.51,0,0,1,2.24.36A4.75,4.75,0,0,1,6-24.92,5.31,5.31,0,0,1,7.53-23a9.62,9.62,0,0,1,.83,3,14.63,14.63,0,0,0,1.13,4.21,12.84,12.84,0,0,0,1.16,1.9H-5.68a12.84,12.84,0,0,0,1.16-1.9M4.25-8.38a1.93,1.93,0,0,1-.69.84,1.89,1.89,0,0,1-1.07.33,1.9,1.9,0,0,1-.75-0.15A1.93,1.93,0,0,1,.9-8.05,1.91,1.91,0,0,1,.6-8.78H4.37a1.89,1.89,0,0,1-.12.4m7.36-2.54a1.25,1.25,0,0,1-.35.57,0.74,0.74,0,0,1-.22.13,0.66,0.66,0,0,1-.24,0H-5.82a0.67,0.67,0,0,1-.32-0.08,0.81,0.81,0,0,1-.21-0.17,1.28,1.28,0,0,1-.26-0.44,1.8,1.8,0,0,1-.11-0.62,2.11,2.11,0,0,1,.32-1.11H11.37a2.11,2.11,0,0,1,.32,1.11,1.82,1.82,0,0,1-.09.56"/><g class="cls-7"><rect class="cls-5" x="-16.58" y="-37.11" width="37.21" height="37.21"/></g><circle class="cls-5" cx="12.5" cy="12.5" r="12"/><g class="cls-8"><rect class="cls-5" x="0.5" y="0.5" width="24" height="24"/><g class="cls-9"><rect class="cls-5" x="-4.5" y="-4.5" width="34" height="34"/></g></g><g class="cls-10"><g class="cls-11"><rect class="cls-12" x="2.29" y="5.93" width="20" height="16"/></g></g><g class="cls-17"><g class="cls-18"><rect class="cls-12" x="-11.57" y="23.52" width="42.42" height="40"/></g></g><path class="cls-20" d="M-64,109.85h0.62a1.28,1.28,0,0,1,.42.95,1.28,1.28,0,0,1-.47,1h-0.83a0.29,0.29,0,0,0-.29.29,0.29,0.29,0,0,0,.29.29h0.52a1,1,0,0,1,.22.68,1.28,1.28,0,0,1-.47,1h-0.8a0.29,0.29,0,0,0-.29.29,0.29,0.29,0,0,0,.29.29h0.23a1.23,1.23,0,0,1,0,.34,1.28,1.28,0,0,1-1.06,1.27l-0.8.12a12.4,12.4,0,0,1-1.73.11l-1.53,0a12.83,12.83,0,0,1-4.36-.81c-2.58-1.31-2.58-5.6-.78-7.42,1-1,2-1.67,2.78-2.66,1.28-1.53,2.52-3.34,2.65-4.13a1.25,1.25,0,0,1,1.13-1.2,1.21,1.21,0,0,1,1.08.94,4.55,4.55,0,0,1-.27,3.17c-0.23.63-1.47,1.65-.71,2.47a2,2,0,0,0,1.35.42H-64a1.28,1.28,0,0,1,1.27,1.29,1.05,1.05,0,0,1-.39.77H-64a0.29,0.29,0,0,0-.29.29A0.29,0.29,0,0,0-64,109.85Z"/><g class="cls-21"><rect class="cls-22" x="-97.9" y="-385.67" width="375" height="667"/></g></svg>