<svg id="レイヤー_1" data-name="レイヤー 1" xmlns="http://www.w3.org/2000/svg" xmlns:xlink="http://www.w3.org/1999/xlink" viewBox="0 0 25 25"><defs><style>.cls-1,.cls-2{fill:none;}.cls-1,.cls-3{clip-rule:evenodd;}.cls-14,.cls-16,.cls-3{fill:#a4aab3;}.cls-4{clip-path:url(#clip-path);}.cls-5{clip-path:url(#clip-path-2);}.cls-6{clip-path:url(#clip-path-3);}.cls-7{clip-path:url(#clip-path-4);}.cls-8{clip-path:url(#clip-path-5);}.cls-9{clip-path:url(#clip-path-6);}.cls-10{clip-path:url(#clip-path-7);}.cls-11{fill:#fff;}.cls-12{clip-path:url(#clip-path-8);}.cls-13{clip-path:url(#clip-path-9);}.cls-14{fill-rule:evenodd;}.cls-15{clip-path:url(#clip-path-10);}.cls-17{clip-path:url(#clip-path-11);}.cls-18{clip-path:url(#clip-path-12);}.cls-19{clip-path:url(#clip-path-13);}.cls-20{clip-path:url(#clip-path-14);}.cls-21{clip-path:url(#clip-path-15);}.cls-22{clip-path:url(#clip-path-16);}.cls-23{clip-path:url(#clip-path-17);}</style><clipPath id="clip-path"><path class="cls-1" d="M-141.18,75.67a1.77,1.77,0,0,1,1.35-.79,1.77,1.77,0,0,1,1.45.59l1.15,1.3a2.19,2.19,0,0,0,3.64-.26l4-6.1a1.77,1.77,0,0,1,1.47-.79,1.77,1.77,0,0,1,1.48.79l7.14,10.75c0.91,1.38.31,2.49-1.34,2.49h-22.66c-1.66,0-2.25-1.13-1.35-2.5Zm1.87-12.16a3.57,3.57,0,0,1,3.58,3.56,3.57,3.57,0,0,1-3.58,3.56,3.57,3.57,0,0,1-3.58-3.56A3.57,3.57,0,0,1-139.31,63.51ZM-150.12,83.3a5,5,0,0,0,5,5h26a5,5,0,0,0,5-5V65a5,5,0,0,0-5-5h-26a5,5,0,0,0-5,5V83.3Z"/></clipPath><clipPath id="clip-path-2"><path class="cls-1" d="M-88.14,65.74a1.83,1.83,0,0,0,1.83-1.84V61a1.83,1.83,0,0,0-1.83-1.84A1.83,1.83,0,0,0-90,61V63.9A1.83,1.83,0,0,0-88.14,65.74Z"/></clipPath><clipPath id="clip-path-3"><path class="cls-1" d="M-74.66,65.74a1.83,1.83,0,0,0,1.83-1.84V61a1.83,1.83,0,0,0-1.83-1.84A1.83,1.83,0,0,0-76.49,61V63.9A1.83,1.83,0,0,0-74.66,65.74Z"/></clipPath><clipPath id="clip-path-4"><path class="cls-1" d="M-72.45,84.56H-91.23a1.85,1.85,0,0,1-1.88-1.81v-12h22.53v12A1.85,1.85,0,0,1-72.45,84.56Zm1.23-22.77V63.9a3.45,3.45,0,0,1-3.43,3.46A3.45,3.45,0,0,1-78.1,63.9V61.79h-6.61V63.9a3.45,3.45,0,0,1-3.43,3.46,3.45,3.45,0,0,1-3.44-3.46V61.79h-1.13a4.42,4.42,0,0,0-4.4,4.43V84.74a4.42,4.42,0,0,0,4.4,4.43H-70.1a4.42,4.42,0,0,0,4.4-4.43V66.22a4.42,4.42,0,0,0-4.4-4.43h-1.13Z"/></clipPath><clipPath id="clip-path-5"><path class="cls-1" d="M-29.46,74.3a1.93,1.93,0,0,1-1.93-1.93,1.93,1.93,0,0,1,1.93-1.93,1.93,1.93,0,0,1,1.93,1.93A1.93,1.93,0,0,1-29.46,74.3Zm-7.54,0a1.93,1.93,0,0,1-1.93-1.93A1.93,1.93,0,0,1-37,70.44a1.93,1.93,0,0,1,1.93,1.93A1.93,1.93,0,0,1-37,74.3Zm-7.54,0a1.93,1.93,0,0,1-1.93-1.93,1.93,1.93,0,0,1,1.93-1.93,1.93,1.93,0,0,1,1.93,1.93A1.93,1.93,0,0,1-44.54,74.3Zm7.61-15.13c-9.7,0-16.28,4.95-16.28,12.64a12.38,12.38,0,0,0,5.77,11c0.25,0.16.55,0.19,0.44,0.66-0.45,1.9-1.24,5.27-1.24,5.27a0.37,0.37,0,0,0,.14.38,0.37,0.37,0,0,0,.4,0s5.56-3.3,6.31-3.71a8.48,8.48,0,0,1,4.34-1.18c7.69,0,16.27-3.08,16.27-12.51C-20.79,64.42-26.68,59.17-36.93,59.17Z"/></clipPath><clipPath id="clip-path-6"><path class="cls-1" d="M24.92,8.77a1.89,1.89,0,1,0-3.24,1.33c-1.28,2.7-3.74,3.64-5.64,2.78-1.69-.76-2.32-2.93-2.53-4.61a2.17,2.17,0,1,0-2,0C11.28,10,10.65,12.12,9,12.88c-1.9.85-4.35-.09-5.64-2.78a1.92,1.92,0,0,0,.53-1.33A1.9,1.9,0,0,0,2,6.86a1.91,1.91,0,0,0-.25,3.81L4.42,20.88H20.58l2.71-10.21A1.9,1.9,0,0,0,24.92,8.77Z"/></clipPath><clipPath id="clip-path-7"><rect class="cls-2" x="-16.75" y="-189.05" width="300.51" height="534.52"/></clipPath><clipPath id="clip-path-8"><path class="cls-1" d="M44.16,77.08a3.43,3.43,0,0,0-2.42,5.8c-2.29,4.82-6.68,6.5-10.08,5-3-1.36-4.14-5.24-4.52-8.25a3.88,3.88,0,1,0-3.61,0c-0.38,3-1.5,6.89-4.52,8.25-3.4,1.52-7.78-.16-10.08-5a3.44,3.44,0,0,0,.95-2.38,3.37,3.37,0,1,0-3.82,3.39l4.84,18.25H39.76L44.6,83.89A3.42,3.42,0,0,0,44.16,77.08Z"/></clipPath><clipPath id="clip-path-9"><path class="cls-1" d="M-139.31,140.51h0.62a1.28,1.28,0,0,1,.42.95,1.28,1.28,0,0,1-.47,1h-0.83a0.29,0.29,0,0,0-.29.29,0.29,0.29,0,0,0,.29.29h0.52a1,1,0,0,1,.22.68,1.28,1.28,0,0,1-.47,1h-0.8a0.29,0.29,0,0,0-.29.29,0.29,0.29,0,0,0,.29.29h0.23a1.23,1.23,0,0,1,0,.34,1.28,1.28,0,0,1-1.06,1.27l-0.8.12a12.4,12.4,0,0,1-1.73.11l-1.53,0a12.83,12.83,0,0,1-4.36-.81c-2.58-1.31-2.58-5.6-.78-7.42,1-1,2-1.67,2.78-2.66,1.28-1.53,2.52-3.34,2.65-4.13a1.25,1.25,0,0,1,1.13-1.2,1.21,1.21,0,0,1,1.08.94,4.55,4.55,0,0,1-.27,3.17c-0.23.63-1.47,1.65-.71,2.47a2,2,0,0,0,1.35.42h2.73a1.28,1.28,0,0,1,1.27,1.29,1.05,1.05,0,0,1-.39.77h-0.82a0.29,0.29,0,0,0-.29.29A0.29,0.29,0,0,0-139.31,140.51Z"/></clipPath><clipPath id="clip-path-10"><path class="cls-3" d="M-110.63,140.51H-110a1.28,1.28,0,0,1,.42.95,1.28,1.28,0,0,1-.47,1h-0.83a0.29,0.29,0,0,0-.29.29,0.29,0.29,0,0,0,.29.29h0.52a1,1,0,0,1,.22.68,1.28,1.28,0,0,1-.47,1h-0.8a0.29,0.29,0,0,0-.29.29,0.29,0.29,0,0,0,.29.29h0.23a1.23,1.23,0,0,1,0,.34,1.28,1.28,0,0,1-1.06,1.27l-0.8.12a12.4,12.4,0,0,1-1.73.11l-1.53,0a12.83,12.83,0,0,1-4.36-.81c-2.58-1.31-2.58-5.6-.78-7.42,1-1,2-1.67,2.78-2.66,1.28-1.53,2.52-3.34,2.65-4.13a1.25,1.25,0,0,1,1.13-1.2,1.21,1.21,0,0,1,1.08.94,4.55,4.55,0,0,1-.27,3.17c-0.23.63-1.47,1.65-.71,2.47a2,2,0,0,0,1.35.42h2.73a1.28,1.28,0,0,1,1.27,1.29,1.05,1.05,0,0,1-.39.77h-0.82a0.29,0.29,0,0,0-.29.29A0.29,0.29,0,0,0-110.63,140.51Z"/></clipPath><clipPath id="clip-path-11"><path class="cls-1" d="M-80.79,139.06a1,1,0,0,1-1-1,1,1,0,0,1,1-1,1,1,0,0,1,1,1A1,1,0,0,1-80.79,139.06Zm-4.05,0a1,1,0,0,1-1-1,1,1,0,0,1,1-1,1,1,0,0,1,1,1A1,1,0,0,1-84.84,139.06Zm-4.05,0a1,1,0,0,1-1-1,1,1,0,0,1,1-1,1,1,0,0,1,1,1A1,1,0,0,1-88.89,139.06ZM-84.8,131c-5.21,0-8.75,2.64-8.75,6.74a6.59,6.59,0,0,0,3.1,5.85c0.14,0.09.3,0.1,0.24,0.35-0.24,1-.67,2.81-0.67,2.81a0.2,0.2,0,0,0,.07.2,0.2,0.2,0,0,0,.22,0s3-1.76,3.39-2a4.58,4.58,0,0,1,2.33-.63c4.13,0,8.74-1.64,8.74-6.67C-76.13,133.79-79.3,131-84.8,131Z"/></clipPath><clipPath id="clip-path-12"><path class="cls-1" d="M-47.73,138.16l-7.38-6v3.08c-7.19.06-9.86,5.46-9,10.66,1.57-3.23,4.84-4.51,9-4.65v3Z"/></clipPath><clipPath id="clip-path-13"><path class="cls-1" d="M-20.62,145.18H-22a7.76,7.76,0,0,0,.29-2H-20A4,4,0,0,1-20.62,145.18Zm-0.61.75a4.32,4.32,0,0,1-1.6,1,4.31,4.31,0,0,0,.72-1.28h1.16C-21,145.73-21.13,145.83-21.23,145.92Zm-2.26,1a1.52,1.52,0,0,1-.34.2l-0.21,0v-1.51h1.44c-0.06.14-.12,0.28-0.19,0.41A2.8,2.8,0,0,1-23.49,146.91Zm-0.55-3.7h1.91a7.24,7.24,0,0,1-.31,2H-24v-2Zm0-2.41h1.6a7.25,7.25,0,0,1,.31,2H-24v-2Zm0-2,0.21,0a1.53,1.53,0,0,1,.34.2,3.2,3.2,0,0,1,.89,1.29H-24v-1.51Zm2.81,1.21c0.1,0.1.19,0.2,0.28,0.3h-1.16a5.21,5.21,0,0,0-.27-0.62,3.75,3.75,0,0,0-.45-0.67A4.33,4.33,0,0,1-21.23,140.05Zm0.61,0.75a4,4,0,0,1,.64,2h-1.69a7.78,7.78,0,0,0-.29-2h1.34Zm-3.89-.44h-1.44c0.06-.14.12-0.28,0.19-0.41a2.8,2.8,0,0,1,.7-0.88,1.52,1.52,0,0,1,.34-0.2l0.21,0v1.51h0Zm0,2.41h-1.91a7.24,7.24,0,0,1,.31-2h1.6v2h0Zm0,2.41h-1.6a7.25,7.25,0,0,1-.31-2h1.92v2h0Zm0,2-0.21,0a1.52,1.52,0,0,1-.34-0.2,3.2,3.2,0,0,1-.89-1.29h1.44v1.51h0Zm-2.81-1.21c-0.1-.1-0.19-0.2-0.28-0.3h1.16a5.2,5.2,0,0,0,.27.62,3.75,3.75,0,0,0,.45.67A4.33,4.33,0,0,1-27.31,145.92Zm-0.61-.75a4,4,0,0,1-.64-2h1.69a7.78,7.78,0,0,0,.29,2h-1.34Zm0-4.37h1.34a7.76,7.76,0,0,0-.29,2h-1.69A4,4,0,0,1-27.93,140.8Zm0.61-.75a4.33,4.33,0,0,1,1.6-1,4.3,4.3,0,0,0-.72,1.28H-27.6C-27.51,140.25-27.41,140.15-27.31,140.05Zm3-1.81A4.83,4.83,0,0,0-29.19,143a4.83,4.83,0,0,0,4.91,4.74A4.83,4.83,0,0,0-19.36,143,4.83,4.83,0,0,0-24.27,138.24Z"/></clipPath><clipPath id="clip-path-14"><ellipse class="cls-2" cx="0.51" cy="141.49" rx="1.78" ry="1.8"/></clipPath><clipPath id="clip-path-15"><ellipse class="cls-2" cx="-3.41" cy="142.75" rx="1.32" ry="1.34"/></clipPath><clipPath id="clip-path-16"><path class="cls-1" d="M-5.16,145.57v1a1.54,1.54,0,0,0,1.53,1.54h1.25v-3a1.87,1.87,0,0,1,.13-0.38,1.91,1.91,0,0,0-1.18-.37A1.7,1.7,0,0,0-5.16,145.57Z"/></clipPath><clipPath id="clip-path-17"><path class="cls-1" d="M-1.82,145.27v2.58a0.84,0.84,0,0,0,.83.84H2a0.84,0.84,0,0,0,.83-0.84v-2.58A2.29,2.29,0,0,0,.51,143.7,2.29,2.29,0,0,0-1.82,145.27Z"/></clipPath></defs><title>icon</title><g class="cls-9"><g class="cls-10"><rect class="cls-11" x="-3.93" y="0.11" width="32.86" height="24.77"/></g></g><path class="cls-14" d="M-110.63,140.51H-110a1.28,1.28,0,0,1,.42.95,1.28,1.28,0,0,1-.47,1h-0.83a0.29,0.29,0,0,0-.29.29,0.29,0.29,0,0,0,.29.29h0.52a1,1,0,0,1,.22.68,1.28,1.28,0,0,1-.47,1h-0.8a0.29,0.29,0,0,0-.29.29,0.29,0.29,0,0,0,.29.29h0.23a1.23,1.23,0,0,1,0,.34,1.28,1.28,0,0,1-1.06,1.27l-0.8.12a12.4,12.4,0,0,1-1.73.11l-1.53,0a12.83,12.83,0,0,1-4.36-.81c-2.58-1.31-2.58-5.6-.78-7.42,1-1,2-1.67,2.78-2.66,1.28-1.53,2.52-3.34,2.65-4.13a1.25,1.25,0,0,1,1.13-1.2,1.21,1.21,0,0,1,1.08.94,4.55,4.55,0,0,1-.27,3.17c-0.23.63-1.47,1.65-.71,2.47a2,2,0,0,0,1.35.42h2.73a1.28,1.28,0,0,1,1.27,1.29,1.05,1.05,0,0,1-.39.77h-0.82a0.29,0.29,0,0,0-.29.29A0.29,0.29,0,0,0-110.63,140.51Z"/><g class="cls-15"><rect class="cls-16" x="-144.55" y="-355.01" width="375" height="667"/></g></svg>