<svg id="レイヤー_1" data-name="レイヤー 1" xmlns="http://www.w3.org/2000/svg" xmlns:xlink="http://www.w3.org/1999/xlink" viewBox="0 0 38 30"><defs><style>.cls-1{fill:#f5a623;}.cls-2,.cls-3{fill:none;}.cls-2,.cls-4{clip-rule:evenodd;}.cls-15,.cls-17,.cls-4{fill:#a4aab3;}.cls-5{clip-path:url(#clip-path);}.cls-6{clip-path:url(#clip-path-2);}.cls-7{clip-path:url(#clip-path-3);}.cls-8{clip-path:url(#clip-path-4);}.cls-9{clip-path:url(#clip-path-5);}.cls-10{clip-path:url(#clip-path-6);}.cls-11{clip-path:url(#clip-path-7);}.cls-12{clip-path:url(#clip-path-8);}.cls-13{fill:#fff;}.cls-14{clip-path:url(#clip-path-9);}.cls-15{fill-rule:evenodd;}.cls-16{clip-path:url(#clip-path-10);}.cls-18{clip-path:url(#clip-path-11);}.cls-19{clip-path:url(#clip-path-12);}.cls-20{clip-path:url(#clip-path-13);}.cls-21{clip-path:url(#clip-path-14);}.cls-22{clip-path:url(#clip-path-15);}.cls-23{clip-path:url(#clip-path-16);}.cls-24{clip-path:url(#clip-path-17);}</style><clipPath id="clip-path"><circle class="cls-1" cx="21.85" cy="-16.02" r="12"/></clipPath><clipPath id="clip-path-2"><rect class="cls-1" x="9.85" y="-28.02" width="24" height="24"/></clipPath><clipPath id="clip-path-3"><path class="cls-2" d="M-85.18,16.5a1.77,1.77,0,0,1,1.35-.79,1.77,1.77,0,0,1,1.45.59l1.15,1.3a2.19,2.19,0,0,0,3.64-.26l4-6.1a1.77,1.77,0,0,1,1.47-.79,1.77,1.77,0,0,1,1.48.79L-63.45,22c0.91,1.38.31,2.49-1.34,2.49H-87.45c-1.66,0-2.25-1.13-1.35-2.5Zm1.87-12.16A3.57,3.57,0,0,1-79.73,7.9a3.57,3.57,0,0,1-3.58,3.56A3.57,3.57,0,0,1-86.89,7.9,3.57,3.57,0,0,1-83.31,4.34ZM-94.12,24.13a5,5,0,0,0,5,5h26a5,5,0,0,0,5-5V5.87a5,5,0,0,0-5-5h-26a5,5,0,0,0-5,5V24.13Z"/></clipPath><clipPath id="clip-path-4"><path class="cls-2" d="M-32.14,6.57a1.83,1.83,0,0,0,1.83-1.84V1.84A1.83,1.83,0,0,0-32.14,0,1.83,1.83,0,0,0-34,1.84V4.73A1.83,1.83,0,0,0-32.14,6.57Z"/></clipPath><clipPath id="clip-path-5"><path class="cls-2" d="M-18.66,6.57a1.83,1.83,0,0,0,1.83-1.84V1.84A1.83,1.83,0,0,0-18.66,0a1.83,1.83,0,0,0-1.83,1.84V4.73A1.83,1.83,0,0,0-18.66,6.57Z"/></clipPath><clipPath id="clip-path-6"><path class="cls-2" d="M-16.45,25.39H-35.23a1.85,1.85,0,0,1-1.88-1.81v-12h22.53v12A1.85,1.85,0,0,1-16.45,25.39Zm1.23-22.77V4.73a3.45,3.45,0,0,1-3.43,3.46,3.45,3.45,0,0,1-3.44-3.46V2.62h-6.61V4.73a3.45,3.45,0,0,1-3.43,3.46,3.45,3.45,0,0,1-3.44-3.46V2.62h-1.13A4.42,4.42,0,0,0-41.11,7V25.57A4.42,4.42,0,0,0-36.71,30h22.61a4.42,4.42,0,0,0,4.4-4.43V7a4.42,4.42,0,0,0-4.4-4.43h-1.13Z"/></clipPath><clipPath id="clip-path-7"><path class="cls-2" d="M26.54,15.13a1.93,1.93,0,1,1,1.93-1.93A1.93,1.93,0,0,1,26.54,15.13Zm-7.54,0a1.93,1.93,0,1,1,1.93-1.93A1.93,1.93,0,0,1,19,15.13Zm-7.54,0a1.93,1.93,0,1,1,1.93-1.93A1.93,1.93,0,0,1,11.46,15.13ZM19.07,0C9.37,0,2.79,4.95,2.79,12.64a12.38,12.38,0,0,0,5.77,11c0.25,0.16.55,0.19,0.44,0.66-0.45,1.9-1.24,5.27-1.24,5.27A0.37,0.37,0,0,0,8.3,30s5.56-3.3,6.31-3.71a8.48,8.48,0,0,1,4.34-1.18c7.69,0,16.27-3.08,16.27-12.51C35.21,5.25,29.32,0,19.07,0Z"/></clipPath><clipPath id="clip-path-8"><rect class="cls-3" x="-285.21" y="-528" width="375" height="930"/></clipPath><clipPath id="clip-path-9"><path class="cls-2" d="M-83.31,81.34h0.62a1.28,1.28,0,0,1,.42.95,1.28,1.28,0,0,1-.47,1h-0.83a0.29,0.29,0,0,0-.29.29,0.29,0.29,0,0,0,.29.29h0.52a1,1,0,0,1,.22.68,1.28,1.28,0,0,1-.47,1h-0.8a0.29,0.29,0,0,0-.29.29,0.29,0.29,0,0,0,.29.29h0.23a1.23,1.23,0,0,1,0,.34,1.28,1.28,0,0,1-1.06,1.27l-0.8.12a12.4,12.4,0,0,1-1.73.11l-1.53,0a12.83,12.83,0,0,1-4.36-.81c-2.58-1.31-2.58-5.6-.78-7.42,1-1,2-1.67,2.78-2.66,1.28-1.53,2.52-3.34,2.65-4.13a1.25,1.25,0,0,1,1.13-1.2,1.21,1.21,0,0,1,1.08.94,4.55,4.55,0,0,1-.27,3.17c-0.23.63-1.47,1.65-.71,2.47a2,2,0,0,0,1.35.42h2.73A1.28,1.28,0,0,1-82.09,80a1.05,1.05,0,0,1-.39.77h-0.82a0.29,0.29,0,0,0-.29.29A0.29,0.29,0,0,0-83.31,81.34Z"/></clipPath><clipPath id="clip-path-10"><path class="cls-4" d="M-54.62,81.34H-54a1.28,1.28,0,0,1,.42.95,1.28,1.28,0,0,1-.47,1h-0.83a0.29,0.29,0,0,0-.29.29,0.29,0.29,0,0,0,.29.29h0.52a1,1,0,0,1,.22.68,1.28,1.28,0,0,1-.47,1h-0.8a0.29,0.29,0,0,0-.29.29,0.29,0.29,0,0,0,.29.29h0.23a1.23,1.23,0,0,1,0,.34,1.28,1.28,0,0,1-1.06,1.27l-0.8.12a12.4,12.4,0,0,1-1.73.11l-1.53,0a12.83,12.83,0,0,1-4.36-.81c-2.58-1.31-2.58-5.6-.78-7.42,1-1,2-1.67,2.78-2.66,1.28-1.53,2.52-3.34,2.65-4.13a1.25,1.25,0,0,1,1.13-1.2,1.21,1.21,0,0,1,1.08.94A4.55,4.55,0,0,1-58,75.8c-0.23.63-1.47,1.65-.71,2.47a2,2,0,0,0,1.35.42h2.73A1.28,1.28,0,0,1-53.41,80a1.05,1.05,0,0,1-.39.77h-0.82a0.29,0.29,0,0,0-.29.29A0.29,0.29,0,0,0-54.62,81.34Z"/></clipPath><clipPath id="clip-path-11"><path class="cls-2" d="M-24.79,79.89a1,1,0,0,1-1-1,1,1,0,0,1,1-1,1,1,0,0,1,1,1A1,1,0,0,1-24.79,79.89Zm-4.05,0a1,1,0,0,1-1-1,1,1,0,0,1,1-1,1,1,0,0,1,1,1A1,1,0,0,1-28.84,79.89Zm-4.05,0a1,1,0,0,1-1-1,1,1,0,0,1,1-1,1,1,0,0,1,1,1A1,1,0,0,1-32.89,79.89Zm4.09-8.07c-5.21,0-8.75,2.64-8.75,6.74a6.59,6.59,0,0,0,3.1,5.85c0.14,0.09.3,0.1,0.24,0.35-0.24,1-.67,2.81-0.67,2.81a0.2,0.2,0,0,0,.07.2,0.2,0.2,0,0,0,.22,0s3-1.76,3.39-2a4.58,4.58,0,0,1,2.33-.63c4.13,0,8.74-1.64,8.74-6.67C-20.13,74.62-23.29,71.82-28.8,71.82Z"/></clipPath><clipPath id="clip-path-12"><path class="cls-2" d="M8.27,79l-7.38-6V76c-7.19.06-9.86,5.46-9,10.66,1.57-3.23,4.84-4.51,9-4.65v3Z"/></clipPath><clipPath id="clip-path-13"><path class="cls-2" d="M35.38,86H34a7.76,7.76,0,0,0,.29-2H36A4,4,0,0,1,35.38,86Zm-0.61.75a4.32,4.32,0,0,1-1.6,1,4.31,4.31,0,0,0,.72-1.28h1.16C35,86.56,34.87,86.66,34.77,86.75Zm-2.26,1a1.52,1.52,0,0,1-.34.2L32,88V86.45H33.4c-0.06.14-.12,0.28-0.19,0.41A2.8,2.8,0,0,1,32.51,87.74ZM32,84h1.91a7.24,7.24,0,0,1-.31,2H32V84Zm0-2.41h1.6a7.25,7.25,0,0,1,.31,2H32v-2Zm0-2,0.21,0a1.53,1.53,0,0,1,.34.2,3.2,3.2,0,0,1,.89,1.29H32V79.67Zm2.81,1.21c0.1,0.1.19,0.2,0.28,0.3H33.89a5.21,5.21,0,0,0-.27-0.62,3.75,3.75,0,0,0-.45-0.67A4.33,4.33,0,0,1,34.77,80.88Zm0.61,0.75a4,4,0,0,1,.64,2H34.33a7.78,7.78,0,0,0-.29-2h1.34Zm-3.89-.44H30.06c0.06-.14.12-0.28,0.19-0.41a2.8,2.8,0,0,1,.7-0.88,1.52,1.52,0,0,1,.34-0.2l0.21,0v1.51h0Zm0,2.41H29.59a7.24,7.24,0,0,1,.31-2h1.6v2h0Zm0,2.41H29.9a7.25,7.25,0,0,1-.31-2H31.5v2h0Zm0,2-0.21,0a1.52,1.52,0,0,1-.34-0.2,3.2,3.2,0,0,1-.89-1.29H31.5V88h0Zm-2.81-1.21c-0.1-.1-0.19-0.2-0.28-0.3h1.16a5.2,5.2,0,0,0,.27.62,3.75,3.75,0,0,0,.45.67A4.33,4.33,0,0,1,28.69,86.75ZM28.07,86a4,4,0,0,1-.64-2h1.69a7.78,7.78,0,0,0,.29,2H28.07Zm0-4.37h1.34a7.76,7.76,0,0,0-.29,2H27.44A4,4,0,0,1,28.07,81.63Zm0.61-.75a4.33,4.33,0,0,1,1.6-1,4.3,4.3,0,0,0-.72,1.28H28.4C28.49,81.08,28.59,81,28.69,80.88Zm3-1.81a4.75,4.75,0,1,0,4.91,4.74A4.83,4.83,0,0,0,31.73,79.07Z"/></clipPath><clipPath id="clip-path-14"><ellipse class="cls-3" cx="56.51" cy="82.32" rx="1.78" ry="1.8"/></clipPath><clipPath id="clip-path-15"><ellipse class="cls-3" cx="52.59" cy="83.58" rx="1.32" ry="1.34"/></clipPath><clipPath id="clip-path-16"><path class="cls-2" d="M50.84,86.4v1A1.54,1.54,0,0,0,52.37,89h1.25V86a1.87,1.87,0,0,1,.13-0.38,1.91,1.91,0,0,0-1.18-.37A1.7,1.7,0,0,0,50.84,86.4Z"/></clipPath><clipPath id="clip-path-17"><path class="cls-2" d="M54.18,86.1v2.58a0.84,0.84,0,0,0,.83.84h3a0.84,0.84,0,0,0,.83-0.84V86.1A2.51,2.51,0,0,0,54.18,86.1Z"/></clipPath></defs><title>icon</title><circle class="cls-1" cx="21.85" cy="-16.02" r="12"/><g class="cls-5"><rect class="cls-1" x="9.85" y="-28.02" width="24" height="24"/><g class="cls-6"><rect class="cls-1" x="4.85" y="-33.02" width="34" height="34"/></g></g><g class="cls-11"><g class="cls-12"><rect class="cls-13" x="-2.21" y="-5" width="42.42" height="40"/></g></g><path class="cls-15" d="M-54.62,81.34H-54a1.28,1.28,0,0,1,.42.95,1.28,1.28,0,0,1-.47,1h-0.83a0.29,0.29,0,0,0-.29.29,0.29,0.29,0,0,0,.29.29h0.52a1,1,0,0,1,.22.68,1.28,1.28,0,0,1-.47,1h-0.8a0.29,0.29,0,0,0-.29.29,0.29,0.29,0,0,0,.29.29h0.23a1.23,1.23,0,0,1,0,.34,1.28,1.28,0,0,1-1.06,1.27l-0.8.12a12.4,12.4,0,0,1-1.73.11l-1.53,0a12.83,12.83,0,0,1-4.36-.81c-2.58-1.31-2.58-5.6-.78-7.42,1-1,2-1.67,2.78-2.66,1.28-1.53,2.52-3.34,2.65-4.13a1.25,1.25,0,0,1,1.13-1.2,1.21,1.21,0,0,1,1.08.94A4.55,4.55,0,0,1-58,75.8c-0.23.63-1.47,1.65-.71,2.47a2,2,0,0,0,1.35.42h2.73A1.28,1.28,0,0,1-53.41,80a1.05,1.05,0,0,1-.39.77h-0.82a0.29,0.29,0,0,0-.29.29A0.29,0.29,0,0,0-54.62,81.34Z"/><g class="cls-16"><rect class="cls-17" x="-88.54" y="-414.18" width="375" height="667"/></g></svg>