<svg id="レイヤー_1" data-name="レイヤー 1" xmlns="http://www.w3.org/2000/svg" xmlns:xlink="http://www.w3.org/1999/xlink" viewBox="0 0 10 10"><defs><style>.cls-1,.cls-3{fill:none;}.cls-1,.cls-2{clip-rule:evenodd;}.cls-12,.cls-14,.cls-2{fill:#a4aab3;}.cls-4{clip-path:url(#clip-path);}.cls-5{clip-path:url(#clip-path-2);}.cls-6{clip-path:url(#clip-path-3);}.cls-7{clip-path:url(#clip-path-4);}.cls-8{clip-path:url(#clip-path-5);}.cls-9{clip-path:url(#clip-path-6);}.cls-10{clip-path:url(#clip-path-7);}.cls-11{clip-path:url(#clip-path-8);}.cls-12{fill-rule:evenodd;}.cls-13{clip-path:url(#clip-path-9);}.cls-15{clip-path:url(#clip-path-10);}.cls-16{clip-path:url(#clip-path-11);}.cls-17{clip-path:url(#clip-path-12);}.cls-18{clip-path:url(#clip-path-13);}.cls-19{clip-path:url(#clip-path-14);}.cls-20{fill:#f5a623;}.cls-21{clip-path:url(#clip-path-15);}.cls-22{clip-path:url(#clip-path-17);}.cls-23{clip-path:url(#clip-path-19);}</style><clipPath id="clip-path"><path class="cls-1" d="M-135-63.59a1.77,1.77,0,0,1,1.35-.79,1.77,1.77,0,0,1,1.45.59l1.15,1.3a2.19,2.19,0,0,0,3.64-.26l4-6.1a1.77,1.77,0,0,1,1.47-.79,1.77,1.77,0,0,1,1.48.79l7.14,10.75c0.91,1.38.31,2.49-1.34,2.49h-22.66c-1.66,0-2.25-1.13-1.35-2.5Zm1.87-12.16a3.57,3.57,0,0,1,3.58,3.56,3.57,3.57,0,0,1-3.58,3.56,3.57,3.57,0,0,1-3.58-3.56A3.57,3.57,0,0,1-133.15-75.75ZM-144-56a5,5,0,0,0,5,5h26a5,5,0,0,0,5-5V-74.23a5,5,0,0,0-5-5h-26a5,5,0,0,0-5,5V-56Z"/></clipPath><clipPath id="clip-path-2"><path class="cls-1" d="M-82-73.52a1.83,1.83,0,0,0,1.83-1.84v-2.89A1.83,1.83,0,0,0-82-80.1a1.83,1.83,0,0,0-1.83,1.84v2.89A1.83,1.83,0,0,0-82-73.52Z"/></clipPath><clipPath id="clip-path-3"><path class="cls-1" d="M-68.5-73.52a1.83,1.83,0,0,0,1.83-1.84v-2.89A1.83,1.83,0,0,0-68.5-80.1a1.83,1.83,0,0,0-1.83,1.84v2.89A1.83,1.83,0,0,0-68.5-73.52Z"/></clipPath><clipPath id="clip-path-4"><path class="cls-1" d="M-66.29-54.7H-85.07A1.85,1.85,0,0,1-87-56.51v-12h22.53v12A1.85,1.85,0,0,1-66.29-54.7Zm1.23-22.77v2.11a3.45,3.45,0,0,1-3.43,3.46,3.45,3.45,0,0,1-3.44-3.46v-2.11h-6.61v2.11A3.45,3.45,0,0,1-82-71.91a3.45,3.45,0,0,1-3.44-3.46v-2.11h-1.13A4.42,4.42,0,0,0-91-73v18.52a4.42,4.42,0,0,0,4.4,4.43h22.61a4.42,4.42,0,0,0,4.4-4.43V-73a4.42,4.42,0,0,0-4.4-4.43h-1.13Z"/></clipPath><clipPath id="clip-path-5"><path class="cls-1" d="M-23.3-65a1.93,1.93,0,0,1-1.93-1.93,1.93,1.93,0,0,1,1.93-1.93,1.93,1.93,0,0,1,1.93,1.93A1.93,1.93,0,0,1-23.3-65Zm-7.54,0a1.93,1.93,0,0,1-1.93-1.93,1.93,1.93,0,0,1,1.93-1.93,1.93,1.93,0,0,1,1.93,1.93A1.93,1.93,0,0,1-30.84-65Zm-7.54,0a1.93,1.93,0,0,1-1.93-1.93,1.93,1.93,0,0,1,1.93-1.93,1.93,1.93,0,0,1,1.93,1.93A1.93,1.93,0,0,1-38.38-65Zm7.61-15.13c-9.7,0-16.28,4.95-16.28,12.64a12.38,12.38,0,0,0,5.77,11c0.25,0.16.55,0.19,0.44,0.66-0.45,1.9-1.24,5.27-1.24,5.27a0.37,0.37,0,0,0,.14.38,0.37,0.37,0,0,0,.4,0s5.56-3.3,6.31-3.71A8.48,8.48,0,0,1-30.9-55c7.69,0,16.27-3.08,16.27-12.51C-14.63-74.85-20.52-80.1-30.77-80.1Z"/></clipPath><clipPath id="clip-path-6"><path class="cls-1" d="M31.08-130.49a1.9,1.9,0,0,0-1.89-1.91,1.9,1.9,0,0,0-1.89,1.91,1.92,1.92,0,0,0,.53,1.33c-1.28,2.7-3.74,3.64-5.64,2.78-1.69-.76-2.32-2.93-2.53-4.61a2.21,2.21,0,0,0,1.16-1.95,2.19,2.19,0,0,0-2.17-2.2,2.19,2.19,0,0,0-2.17,2.2A2.2,2.2,0,0,0,17.65-131c-0.21,1.68-.84,3.85-2.53,4.61-1.9.85-4.35-.09-5.64-2.78a1.92,1.92,0,0,0,.53-1.33,1.9,1.9,0,0,0-1.89-1.91,1.9,1.9,0,0,0-1.89,1.91,1.9,1.9,0,0,0,1.64,1.9l2.71,10.21H26.74l2.71-10.21A1.9,1.9,0,0,0,31.08-130.49Z"/></clipPath><clipPath id="clip-path-7"><path class="cls-1" d="M50.32-62.19a3.4,3.4,0,0,0-3.37,3.42,3.43,3.43,0,0,0,.95,2.38c-2.29,4.82-6.68,6.5-10.08,5-3-1.36-4.14-5.24-4.52-8.25a3.94,3.94,0,0,0,2.07-3.48,3.91,3.91,0,0,0-3.88-3.94,3.91,3.91,0,0,0-3.88,3.94,3.94,3.94,0,0,0,2.08,3.48c-0.38,3-1.5,6.89-4.52,8.25-3.4,1.52-7.78-.16-10.08-5A3.44,3.44,0,0,0,16-58.77a3.4,3.4,0,0,0-3.37-3.42,3.4,3.4,0,0,0-3.37,3.42,3.4,3.4,0,0,0,2.93,3.39l4.84,18.25H45.92l4.84-18.25a3.4,3.4,0,0,0,2.93-3.39A3.4,3.4,0,0,0,50.32-62.19Z"/></clipPath><clipPath id="clip-path-8"><path class="cls-1" d="M-133.15,1.24h0.62a1.28,1.28,0,0,1,.42.95,1.28,1.28,0,0,1-.47,1h-0.83a0.29,0.29,0,0,0-.29.29,0.29,0.29,0,0,0,.29.29h0.52a1,1,0,0,1,.22.68,1.28,1.28,0,0,1-.47,1h-0.8a0.29,0.29,0,0,0-.29.29,0.29,0.29,0,0,0,.29.29h0.23a1.23,1.23,0,0,1,0,.34,1.28,1.28,0,0,1-1.06,1.27l-0.8.12a12.4,12.4,0,0,1-1.73.11l-1.53,0A12.83,12.83,0,0,1-143.16,7c-2.58-1.31-2.58-5.6-.78-7.42,1-1,2-1.67,2.78-2.66,1.28-1.53,2.52-3.34,2.65-4.13a1.25,1.25,0,0,1,1.13-1.2,1.21,1.21,0,0,1,1.08.94,4.55,4.55,0,0,1-.27,3.17c-0.23.63-1.47,1.65-.71,2.47a2,2,0,0,0,1.35.42h2.73a1.28,1.28,0,0,1,1.27,1.29,1.05,1.05,0,0,1-.39.77h-0.82a0.29,0.29,0,0,0-.29.29A0.29,0.29,0,0,0-133.15,1.24Z"/></clipPath><clipPath id="clip-path-9"><path class="cls-2" d="M-104.47,1.24h0.62a1.28,1.28,0,0,1,.42.95,1.28,1.28,0,0,1-.47,1h-0.83a0.29,0.29,0,0,0-.29.29,0.29,0.29,0,0,0,.29.29h0.52a1,1,0,0,1,.22.68,1.28,1.28,0,0,1-.47,1h-0.8a0.29,0.29,0,0,0-.29.29,0.29,0.29,0,0,0,.29.29H-105a1.23,1.23,0,0,1,0,.34A1.28,1.28,0,0,1-106,7.62l-0.8.12a12.4,12.4,0,0,1-1.73.11l-1.53,0A12.83,12.83,0,0,1-114.47,7c-2.58-1.31-2.58-5.6-.78-7.42,1-1,2-1.67,2.78-2.66,1.28-1.53,2.52-3.34,2.65-4.13a1.25,1.25,0,0,1,1.13-1.2,1.21,1.21,0,0,1,1.08.94,4.55,4.55,0,0,1-.27,3.17c-0.23.63-1.47,1.65-.71,2.47a2,2,0,0,0,1.35.42h2.73a1.28,1.28,0,0,1,1.27,1.29,1.05,1.05,0,0,1-.39.77h-0.82a0.29,0.29,0,0,0-.29.29A0.29,0.29,0,0,0-104.47,1.24Z"/></clipPath><clipPath id="clip-path-10"><path class="cls-1" d="M-74.63-.21a1,1,0,0,1-1-1,1,1,0,0,1,1-1,1,1,0,0,1,1,1A1,1,0,0,1-74.63-.21Zm-4.05,0a1,1,0,0,1-1-1,1,1,0,0,1,1-1,1,1,0,0,1,1,1A1,1,0,0,1-78.68-.21Zm-4.05,0a1,1,0,0,1-1-1,1,1,0,0,1,1-1,1,1,0,0,1,1,1A1,1,0,0,1-82.73-.21Zm4.09-8.07c-5.21,0-8.75,2.64-8.75,6.74a6.59,6.59,0,0,0,3.1,5.85c0.14,0.09.3,0.1,0.24,0.35-0.24,1-.67,2.81-0.67,2.81a0.2,0.2,0,0,0,.07.2,0.2,0.2,0,0,0,.22,0s3-1.76,3.39-2a4.58,4.58,0,0,1,2.33-.63c4.13,0,8.74-1.64,8.74-6.67C-70-5.48-73.14-8.28-78.64-8.28Z"/></clipPath><clipPath id="clip-path-11"><path class="cls-1" d="M-41.57-1.11l-7.38-6v3.08c-7.19.06-9.86,5.46-9,10.66,1.57-3.23,4.84-4.51,9-4.65v3Z"/></clipPath><clipPath id="clip-path-12"><path class="cls-1" d="M-14.46,5.91H-15.8a7.76,7.76,0,0,0,.29-2h1.69A4,4,0,0,1-14.46,5.91Zm-0.61.75a4.32,4.32,0,0,1-1.6,1,4.31,4.31,0,0,0,.72-1.28h1.16C-14.88,6.46-15,6.56-15.07,6.66Zm-2.26,1a1.52,1.52,0,0,1-.34.2l-0.21,0V6.35h1.44c-0.06.14-.12,0.28-0.19,0.41A2.8,2.8,0,0,1-17.33,7.65Zm-0.55-3.7H-16a7.24,7.24,0,0,1-.31,2h-1.6v-2Zm0-2.41h1.6a7.25,7.25,0,0,1,.31,2h-1.92v-2Zm0-2,0.21,0a1.53,1.53,0,0,1,.34.2,3.2,3.2,0,0,1,.89,1.29h-1.44V-0.42ZM-15.07.79c0.1,0.1.19,0.2,0.28,0.3h-1.16A5.21,5.21,0,0,0-16.22.48a3.75,3.75,0,0,0-.45-0.67A4.33,4.33,0,0,1-15.07.79Zm0.61,0.75a4,4,0,0,1,.64,2h-1.69a7.78,7.78,0,0,0-.29-2h1.34Zm-3.89-.44h-1.44c0.06-.14.12-0.28,0.19-0.41a2.8,2.8,0,0,1,.7-0.88,1.52,1.52,0,0,1,.34-0.2l0.21,0V1.09h0Zm0,2.41h-1.91a7.24,7.24,0,0,1,.31-2h1.6v2h0Zm0,2.41h-1.6a7.25,7.25,0,0,1-.31-2h1.92v2h0Zm0,2-0.21,0a1.52,1.52,0,0,1-.34-0.2,3.2,3.2,0,0,1-.89-1.29h1.44V7.87h0Zm-2.81-1.21c-0.1-.1-0.19-0.2-0.28-0.3h1.16A5.2,5.2,0,0,0-20,7a3.75,3.75,0,0,0,.45.67A4.33,4.33,0,0,1-21.15,6.66Zm-0.61-.75a4,4,0,0,1-.64-2h1.69a7.78,7.78,0,0,0,.29,2h-1.34Zm0-4.37h1.34a7.76,7.76,0,0,0-.29,2h-1.69A4,4,0,0,1-21.77,1.54Zm0.61-.75a4.33,4.33,0,0,1,1.6-1,4.3,4.3,0,0,0-.72,1.28h-1.16C-21.35,1-21.25.88-21.15,0.79Zm3-1.81A4.83,4.83,0,0,0-23,3.72a4.83,4.83,0,0,0,4.91,4.74A4.83,4.83,0,0,0-13.2,3.72,4.83,4.83,0,0,0-18.11-1Z"/></clipPath><clipPath id="clip-path-13"><ellipse class="cls-3" cx="6.67" cy="2.22" rx="1.78" ry="1.8"/></clipPath><clipPath id="clip-path-14"><rect class="cls-3" x="-153" y="-394.57" width="375" height="667"/></clipPath><clipPath id="clip-path-15"><ellipse class="cls-3" cx="2.75" cy="3.49" rx="1.32" ry="1.34"/></clipPath><clipPath id="clip-path-17"><path class="cls-1" d="M1,6.3v1A1.54,1.54,0,0,0,2.53,8.86H3.78v-3a1.87,1.87,0,0,1,.13-0.38,1.91,1.91,0,0,0-1.18-.37A1.7,1.7,0,0,0,1,6.3Z"/></clipPath><clipPath id="clip-path-19"><path class="cls-1" d="M4.34,6V8.59a0.84,0.84,0,0,0,.83.84h3A0.84,0.84,0,0,0,9,8.59V6A2.29,2.29,0,0,0,6.67,4.43,2.29,2.29,0,0,0,4.34,6Z"/></clipPath></defs><title>icon</title><path class="cls-12" d="M-104.47,1.24h0.62a1.28,1.28,0,0,1,.42.95,1.28,1.28,0,0,1-.47,1h-0.83a0.29,0.29,0,0,0-.29.29,0.29,0.29,0,0,0,.29.29h0.52a1,1,0,0,1,.22.68,1.28,1.28,0,0,1-.47,1h-0.8a0.29,0.29,0,0,0-.29.29,0.29,0.29,0,0,0,.29.29H-105a1.23,1.23,0,0,1,0,.34A1.28,1.28,0,0,1-106,7.62l-0.8.12a12.4,12.4,0,0,1-1.73.11l-1.53,0A12.83,12.83,0,0,1-114.47,7c-2.58-1.31-2.58-5.6-.78-7.42,1-1,2-1.67,2.78-2.66,1.28-1.53,2.52-3.34,2.65-4.13a1.25,1.25,0,0,1,1.13-1.2,1.21,1.21,0,0,1,1.08.94,4.55,4.55,0,0,1-.27,3.17c-0.23.63-1.47,1.65-.71,2.47a2,2,0,0,0,1.35.42h2.73a1.28,1.28,0,0,1,1.27,1.29,1.05,1.05,0,0,1-.39.77h-0.82a0.29,0.29,0,0,0-.29.29A0.29,0.29,0,0,0-104.47,1.24Z"/><g class="cls-13"><rect class="cls-14" x="-138.39" y="-494.28" width="375" height="667"/></g><g class="cls-18"><g class="cls-19"><rect class="cls-20" x="-0.11" y="-4.57" width="13.55" height="13.59"/></g></g><g class="cls-21"><g class="cls-19"><rect class="cls-20" x="-3.57" y="-2.85" width="12.65" height="12.68"/></g></g><g class="cls-22"><g class="cls-19"><rect class="cls-20" x="-4" y="0.13" width="12.92" height="13.72"/></g></g><g class="cls-23"><g class="cls-19"><rect class="cls-20" x="-0.66" y="-0.57" width="14.66" height="15"/></g></g></svg>