<svg id="レイヤー_1" data-name="レイヤー 1" xmlns="http://www.w3.org/2000/svg" xmlns:xlink="http://www.w3.org/1999/xlink" viewBox="0 0 48 36"><defs><style>.cls-1,.cls-2{fill:none;}.cls-1,.cls-3{clip-rule:evenodd;}.cls-15,.cls-17,.cls-3{fill:#a4aab3;}.cls-4{clip-path:url(#clip-path);}.cls-5{clip-path:url(#clip-path-2);}.cls-6{clip-path:url(#clip-path-3);}.cls-7{clip-path:url(#clip-path-4);}.cls-8{clip-path:url(#clip-path-5);}.cls-9{clip-path:url(#clip-path-6);}.cls-10{clip-path:url(#clip-path-7);}.cls-11{clip-path:url(#clip-path-8);}.cls-12{fill:#f99494;}.cls-13{clip-path:url(#clip-path-9);}.cls-14{clip-path:url(#clip-path-10);}.cls-15{fill-rule:evenodd;}.cls-16{clip-path:url(#clip-path-11);}.cls-18{clip-path:url(#clip-path-12);}.cls-19{clip-path:url(#clip-path-13);}.cls-20{clip-path:url(#clip-path-14);}.cls-21{clip-path:url(#clip-path-15);}.cls-22{clip-path:url(#clip-path-16);}.cls-23{clip-path:url(#clip-path-17);}</style><clipPath id="clip-path"><path class="cls-1" d="M-195.57,4.5a1.77,1.77,0,0,1,1.35-.79,1.77,1.77,0,0,1,1.45.59l1.15,1.3A2.19,2.19,0,0,0-188,5.34l4-6.1a1.77,1.77,0,0,1,1.47-.79A1.77,1.77,0,0,1-181-.77L-173.85,10c0.91,1.38.31,2.49-1.34,2.49h-22.66c-1.66,0-2.25-1.13-1.35-2.5Zm1.87-12.16a3.57,3.57,0,0,1,3.58,3.56A3.57,3.57,0,0,1-193.7-.54a3.57,3.57,0,0,1-3.58-3.56A3.57,3.57,0,0,1-193.7-7.66Zm-10.82,19.79a5,5,0,0,0,5,5h26a5,5,0,0,0,5-5V-6.13a5,5,0,0,0-5-5h-26a5,5,0,0,0-5,5V12.13Z"/></clipPath><clipPath id="clip-path-2"><path class="cls-1" d="M-142.53-5.43a1.83,1.83,0,0,0,1.83-1.84v-2.89A1.83,1.83,0,0,0-142.53-12a1.83,1.83,0,0,0-1.83,1.84v2.89A1.83,1.83,0,0,0-142.53-5.43Z"/></clipPath><clipPath id="clip-path-3"><path class="cls-1" d="M-129.05-5.43a1.83,1.83,0,0,0,1.83-1.84v-2.89A1.83,1.83,0,0,0-129.05-12a1.83,1.83,0,0,0-1.83,1.84v2.89A1.83,1.83,0,0,0-129.05-5.43Z"/></clipPath><clipPath id="clip-path-4"><path class="cls-1" d="M-126.85,13.39h-18.78a1.85,1.85,0,0,1-1.88-1.81v-12H-125v12A1.85,1.85,0,0,1-126.85,13.39Zm1.23-22.77v2.11a3.45,3.45,0,0,1-3.43,3.46,3.45,3.45,0,0,1-3.44-3.46V-9.38h-6.61v2.11a3.45,3.45,0,0,1-3.43,3.46A3.45,3.45,0,0,1-146-7.27V-9.38h-1.13A4.42,4.42,0,0,0-151.5-5V13.57A4.42,4.42,0,0,0-147.1,18h22.61a4.42,4.42,0,0,0,4.4-4.43V-5a4.42,4.42,0,0,0-4.4-4.43h-1.13Z"/></clipPath><clipPath id="clip-path-5"><path class="cls-1" d="M-29.47-62.4a1.9,1.9,0,0,0-1.89-1.91,1.9,1.9,0,0,0-1.89,1.91,1.92,1.92,0,0,0,.53,1.33c-1.28,2.7-3.74,3.64-5.64,2.78C-40-59-40.67-61.22-40.88-62.9a2.21,2.21,0,0,0,1.16-1.95A2.19,2.19,0,0,0-41.89-67a2.19,2.19,0,0,0-2.17,2.2A2.2,2.2,0,0,0-42.9-62.9c-0.21,1.68-.84,3.85-2.53,4.61-1.9.85-4.35-.09-5.64-2.78a1.92,1.92,0,0,0,.53-1.33,1.9,1.9,0,0,0-1.89-1.91,1.9,1.9,0,0,0-1.89,1.91,1.9,1.9,0,0,0,1.64,1.9L-50-50.29h16.15l2.71-10.21A1.9,1.9,0,0,0-29.47-62.4Z"/></clipPath><clipPath id="clip-path-6"><path class="cls-1" d="M-10.23,5.91a3.4,3.4,0,0,0-3.37,3.42,3.43,3.43,0,0,0,.95,2.38c-2.29,4.82-6.68,6.5-10.08,5-3-1.36-4.14-5.24-4.52-8.25A3.94,3.94,0,0,0-25.18,5,3.91,3.91,0,0,0-29.06,1,3.91,3.91,0,0,0-32.94,5a3.94,3.94,0,0,0,2.08,3.48c-0.38,3-1.5,6.89-4.52,8.25-3.4,1.52-7.78-.16-10.08-5a3.44,3.44,0,0,0,.95-2.38A3.4,3.4,0,0,0-47.9,5.91a3.4,3.4,0,0,0-3.37,3.42,3.4,3.4,0,0,0,2.93,3.39L-43.5,31h28.87l4.84-18.25A3.4,3.4,0,0,0-6.86,9.33,3.4,3.4,0,0,0-10.23,5.91Z"/></clipPath><clipPath id="clip-path-7"><path class="cls-1" d="M42.83,7.91a3.43,3.43,0,0,0-2.42,5.8c-2.29,4.82-6.68,6.5-10.08,5-3-1.36-4.14-5.24-4.52-8.25a3.88,3.88,0,1,0-3.61,0c-0.38,3-1.5,6.89-4.52,8.25-3.4,1.52-7.78-.16-10.08-5a3.44,3.44,0,0,0,.95-2.38,3.37,3.37,0,1,0-6.75,0,3.4,3.4,0,0,0,2.93,3.39L9.56,33H38.44l4.84-18.25A3.42,3.42,0,0,0,42.83,7.91Z"/></clipPath><clipPath id="clip-path-8"><rect class="cls-2" x="-11.2" y="-336.98" width="375" height="667"/></clipPath><clipPath id="clip-path-9"><path class="cls-1" d="M96.59,7.91a3.43,3.43,0,0,0-2.42,5.8c-2.29,4.82-6.68,6.5-10.08,5-3-1.36-4.14-5.24-4.52-8.25a3.88,3.88,0,1,0-3.61,0c-0.38,3-1.5,6.89-4.52,8.25-3.4,1.52-7.78-.16-10.08-5a3.44,3.44,0,0,0,.95-2.38,3.37,3.37,0,1,0-3.82,3.39L63.32,33H92.19L97,14.72A3.42,3.42,0,0,0,96.59,7.91Z"/></clipPath><clipPath id="clip-path-10"><path class="cls-1" d="M-193.7,69.34h0.62a1.28,1.28,0,0,1,.42.95,1.28,1.28,0,0,1-.47,1H-194a0.29,0.29,0,0,0-.29.29,0.29,0.29,0,0,0,.29.29h0.52a1,1,0,0,1,.22.68,1.28,1.28,0,0,1-.47,1h-0.8a0.29,0.29,0,0,0-.29.29,0.29,0.29,0,0,0,.29.29h0.23a1.23,1.23,0,0,1,0,.34,1.28,1.28,0,0,1-1.06,1.27l-0.8.12a12.4,12.4,0,0,1-1.73.11l-1.53,0a12.83,12.83,0,0,1-4.36-.81c-2.58-1.31-2.58-5.6-.78-7.42,1-1,2-1.67,2.78-2.66,1.28-1.53,2.52-3.34,2.65-4.13a1.25,1.25,0,0,1,1.13-1.2,1.21,1.21,0,0,1,1.08.94,4.55,4.55,0,0,1-.27,3.17c-0.23.63-1.47,1.65-.71,2.47a2,2,0,0,0,1.35.42h2.73A1.28,1.28,0,0,1-192.49,68a1.05,1.05,0,0,1-.39.77h-0.82A0.29,0.29,0,0,0-194,69,0.29,0.29,0,0,0-193.7,69.34Z"/></clipPath><clipPath id="clip-path-11"><path class="cls-3" d="M-165,69.34h0.62a1.28,1.28,0,0,1,.42.95,1.28,1.28,0,0,1-.47,1h-0.83a0.29,0.29,0,0,0-.29.29,0.29,0.29,0,0,0,.29.29h0.52a1,1,0,0,1,.22.68,1.28,1.28,0,0,1-.47,1h-0.8a0.29,0.29,0,0,0-.29.29,0.29,0.29,0,0,0,.29.29h0.23a1.23,1.23,0,0,1,0,.34,1.28,1.28,0,0,1-1.06,1.27l-0.8.12a12.4,12.4,0,0,1-1.73.11l-1.53,0A12.83,12.83,0,0,1-175,75.1c-2.58-1.31-2.58-5.6-.78-7.42,1-1,2-1.67,2.78-2.66,1.28-1.53,2.52-3.34,2.65-4.13a1.25,1.25,0,0,1,1.13-1.2,1.21,1.21,0,0,1,1.08.94,4.55,4.55,0,0,1-.27,3.17c-0.23.63-1.47,1.65-.71,2.47a2,2,0,0,0,1.35.42h2.73A1.28,1.28,0,0,1-163.8,68a1.05,1.05,0,0,1-.39.77H-165a0.29,0.29,0,0,0-.29.29A0.29,0.29,0,0,0-165,69.34Z"/></clipPath><clipPath id="clip-path-12"><path class="cls-1" d="M-135.18,67.89a1,1,0,0,1-1-1,1,1,0,0,1,1-1,1,1,0,0,1,1,1A1,1,0,0,1-135.18,67.89Zm-4.05,0a1,1,0,0,1-1-1,1,1,0,0,1,1-1,1,1,0,0,1,1,1A1,1,0,0,1-139.23,67.89Zm-4.05,0a1,1,0,0,1-1-1,1,1,0,0,1,1-1,1,1,0,0,1,1,1A1,1,0,0,1-143.29,67.89Zm4.09-8.07c-5.21,0-8.75,2.64-8.75,6.74a6.59,6.59,0,0,0,3.1,5.85c0.14,0.09.3,0.1,0.24,0.35-0.24,1-.67,2.81-0.67,2.81a0.2,0.2,0,0,0,.07.2,0.2,0.2,0,0,0,.22,0s3-1.76,3.39-2a4.58,4.58,0,0,1,2.33-.63c4.13,0,8.74-1.64,8.74-6.67C-130.52,62.62-133.69,59.82-139.19,59.82Z"/></clipPath><clipPath id="clip-path-13"><path class="cls-1" d="M-75,74h-1.34a7.76,7.76,0,0,0,.29-2h1.69A4,4,0,0,1-75,74Zm-0.61.75a4.32,4.32,0,0,1-1.6,1,4.31,4.31,0,0,0,.72-1.28h1.16C-75.43,74.56-75.52,74.66-75.62,74.75Zm-2.26,1a1.52,1.52,0,0,1-.34.2l-0.21,0V74.45H-77c-0.06.14-.12,0.28-0.19,0.41A2.8,2.8,0,0,1-77.88,75.74ZM-78.43,72h1.91a7.24,7.24,0,0,1-.31,2h-1.6V72Zm0-2.41h1.6a7.25,7.25,0,0,1,.31,2h-1.92v-2Zm0-2,0.21,0a1.53,1.53,0,0,1,.34.2A3.2,3.2,0,0,1-77,69.19h-1.44V67.67Zm2.81,1.21c0.1,0.1.19,0.2,0.28,0.3H-76.5a5.21,5.21,0,0,0-.27-0.62,3.75,3.75,0,0,0-.45-0.67A4.33,4.33,0,0,1-75.62,68.88ZM-75,69.63a4,4,0,0,1,.64,2h-1.69a7.78,7.78,0,0,0-.29-2H-75Zm-3.89-.44h-1.44c0.06-.14.12-0.28,0.19-0.41a2.8,2.8,0,0,1,.7-0.88,1.52,1.52,0,0,1,.34-0.2l0.21,0v1.51h0Zm0,2.41h-1.91a7.24,7.24,0,0,1,.31-2h1.6v2h0Zm0,2.41h-1.6a7.25,7.25,0,0,1-.31-2h1.92v2h0Zm0,2-0.21,0a1.52,1.52,0,0,1-.34-0.2,3.2,3.2,0,0,1-.89-1.29h1.44V76h0Zm-2.81-1.21c-0.1-.1-0.19-0.2-0.28-0.3h1.16a5.2,5.2,0,0,0,.27.62,3.75,3.75,0,0,0,.45.67A4.33,4.33,0,0,1-81.7,74.75ZM-82.32,74A4,4,0,0,1-83,72h1.69A7.78,7.78,0,0,0-81,74h-1.34Zm0-4.37H-81a7.76,7.76,0,0,0-.29,2H-83A4,4,0,0,1-82.32,69.63Zm0.61-.75a4.33,4.33,0,0,1,1.6-1,4.3,4.3,0,0,0-.72,1.28H-82C-81.9,69.08-81.8,69-81.7,68.88Zm3-1.81a4.83,4.83,0,0,0-4.91,4.74,4.83,4.83,0,0,0,4.91,4.74,4.83,4.83,0,0,0,4.91-4.74A4.83,4.83,0,0,0-78.66,67.07Z"/></clipPath><clipPath id="clip-path-14"><ellipse class="cls-2" cx="-53.88" cy="70.32" rx="1.78" ry="1.8"/></clipPath><clipPath id="clip-path-15"><ellipse class="cls-2" cx="-57.8" cy="71.58" rx="1.32" ry="1.34"/></clipPath><clipPath id="clip-path-16"><path class="cls-1" d="M-59.55,74.4v1A1.54,1.54,0,0,0-58,77h1.25V74a1.87,1.87,0,0,1,.13-0.38,1.91,1.91,0,0,0-1.18-.37A1.7,1.7,0,0,0-59.55,74.4Z"/></clipPath><clipPath id="clip-path-17"><path class="cls-1" d="M-56.21,74.1v2.58a0.84,0.84,0,0,0,.83.84h3a0.84,0.84,0,0,0,.83-0.84V74.1a2.29,2.29,0,0,0-2.33-1.57A2.29,2.29,0,0,0-56.21,74.1Z"/></clipPath></defs><title>icon</title><g class="cls-10"><g class="cls-11"><rect class="cls-12" x="-3.2" y="-1.98" width="54.41" height="39.95"/></g></g><path class="cls-15" d="M-165,69.34h0.62a1.28,1.28,0,0,1,.42.95,1.28,1.28,0,0,1-.47,1h-0.83a0.29,0.29,0,0,0-.29.29,0.29,0.29,0,0,0,.29.29h0.52a1,1,0,0,1,.22.68,1.28,1.28,0,0,1-.47,1h-0.8a0.29,0.29,0,0,0-.29.29,0.29,0.29,0,0,0,.29.29h0.23a1.23,1.23,0,0,1,0,.34,1.28,1.28,0,0,1-1.06,1.27l-0.8.12a12.4,12.4,0,0,1-1.73.11l-1.53,0A12.83,12.83,0,0,1-175,75.1c-2.58-1.31-2.58-5.6-.78-7.42,1-1,2-1.67,2.78-2.66,1.28-1.53,2.52-3.34,2.65-4.13a1.25,1.25,0,0,1,1.13-1.2,1.21,1.21,0,0,1,1.08.94,4.55,4.55,0,0,1-.27,3.17c-0.23.63-1.47,1.65-.71,2.47a2,2,0,0,0,1.35.42h2.73A1.28,1.28,0,0,1-163.8,68a1.05,1.05,0,0,1-.39.77H-165a0.29,0.29,0,0,0-.29.29A0.29,0.29,0,0,0-165,69.34Z"/><g class="cls-16"><rect class="cls-17" x="-198.94" y="-426.18" width="375" height="667"/></g></svg>