<svg id="レイヤー_1" data-name="レイヤー 1" xmlns="http://www.w3.org/2000/svg" xmlns:xlink="http://www.w3.org/1999/xlink" viewBox="0 0 18 18"><defs><style>.cls-1,.cls-3{fill:none;}.cls-1,.cls-2{clip-rule:evenodd;}.cls-10,.cls-12,.cls-2{fill:#a4aab3;}.cls-4{clip-path:url(#clip-path);}.cls-5{clip-path:url(#clip-path-2);}.cls-6{clip-path:url(#clip-path-3);}.cls-7{clip-path:url(#clip-path-4);}.cls-8{clip-path:url(#clip-path-5);}.cls-9{clip-path:url(#clip-path-6);}.cls-10{fill-rule:evenodd;}.cls-11{clip-path:url(#clip-path-7);}.cls-13{clip-path:url(#clip-path-8);}.cls-14{clip-path:url(#clip-path-9);}.cls-15{clip-path:url(#clip-path-10);}.cls-16{clip-path:url(#clip-path-11);}.cls-17{clip-path:url(#clip-path-12);}.cls-18{clip-path:url(#clip-path-13);}.cls-19{clip-path:url(#clip-path-14);}.cls-20{clip-path:url(#clip-path-15);}</style><clipPath id="clip-path"><path class="cls-1" d="M-47.34-54.32A1.77,1.77,0,0,1-46-55.1a1.77,1.77,0,0,1,1.45.59l1.15,1.3a2.19,2.19,0,0,0,3.64-.26l4-6.1a1.77,1.77,0,0,1,1.47-.79,1.77,1.77,0,0,1,1.48.79l7.14,10.75c0.91,1.38.31,2.49-1.34,2.49H-49.61c-1.66,0-2.25-1.13-1.35-2.5Zm1.87-12.16a3.57,3.57,0,0,1,3.58,3.56,3.57,3.57,0,0,1-3.58,3.56A3.57,3.57,0,0,1-49-62.92,3.57,3.57,0,0,1-45.47-66.48ZM-56.28-46.69a5,5,0,0,0,5,5h26a5,5,0,0,0,5-5V-64.95a5,5,0,0,0-5-5h-26a5,5,0,0,0-5,5v18.26Z"/></clipPath><clipPath id="clip-path-2"><path class="cls-1" d="M5.7-64.25a1.83,1.83,0,0,0,1.83-1.84V-69A1.83,1.83,0,0,0,5.7-70.82,1.83,1.83,0,0,0,3.87-69v2.89A1.83,1.83,0,0,0,5.7-64.25Z"/></clipPath><clipPath id="clip-path-3"><path class="cls-1" d="M19.18-64.25A1.83,1.83,0,0,0,21-66.09V-69a1.83,1.83,0,0,0-1.83-1.84A1.83,1.83,0,0,0,17.35-69v2.89A1.83,1.83,0,0,0,19.18-64.25Z"/></clipPath><clipPath id="clip-path-4"><path class="cls-1" d="M21.39-45.42H2.61A1.85,1.85,0,0,1,.73-47.23v-12H23.26v12A1.85,1.85,0,0,1,21.39-45.42ZM22.62-68.2v2.11a3.45,3.45,0,0,1-3.43,3.46,3.45,3.45,0,0,1-3.44-3.46V-68.2H9.13v2.11A3.45,3.45,0,0,1,5.7-62.63a3.45,3.45,0,0,1-3.44-3.46V-68.2H1.13a4.42,4.42,0,0,0-4.4,4.43v18.52a4.42,4.42,0,0,0,4.4,4.43H23.75a4.42,4.42,0,0,0,4.4-4.43V-63.77a4.42,4.42,0,0,0-4.4-4.43H22.62Z"/></clipPath><clipPath id="clip-path-5"><path class="cls-1" d="M64.38-55.68a1.93,1.93,0,0,1-1.93-1.93,1.93,1.93,0,0,1,1.93-1.93,1.93,1.93,0,0,1,1.93,1.93A1.93,1.93,0,0,1,64.38-55.68Zm-7.54,0a1.93,1.93,0,0,1-1.93-1.93,1.93,1.93,0,0,1,1.93-1.93,1.93,1.93,0,0,1,1.93,1.93A1.93,1.93,0,0,1,56.84-55.68Zm-7.54,0a1.93,1.93,0,0,1-1.93-1.93,1.93,1.93,0,0,1,1.93-1.93,1.93,1.93,0,0,1,1.93,1.93A1.93,1.93,0,0,1,49.3-55.68Zm7.61-15.13c-9.7,0-16.28,4.95-16.28,12.64a12.38,12.38,0,0,0,5.77,11C46.65-47,47-47,46.84-46.55c-0.45,1.9-1.24,5.27-1.24,5.27a0.37,0.37,0,0,0,.14.38,0.37,0.37,0,0,0,.4,0s5.56-3.3,6.31-3.71a8.48,8.48,0,0,1,4.34-1.18c7.69,0,16.27-3.08,16.27-12.51C73.05-65.57,67.16-70.82,56.91-70.82Z"/></clipPath><clipPath id="clip-path-6"><path class="cls-1" d="M-45.47,10.52h0.62a1.28,1.28,0,0,1,.42.95,1.28,1.28,0,0,1-.47,1h-0.83a0.29,0.29,0,0,0-.29.29,0.29,0.29,0,0,0,.29.29h0.52a1,1,0,0,1,.22.68,1.28,1.28,0,0,1-.47,1h-0.8a0.29,0.29,0,0,0-.29.29,0.29,0.29,0,0,0,.29.29H-46a1.23,1.23,0,0,1,0,.34A1.28,1.28,0,0,1-47,16.9l-0.8.12a12.4,12.4,0,0,1-1.73.11l-1.53,0a12.83,12.83,0,0,1-4.36-.81c-2.58-1.31-2.58-5.6-.78-7.42,1-1,2-1.67,2.78-2.66C-52.2,4.67-51,2.86-50.83,2.07A1.25,1.25,0,0,1-49.7.87a1.21,1.21,0,0,1,1.08.94A4.55,4.55,0,0,1-48.89,5c-0.23.63-1.47,1.65-.71,2.47a2,2,0,0,0,1.35.42h2.73a1.28,1.28,0,0,1,1.27,1.29,1.05,1.05,0,0,1-.39.77h-0.82a0.29,0.29,0,0,0-.29.29A0.29,0.29,0,0,0-45.47,10.52Z"/></clipPath><clipPath id="clip-path-7"><path class="cls-2" d="M-16.78,10.52h0.62a1.28,1.28,0,0,1,.42.95,1.28,1.28,0,0,1-.47,1h-0.83a0.29,0.29,0,0,0-.29.29,0.29,0.29,0,0,0,.29.29h0.52a1,1,0,0,1,.22.68,1.28,1.28,0,0,1-.47,1h-0.8a0.29,0.29,0,0,0-.29.29,0.29,0.29,0,0,0,.29.29h0.23a1.23,1.23,0,0,1,0,.34,1.28,1.28,0,0,1-1.06,1.27l-0.8.12a12.4,12.4,0,0,1-1.73.11l-1.53,0a12.83,12.83,0,0,1-4.36-.81c-2.58-1.31-2.58-5.6-.78-7.42,1-1,2-1.67,2.78-2.66,1.28-1.53,2.52-3.34,2.65-4.13A1.25,1.25,0,0,1-21,.87a1.21,1.21,0,0,1,1.08.94A4.55,4.55,0,0,1-20.21,5c-0.23.63-1.47,1.65-.71,2.47a2,2,0,0,0,1.35.42h2.73a1.28,1.28,0,0,1,1.27,1.29,1.05,1.05,0,0,1-.39.77h-0.82a0.29,0.29,0,0,0-.29.29A0.29,0.29,0,0,0-16.78,10.52Z"/></clipPath><clipPath id="clip-path-8"><path class="cls-1" d="M13.05,9.07a1,1,0,1,1,1-1A1,1,0,0,1,13.05,9.07ZM9,9.07a1,1,0,1,1,1-1A1,1,0,0,1,9,9.07Zm-4.05,0A1,1,0,1,1,6,8,1,1,0,0,1,4.95,9.07ZM9,1C3.83,1,.29,3.64.29,7.74a6.59,6.59,0,0,0,3.1,5.85c0.14,0.09.3,0.1,0.24,0.35C3.38,15,3,16.76,3,16.76A0.2,0.2,0,0,0,3,17a0.2,0.2,0,0,0,.22,0s3-1.76,3.39-2A4.58,4.58,0,0,1,9,14.37c4.13,0,8.74-1.64,8.74-6.67C17.71,3.8,14.55,1,9,1Z"/></clipPath><clipPath id="clip-path-9"><rect class="cls-3" x="-138.71" y="-326" width="375" height="667"/></clipPath><clipPath id="clip-path-10"><path class="cls-1" d="M46.11,8.17l-7.38-6V5.21c-7.19.06-9.86,5.46-9,10.66,1.57-3.23,4.84-4.51,9-4.65v3Z"/></clipPath><clipPath id="clip-path-11"><path class="cls-1" d="M73.22,15.19H71.88a7.76,7.76,0,0,0,.29-2h1.69A4,4,0,0,1,73.22,15.19Zm-0.61.75a4.32,4.32,0,0,1-1.6,1,4.31,4.31,0,0,0,.72-1.28h1.16C72.8,15.74,72.71,15.84,72.61,15.94Zm-2.26,1a1.52,1.52,0,0,1-.34.2l-0.21,0V15.63h1.44c-0.06.14-.12,0.28-0.19,0.41A2.8,2.8,0,0,1,70.35,16.93Zm-0.55-3.7h1.91a7.24,7.24,0,0,1-.31,2H69.8v-2Zm0-2.41h1.6a7.25,7.25,0,0,1,.31,2H69.8v-2Zm0-2,0.21,0a1.53,1.53,0,0,1,.34.2,3.2,3.2,0,0,1,.89,1.29H69.8V8.85Zm2.81,1.21c0.1,0.1.19,0.2,0.28,0.3H71.73a5.21,5.21,0,0,0-.27-0.62A3.75,3.75,0,0,0,71,9.09,4.33,4.33,0,0,1,72.61,10.06Zm0.61,0.75a4,4,0,0,1,.64,2H72.17a7.78,7.78,0,0,0-.29-2h1.34Zm-3.89-.44H67.9C68,10.22,68,10.08,68.09,10a2.8,2.8,0,0,1,.7-0.88,1.52,1.52,0,0,1,.34-0.2l0.21,0v1.51h0Zm0,2.41H67.43a7.24,7.24,0,0,1,.31-2h1.6v2h0Zm0,2.41h-1.6a7.25,7.25,0,0,1-.31-2h1.92v2h0Zm0,2-0.21,0a1.52,1.52,0,0,1-.34-0.2,3.2,3.2,0,0,1-.89-1.29h1.44v1.51h0Zm-2.81-1.21c-0.1-.1-0.19-0.2-0.28-0.3h1.16a5.2,5.2,0,0,0,.27.62,3.75,3.75,0,0,0,.45.67A4.33,4.33,0,0,1,66.53,15.94Zm-0.61-.75a4,4,0,0,1-.64-2H67a7.78,7.78,0,0,0,.29,2H65.91Zm0-4.37h1.34a7.76,7.76,0,0,0-.29,2H65.28A4,4,0,0,1,65.91,10.81Zm0.61-.75a4.33,4.33,0,0,1,1.6-1,4.3,4.3,0,0,0-.72,1.28H66.24C66.33,10.26,66.43,10.16,66.53,10.06Zm3-1.81A4.83,4.83,0,0,0,64.65,13a4.92,4.92,0,0,0,9.83,0A4.83,4.83,0,0,0,69.57,8.26Z"/></clipPath><clipPath id="clip-path-12"><ellipse class="cls-3" cx="94.35" cy="11.5" rx="1.78" ry="1.8"/></clipPath><clipPath id="clip-path-13"><ellipse class="cls-3" cx="90.43" cy="12.76" rx="1.32" ry="1.34"/></clipPath><clipPath id="clip-path-14"><path class="cls-1" d="M88.68,15.58v1a1.54,1.54,0,0,0,1.53,1.54h1.25v-3a1.87,1.87,0,0,1,.13-0.38,1.91,1.91,0,0,0-1.18-.37A1.7,1.7,0,0,0,88.68,15.58Z"/></clipPath><clipPath id="clip-path-15"><path class="cls-1" d="M92,15.28v2.58a0.84,0.84,0,0,0,.83.84h3a0.84,0.84,0,0,0,.83-0.84V15.28A2.51,2.51,0,0,0,92,15.28Z"/></clipPath></defs><title>icon</title><path class="cls-10" d="M-16.78,10.52h0.62a1.28,1.28,0,0,1,.42.95,1.28,1.28,0,0,1-.47,1h-0.83a0.29,0.29,0,0,0-.29.29,0.29,0.29,0,0,0,.29.29h0.52a1,1,0,0,1,.22.68,1.28,1.28,0,0,1-.47,1h-0.8a0.29,0.29,0,0,0-.29.29,0.29,0.29,0,0,0,.29.29h0.23a1.23,1.23,0,0,1,0,.34,1.28,1.28,0,0,1-1.06,1.27l-0.8.12a12.4,12.4,0,0,1-1.73.11l-1.53,0a12.83,12.83,0,0,1-4.36-.81c-2.58-1.31-2.58-5.6-.78-7.42,1-1,2-1.67,2.78-2.66,1.28-1.53,2.52-3.34,2.65-4.13A1.25,1.25,0,0,1-21,.87a1.21,1.21,0,0,1,1.08.94A4.55,4.55,0,0,1-20.21,5c-0.23.63-1.47,1.65-.71,2.47a2,2,0,0,0,1.35.42h2.73a1.28,1.28,0,0,1,1.27,1.29,1.05,1.05,0,0,1-.39.77h-0.82a0.29,0.29,0,0,0-.29.29A0.29,0.29,0,0,0-16.78,10.52Z"/><g class="cls-11"><rect class="cls-12" x="-50.7" y="-485" width="375" height="667"/></g><g class="cls-13"><g class="cls-14"><rect class="cls-12" x="-4.71" y="-4" width="27.42" height="26"/></g></g></svg>