<svg id="レイヤー_1" data-name="レイヤー 1" xmlns="http://www.w3.org/2000/svg" xmlns:xlink="http://www.w3.org/1999/xlink" viewBox="0 0 18 18"><defs><style>.cls-1,.cls-2{fill:none;}.cls-1,.cls-3{clip-rule:evenodd;}.cls-14,.cls-16,.cls-3{fill:#a4aab3;}.cls-4{clip-path:url(#clip-path);}.cls-5{clip-path:url(#clip-path-2);}.cls-6{clip-path:url(#clip-path-3);}.cls-7{clip-path:url(#clip-path-4);}.cls-8{clip-path:url(#clip-path-5);}.cls-9{clip-path:url(#clip-path-6);}.cls-10{clip-path:url(#clip-path-7);}.cls-11{clip-path:url(#clip-path-8);}.cls-12{clip-path:url(#clip-path-9);}.cls-13{fill:#f5a623;}.cls-14{fill-rule:evenodd;}.cls-15{clip-path:url(#clip-path-10);}.cls-17{clip-path:url(#clip-path-11);}.cls-18{clip-path:url(#clip-path-12);}.cls-19{clip-path:url(#clip-path-13);}.cls-20{clip-path:url(#clip-path-14);}.cls-21{clip-path:url(#clip-path-15);}.cls-22{clip-path:url(#clip-path-16);}.cls-23{clip-path:url(#clip-path-17);}</style><clipPath id="clip-path"><path class="cls-1" d="M36.45-97.88l2.76,2.81,0.44-.44a1.66,1.66,0,0,0,.09-2.21l-0.29-.35L39-98.44a1.57,1.57,0,0,0-2.16.12ZM36-97.31l-9.45,9.63s-1.47,2.27-.83,3.29,3.4-.65,3.4-0.65l9.62-9.51-1-1-1-1Z"/></clipPath><clipPath id="clip-path-2"><path class="cls-1" d="M32.54-95.33H17.8a1,1,0,0,0-1,1v18a1,1,0,0,0,1,1h18a1,1,0,0,0,1-1V-91.22l-2,2v10.84a1,1,0,0,1-1,1h-14a1,1,0,0,1-1-1v-14a1,1,0,0,1,1-1H30.58Z"/></clipPath><clipPath id="clip-path-3"><path class="cls-1" d="M12.55-54.32a1.77,1.77,0,0,1,1.35-.79,1.77,1.77,0,0,1,1.45.59l1.15,1.3a2.19,2.19,0,0,0,3.64-.26l4-6.1a1.77,1.77,0,0,1,1.47-.79,1.77,1.77,0,0,1,1.48.79l7.14,10.75c0.91,1.38.31,2.49-1.34,2.49H10.27c-1.66,0-2.25-1.13-1.35-2.5Zm1.87-12.16A3.57,3.57,0,0,1,18-62.92a3.57,3.57,0,0,1-3.58,3.56,3.57,3.57,0,0,1-3.58-3.56A3.57,3.57,0,0,1,14.42-66.48ZM3.6-46.69a5,5,0,0,0,5,5h26a5,5,0,0,0,5-5V-64.95a5,5,0,0,0-5-5h-26a5,5,0,0,0-5,5v18.26Z"/></clipPath><clipPath id="clip-path-4"><path class="cls-1" d="M65.58-64.25a1.83,1.83,0,0,0,1.83-1.84V-69a1.83,1.83,0,0,0-1.83-1.84A1.83,1.83,0,0,0,63.76-69v2.89A1.83,1.83,0,0,0,65.58-64.25Z"/></clipPath><clipPath id="clip-path-5"><path class="cls-1" d="M79.07-64.25a1.83,1.83,0,0,0,1.83-1.84V-69a1.83,1.83,0,0,0-1.83-1.84A1.83,1.83,0,0,0,77.24-69v2.89A1.83,1.83,0,0,0,79.07-64.25Z"/></clipPath><clipPath id="clip-path-6"><path class="cls-1" d="M81.27-45.42H62.49a1.85,1.85,0,0,1-1.88-1.81v-12H83.15v12A1.85,1.85,0,0,1,81.27-45.42ZM82.5-68.2v2.11a3.45,3.45,0,0,1-3.43,3.46,3.45,3.45,0,0,1-3.44-3.46V-68.2H69v2.11a3.45,3.45,0,0,1-3.43,3.46,3.45,3.45,0,0,1-3.44-3.46V-68.2H61a4.42,4.42,0,0,0-4.4,4.43v18.52A4.42,4.42,0,0,0,61-40.82H83.63A4.42,4.42,0,0,0,88-45.25V-63.77a4.42,4.42,0,0,0-4.4-4.43H82.5Z"/></clipPath><clipPath id="clip-path-7"><path class="cls-1" d="M124.27-55.68a1.93,1.93,0,0,1-1.93-1.93,1.93,1.93,0,0,1,1.93-1.93,1.93,1.93,0,0,1,1.93,1.93A1.93,1.93,0,0,1,124.27-55.68Zm-7.54,0a1.93,1.93,0,0,1-1.93-1.93,1.93,1.93,0,0,1,1.93-1.93,1.93,1.93,0,0,1,1.93,1.93A1.93,1.93,0,0,1,116.73-55.68Zm-7.54,0a1.93,1.93,0,0,1-1.93-1.93,1.93,1.93,0,0,1,1.93-1.93,1.93,1.93,0,0,1,1.93,1.93A1.93,1.93,0,0,1,109.18-55.68Zm7.61-15.13c-9.7,0-16.28,4.95-16.28,12.64a12.38,12.38,0,0,0,5.77,11c0.25,0.16.55,0.19,0.44,0.66-0.45,1.9-1.24,5.27-1.24,5.27a0.37,0.37,0,0,0,.14.38,0.37,0.37,0,0,0,.4,0s5.56-3.3,6.31-3.71a8.48,8.48,0,0,1,4.34-1.18c7.69,0,16.27-3.08,16.27-12.51C132.94-65.57,127-70.82,116.8-70.82Z"/></clipPath><clipPath id="clip-path-8"><path class="cls-1" d="M14.42,10.52H15A1.29,1.29,0,0,1,15,12.46H14.15a0.29,0.29,0,0,0,0,.58h0.52a1,1,0,0,1,.22.68,1.28,1.28,0,0,1-.47,1h-0.8a0.29,0.29,0,0,0,0,.58h0.23a1.23,1.23,0,0,1,0,.34,1.28,1.28,0,0,1-1.06,1.27L12,17a12.4,12.4,0,0,1-1.73.11l-1.53,0a12.83,12.83,0,0,1-4.36-.81C1.83,15,1.83,10.68,3.63,8.85c1-1,2-1.67,2.78-2.66C7.68,4.67,8.93,2.86,9.06,2.07A1.25,1.25,0,0,1,10.18.87a1.21,1.21,0,0,1,1.08.94A4.55,4.55,0,0,1,11,5c-0.23.63-1.47,1.65-.71,2.47a2,2,0,0,0,1.35.42h2.73a1.28,1.28,0,0,1,1.27,1.29,1.05,1.05,0,0,1-.39.77H14.42A0.29,0.29,0,0,0,14.42,10.52Z"/></clipPath><clipPath id="clip-path-9"><rect class="cls-2" x="-19.5" y="-485" width="375" height="667"/></clipPath><clipPath id="clip-path-10"><path class="cls-3" d="M43.1,10.52h0.62a1.29,1.29,0,0,1-.06,1.94H42.83a0.29,0.29,0,0,0,0,.58h0.52a1,1,0,0,1,.22.68,1.28,1.28,0,0,1-.47,1h-0.8a0.29,0.29,0,0,0,0,.58h0.23a1.23,1.23,0,0,1,0,.34,1.28,1.28,0,0,1-1.06,1.27l-0.8.12a12.4,12.4,0,0,1-1.73.11l-1.53,0a12.83,12.83,0,0,1-4.36-.81c-2.58-1.31-2.58-5.6-.78-7.42,1-1,2-1.67,2.78-2.66,1.28-1.53,2.52-3.34,2.65-4.13A1.25,1.25,0,0,1,38.87.87a1.21,1.21,0,0,1,1.08.94A4.55,4.55,0,0,1,39.68,5c-0.23.63-1.47,1.65-.71,2.47a2,2,0,0,0,1.35.42H43a1.28,1.28,0,0,1,1.27,1.29,1.05,1.05,0,0,1-.39.77H43.1A0.29,0.29,0,0,0,43.1,10.52Z"/></clipPath><clipPath id="clip-path-11"><path class="cls-1" d="M72.94,9.07a1,1,0,1,1,1-1A1,1,0,0,1,72.94,9.07Zm-4.05,0a1,1,0,1,1,1-1A1,1,0,0,1,68.89,9.07Zm-4.05,0a1,1,0,1,1,1-1A1,1,0,0,1,64.83,9.07ZM68.92,1c-5.21,0-8.75,2.64-8.75,6.74a6.59,6.59,0,0,0,3.1,5.85c0.14,0.09.3,0.1,0.24,0.35-0.24,1-.67,2.81-0.67,2.81a0.2,0.2,0,0,0,.07.2,0.2,0.2,0,0,0,.22,0s3-1.76,3.39-2a4.58,4.58,0,0,1,2.33-.63c4.13,0,8.74-1.64,8.74-6.67C77.6,3.8,74.43,1,68.92,1Z"/></clipPath><clipPath id="clip-path-12"><path class="cls-1" d="M106,8.17l-7.38-6V5.21c-7.19.06-9.86,5.46-9,10.66,1.57-3.23,4.84-4.51,9-4.65v3Z"/></clipPath><clipPath id="clip-path-13"><path class="cls-1" d="M133.11,15.19h-1.34a7.76,7.76,0,0,0,.29-2h1.69A4,4,0,0,1,133.11,15.19Zm-0.61.75a4.32,4.32,0,0,1-1.6,1,4.31,4.31,0,0,0,.72-1.28h1.16C132.69,15.74,132.6,15.84,132.5,15.94Zm-2.26,1a1.52,1.52,0,0,1-.34.2l-0.21,0V15.63h1.44c-0.06.14-.12,0.28-0.19,0.41A2.8,2.8,0,0,1,130.24,16.93Zm-0.55-3.7h1.91a7.24,7.24,0,0,1-.31,2h-1.6v-2Zm0-2.41h1.6a7.25,7.25,0,0,1,.31,2h-1.92v-2Zm0-2,0.21,0a1.53,1.53,0,0,1,.34.2,3.2,3.2,0,0,1,.89,1.29h-1.44V8.85Zm2.81,1.21c0.1,0.1.19,0.2,0.28,0.3h-1.16a5.21,5.21,0,0,0-.27-0.62,3.75,3.75,0,0,0-.45-0.67A4.33,4.33,0,0,1,132.5,10.06Zm0.61,0.75a4,4,0,0,1,.64,2h-1.69a7.78,7.78,0,0,0-.29-2h1.34Zm-3.89-.44h-1.44c0.06-.14.12-0.28,0.19-0.41a2.8,2.8,0,0,1,.7-0.88,1.52,1.52,0,0,1,.34-0.2l0.21,0v1.51h0Zm0,2.41h-1.91a7.24,7.24,0,0,1,.31-2h1.6v2h0Zm0,2.41h-1.6a7.25,7.25,0,0,1-.31-2h1.92v2h0Zm0,2-0.21,0a1.52,1.52,0,0,1-.34-0.2,3.2,3.2,0,0,1-.89-1.29h1.44v1.51h0Zm-2.81-1.21c-0.1-.1-0.19-0.2-0.28-0.3h1.16a5.2,5.2,0,0,0,.27.62,3.75,3.75,0,0,0,.45.67A4.33,4.33,0,0,1,126.41,15.94Zm-0.61-.75a4,4,0,0,1-.64-2h1.69a7.78,7.78,0,0,0,.29,2H125.8Zm0-4.37h1.34a7.76,7.76,0,0,0-.29,2h-1.69A4,4,0,0,1,125.8,10.81Zm0.61-.75a4.33,4.33,0,0,1,1.6-1,4.3,4.3,0,0,0-.72,1.28h-1.16C126.22,10.26,126.31,10.16,126.41,10.06Zm3-1.81A4.83,4.83,0,0,0,124.54,13a4.92,4.92,0,0,0,9.83,0A4.83,4.83,0,0,0,129.46,8.26Z"/></clipPath><clipPath id="clip-path-14"><ellipse class="cls-2" cx="154.24" cy="11.5" rx="1.78" ry="1.8"/></clipPath><clipPath id="clip-path-15"><ellipse class="cls-2" cx="150.32" cy="12.76" rx="1.32" ry="1.34"/></clipPath><clipPath id="clip-path-16"><path class="cls-1" d="M148.57,15.58v1a1.54,1.54,0,0,0,1.53,1.54h1.25v-3a1.87,1.87,0,0,1,.13-0.38,1.91,1.91,0,0,0-1.18-.37A1.7,1.7,0,0,0,148.57,15.58Z"/></clipPath><clipPath id="clip-path-17"><path class="cls-1" d="M151.91,15.28v2.58a0.84,0.84,0,0,0,.83.84h3a0.84,0.84,0,0,0,.83-0.84V15.28A2.51,2.51,0,0,0,151.91,15.28Z"/></clipPath></defs><title>icon</title><g class="cls-11"><g class="cls-12"><rect class="cls-13" x="-2.63" y="-4.13" width="23.27" height="26.26"/></g></g><path class="cls-14" d="M43.1,10.52h0.62a1.29,1.29,0,0,1-.06,1.94H42.83a0.29,0.29,0,0,0,0,.58h0.52a1,1,0,0,1,.22.68,1.28,1.28,0,0,1-.47,1h-0.8a0.29,0.29,0,0,0,0,.58h0.23a1.23,1.23,0,0,1,0,.34,1.28,1.28,0,0,1-1.06,1.27l-0.8.12a12.4,12.4,0,0,1-1.73.11l-1.53,0a12.83,12.83,0,0,1-4.36-.81c-2.58-1.31-2.58-5.6-.78-7.42,1-1,2-1.67,2.78-2.66,1.28-1.53,2.52-3.34,2.65-4.13A1.25,1.25,0,0,1,38.87.87a1.21,1.21,0,0,1,1.08.94A4.55,4.55,0,0,1,39.68,5c-0.23.63-1.47,1.65-.71,2.47a2,2,0,0,0,1.35.42H43a1.28,1.28,0,0,1,1.27,1.29,1.05,1.05,0,0,1-.39.77H43.1A0.29,0.29,0,0,0,43.1,10.52Z"/><g class="cls-15"><rect class="cls-16" x="9.18" y="-485" width="375" height="667"/></g></svg>