<svg id="レイヤー_1" data-name="レイヤー 1" xmlns="http://www.w3.org/2000/svg" xmlns:xlink="http://www.w3.org/1999/xlink" viewBox="0 0 38 30"><defs><style>.cls-1,.cls-2{fill:none;}.cls-1,.cls-3{clip-rule:evenodd;}.cls-15,.cls-17,.cls-3{fill:#a4aab3;}.cls-4{clip-path:url(#clip-path);}.cls-5{clip-path:url(#clip-path-2);}.cls-6{fill:#f5a623;}.cls-7{clip-path:url(#clip-path-3);}.cls-8{clip-path:url(#clip-path-4);}.cls-9{clip-path:url(#clip-path-5);}.cls-10{fill:#fff;}.cls-11{clip-path:url(#clip-path-6);}.cls-12{clip-path:url(#clip-path-8);}.cls-13{clip-path:url(#clip-path-10);}.cls-14{clip-path:url(#clip-path-11);}.cls-15{fill-rule:evenodd;}.cls-16{clip-path:url(#clip-path-12);}.cls-18{clip-path:url(#clip-path-13);}.cls-19{clip-path:url(#clip-path-14);}.cls-20{clip-path:url(#clip-path-15);}.cls-21{clip-path:url(#clip-path-16);}.cls-22{clip-path:url(#clip-path-17);}.cls-23{clip-path:url(#clip-path-18);}.cls-24{clip-path:url(#clip-path-19);}</style><clipPath id="clip-path"><path class="cls-1" d="M6.24-10.9a6.69,6.69,0,0,0,6.69-6.69,6.69,6.69,0,0,0-6.69-6.69A6.69,6.69,0,0,0-.45-17.59,6.69,6.69,0,0,0,6.24-10.9Zm4.83,1.25a9.47,9.47,0,0,1-5,1.42,9.52,9.52,0,0,1-9.52-9.52,9.52,9.52,0,0,1,9.52-9.52,9.52,9.52,0,0,1,9.52,9.52,9.48,9.48,0,0,1-2.31,6.21L17.73-7.1a1,1,0,0,1,0,1.41L17.09-5a1,1,0,0,1-1.41,0Z"/></clipPath><clipPath id="clip-path-2"><rect class="cls-2" x="-3.45" y="-27.28" width="24" height="24"/></clipPath><clipPath id="clip-path-3"><path class="cls-1" d="M-40,16.5a1.77,1.77,0,0,1,1.35-.79,1.77,1.77,0,0,1,1.45.59L-36,17.6a2.19,2.19,0,0,0,3.64-.26l4-6.1a1.77,1.77,0,0,1,1.47-.79,1.77,1.77,0,0,1,1.48.79L-18.27,22c0.91,1.38.31,2.49-1.34,2.49H-42.27c-1.66,0-2.25-1.13-1.35-2.5Zm1.87-12.16A3.57,3.57,0,0,1-34.54,7.9a3.57,3.57,0,0,1-3.58,3.56A3.57,3.57,0,0,1-41.71,7.9,3.57,3.57,0,0,1-38.12,4.34ZM-48.94,24.13a5,5,0,0,0,5,5h26a5,5,0,0,0,5-5V5.87a5,5,0,0,0-5-5h-26a5,5,0,0,0-5,5V24.13Z"/></clipPath><clipPath id="clip-path-4"><path class="cls-1" d="M13,6.57a1.83,1.83,0,0,0,1.83-1.84V1.84a1.83,1.83,0,1,0-3.66,0V4.73A1.83,1.83,0,0,0,13,6.57Z"/></clipPath><clipPath id="clip-path-5"><rect class="cls-2" x="-164.43" y="-527" width="375" height="930"/></clipPath><clipPath id="clip-path-6"><path class="cls-1" d="M26.52,6.57a1.83,1.83,0,0,0,1.83-1.84V1.84a1.83,1.83,0,1,0-3.66,0V4.73A1.83,1.83,0,0,0,26.52,6.57Z"/></clipPath><clipPath id="clip-path-8"><path class="cls-1" d="M28.73,25.39H10a1.85,1.85,0,0,1-1.88-1.81v-12H30.61v12A1.85,1.85,0,0,1,28.73,25.39ZM30,2.62V4.73a3.43,3.43,0,1,1-6.87,0V2.62H16.48V4.73a3.43,3.43,0,1,1-6.87,0V2.62H8.48A4.42,4.42,0,0,0,4.07,7V25.57A4.42,4.42,0,0,0,8.48,30H31.09a4.42,4.42,0,0,0,4.4-4.43V7a4.42,4.42,0,0,0-4.4-4.43H30Z"/></clipPath><clipPath id="clip-path-10"><path class="cls-1" d="M71.72,15.13a1.93,1.93,0,1,1,1.93-1.93A1.93,1.93,0,0,1,71.72,15.13Zm-7.54,0a1.93,1.93,0,1,1,1.93-1.93A1.93,1.93,0,0,1,64.18,15.13Zm-7.54,0a1.93,1.93,0,1,1,1.93-1.93A1.93,1.93,0,0,1,56.64,15.13ZM64.25,0C54.55,0,48,4.95,48,12.64a12.38,12.38,0,0,0,5.77,11c0.25,0.16.55,0.19,0.44,0.66-0.45,1.9-1.24,5.27-1.24,5.27a0.37,0.37,0,0,0,.54.41s5.56-3.3,6.31-3.71a8.48,8.48,0,0,1,4.34-1.18c7.69,0,16.27-3.08,16.27-12.51C80.4,5.25,74.5,0,64.25,0Z"/></clipPath><clipPath id="clip-path-11"><path class="cls-1" d="M-38.12,81.34h0.62a1.28,1.28,0,0,1,.42.95,1.28,1.28,0,0,1-.47,1h-0.83a0.29,0.29,0,0,0-.29.29,0.29,0.29,0,0,0,.29.29h0.52a1,1,0,0,1,.22.68,1.28,1.28,0,0,1-.47,1h-0.8a0.29,0.29,0,0,0-.29.29,0.29,0.29,0,0,0,.29.29h0.23a1.23,1.23,0,0,1,0,.34,1.28,1.28,0,0,1-1.06,1.27l-0.8.12a12.4,12.4,0,0,1-1.73.11l-1.53,0a12.83,12.83,0,0,1-4.36-.81c-2.58-1.31-2.58-5.6-.78-7.42,1-1,2-1.67,2.78-2.66,1.28-1.53,2.52-3.34,2.65-4.13a1.25,1.25,0,0,1,1.13-1.2,1.21,1.21,0,0,1,1.08.94,4.55,4.55,0,0,1-.27,3.17c-0.23.63-1.47,1.65-.71,2.47a2,2,0,0,0,1.35.42h2.73A1.28,1.28,0,0,1-36.91,80a1.05,1.05,0,0,1-.39.77h-0.82a0.29,0.29,0,0,0-.29.29A0.29,0.29,0,0,0-38.12,81.34Z"/></clipPath><clipPath id="clip-path-12"><path class="cls-3" d="M-9.44,81.34h0.62a1.28,1.28,0,0,1,.42.95,1.28,1.28,0,0,1-.47,1H-9.71a0.29,0.29,0,0,0-.29.29,0.29,0.29,0,0,0,.29.29h0.52a1,1,0,0,1,.22.68,1.28,1.28,0,0,1-.47,1h-0.8a0.29,0.29,0,0,0-.29.29,0.29,0.29,0,0,0,.29.29H-10a1.23,1.23,0,0,1,0,.34A1.28,1.28,0,0,1-11,87.72l-0.8.12a12.4,12.4,0,0,1-1.73.11l-1.53,0a12.83,12.83,0,0,1-4.36-.81c-2.58-1.31-2.58-5.6-.78-7.42,1-1,2-1.67,2.78-2.66,1.28-1.53,2.52-3.34,2.65-4.13a1.25,1.25,0,0,1,1.13-1.2,1.21,1.21,0,0,1,1.08.94,4.55,4.55,0,0,1-.27,3.17c-0.23.63-1.47,1.65-.71,2.47a2,2,0,0,0,1.35.42H-9.5A1.28,1.28,0,0,1-8.23,80a1.05,1.05,0,0,1-.39.77H-9.44a0.29,0.29,0,0,0-.29.29A0.29,0.29,0,0,0-9.44,81.34Z"/></clipPath><clipPath id="clip-path-13"><path class="cls-1" d="M20.4,79.89a1,1,0,1,1,1-1A1,1,0,0,1,20.4,79.89Zm-4.05,0a1,1,0,1,1,1-1A1,1,0,0,1,16.34,79.89Zm-4.05,0a1,1,0,1,1,1-1A1,1,0,0,1,12.29,79.89Zm4.09-8.07c-5.21,0-8.75,2.64-8.75,6.74a6.59,6.59,0,0,0,3.1,5.85c0.14,0.09.3,0.1,0.24,0.35-0.24,1-.67,2.81-0.67,2.81a0.2,0.2,0,0,0,.07.2,0.2,0.2,0,0,0,.22,0s3-1.76,3.39-2a4.58,4.58,0,0,1,2.33-.63c4.13,0,8.74-1.64,8.74-6.67C25.05,74.62,21.89,71.82,16.38,71.82Z"/></clipPath><clipPath id="clip-path-14"><path class="cls-1" d="M53.45,79l-7.38-6V76c-7.19.06-9.86,5.46-9,10.66,1.57-3.23,4.84-4.51,9-4.65v3Z"/></clipPath><clipPath id="clip-path-15"><path class="cls-1" d="M80.57,86H79.22a7.76,7.76,0,0,0,.29-2h1.69A4,4,0,0,1,80.57,86ZM80,86.75a4.32,4.32,0,0,1-1.6,1,4.31,4.31,0,0,0,.72-1.28h1.16C80.15,86.56,80.05,86.66,80,86.75Zm-2.26,1a1.52,1.52,0,0,1-.34.2l-0.21,0V86.45h1.44c-0.06.14-.12,0.28-0.19,0.41A2.8,2.8,0,0,1,77.69,87.74ZM77.14,84h1.91a7.24,7.24,0,0,1-.31,2h-1.6V84Zm0-2.41h1.6a7.25,7.25,0,0,1,.31,2H77.14v-2Zm0-2,0.21,0a1.53,1.53,0,0,1,.34.2,3.2,3.2,0,0,1,.89,1.29H77.14V79.67ZM80,80.88c0.1,0.1.19,0.2,0.28,0.3H79.08a5.21,5.21,0,0,0-.27-0.62,3.75,3.75,0,0,0-.45-0.67A4.33,4.33,0,0,1,80,80.88Zm0.61,0.75a4,4,0,0,1,.64,2H79.52a7.78,7.78,0,0,0-.29-2h1.34Zm-3.89-.44H75.24c0.06-.14.12-0.28,0.19-0.41a2.8,2.8,0,0,1,.7-0.88,1.52,1.52,0,0,1,.34-0.2l0.21,0v1.51h0Zm0,2.41H74.77a7.24,7.24,0,0,1,.31-2h1.6v2h0Zm0,2.41h-1.6a7.25,7.25,0,0,1-.31-2h1.92v2h0Zm0,2-0.21,0a1.52,1.52,0,0,1-.34-0.2,3.2,3.2,0,0,1-.89-1.29h1.44V88h0Zm-2.81-1.21c-0.1-.1-0.19-0.2-0.28-0.3h1.16a5.2,5.2,0,0,0,.27.62,3.75,3.75,0,0,0,.45.67A4.33,4.33,0,0,1,73.87,86.75ZM73.26,86a4,4,0,0,1-.64-2h1.69a7.78,7.78,0,0,0,.29,2H73.26Zm0-4.37H74.6a7.76,7.76,0,0,0-.29,2H72.62A4,4,0,0,1,73.26,81.63Zm0.61-.75a4.33,4.33,0,0,1,1.6-1,4.3,4.3,0,0,0-.72,1.28H73.59C73.68,81.08,73.77,81,73.87,80.88Zm3-1.81a4.75,4.75,0,1,0,4.91,4.74A4.83,4.83,0,0,0,76.91,79.07Z"/></clipPath><clipPath id="clip-path-16"><ellipse class="cls-2" cx="101.69" cy="82.32" rx="1.78" ry="1.8"/></clipPath><clipPath id="clip-path-17"><ellipse class="cls-2" cx="97.78" cy="83.58" rx="1.32" ry="1.34"/></clipPath><clipPath id="clip-path-18"><path class="cls-1" d="M96,86.4v1A1.54,1.54,0,0,0,97.55,89H98.8V86a1.87,1.87,0,0,1,.13-0.38,1.91,1.91,0,0,0-1.18-.37A1.7,1.7,0,0,0,96,86.4Z"/></clipPath><clipPath id="clip-path-19"><path class="cls-1" d="M99.37,86.1v2.58a0.84,0.84,0,0,0,.83.84h3a0.84,0.84,0,0,0,.83-0.84V86.1A2.51,2.51,0,0,0,99.37,86.1Z"/></clipPath></defs><title>icon</title><g class="cls-4"><g class="cls-5"><rect class="cls-6" x="-8.45" y="-32.28" width="31.47" height="32.53"/></g></g><g class="cls-8"><g class="cls-9"><rect class="cls-10" x="6.21" y="-5" width="13.66" height="16.57"/></g></g><g class="cls-11"><g class="cls-9"><rect class="cls-10" x="19.7" y="-5" width="13.66" height="16.57"/></g></g><g class="cls-12"><g class="cls-9"><rect class="cls-10" x="-0.93" y="-2.38" width="41.42" height="37.38"/></g></g><path class="cls-15" d="M-9.44,81.34h0.62a1.28,1.28,0,0,1,.42.95,1.28,1.28,0,0,1-.47,1H-9.71a0.29,0.29,0,0,0-.29.29,0.29,0.29,0,0,0,.29.29h0.52a1,1,0,0,1,.22.68,1.28,1.28,0,0,1-.47,1h-0.8a0.29,0.29,0,0,0-.29.29,0.29,0.29,0,0,0,.29.29H-10a1.23,1.23,0,0,1,0,.34A1.28,1.28,0,0,1-11,87.72l-0.8.12a12.4,12.4,0,0,1-1.73.11l-1.53,0a12.83,12.83,0,0,1-4.36-.81c-2.58-1.31-2.58-5.6-.78-7.42,1-1,2-1.67,2.78-2.66,1.28-1.53,2.52-3.34,2.65-4.13a1.25,1.25,0,0,1,1.13-1.2,1.21,1.21,0,0,1,1.08.94,4.55,4.55,0,0,1-.27,3.17c-0.23.63-1.47,1.65-.71,2.47a2,2,0,0,0,1.35.42H-9.5A1.28,1.28,0,0,1-8.23,80a1.05,1.05,0,0,1-.39.77H-9.44a0.29,0.29,0,0,0-.29.29A0.29,0.29,0,0,0-9.44,81.34Z"/><g class="cls-16"><rect class="cls-17" x="-43.36" y="-414.18" width="375" height="667"/></g></svg>