<svg id="レイヤー_1" data-name="レイヤー 1" xmlns="http://www.w3.org/2000/svg" xmlns:xlink="http://www.w3.org/1999/xlink" viewBox="0 0 48 36"><defs><style>.cls-1,.cls-2{fill:none;}.cls-1,.cls-3{clip-rule:evenodd;}.cls-15,.cls-17,.cls-3{fill:#a4aab3;}.cls-4{clip-path:url(#clip-path);}.cls-5{clip-path:url(#clip-path-2);}.cls-6{clip-path:url(#clip-path-3);}.cls-7{clip-path:url(#clip-path-4);}.cls-8{clip-path:url(#clip-path-5);}.cls-9{clip-path:url(#clip-path-6);}.cls-10{clip-path:url(#clip-path-7);}.cls-11{clip-path:url(#clip-path-8);}.cls-12{fill:#f99494;}.cls-13{clip-path:url(#clip-path-9);}.cls-14{clip-path:url(#clip-path-10);}.cls-15{fill-rule:evenodd;}.cls-16{clip-path:url(#clip-path-11);}.cls-18{clip-path:url(#clip-path-12);}.cls-19{clip-path:url(#clip-path-13);}.cls-20{clip-path:url(#clip-path-14);}.cls-21{clip-path:url(#clip-path-15);}.cls-22{clip-path:url(#clip-path-16);}.cls-23{clip-path:url(#clip-path-17);}.cls-24{clip-path:url(#clip-path-18);}</style><clipPath id="clip-path"><path class="cls-1" d="M-142.51,6.5a1.77,1.77,0,0,1,1.35-.79,1.77,1.77,0,0,1,1.45.59l1.15,1.3a2.19,2.19,0,0,0,3.64-.26l4-6.1A1.77,1.77,0,0,1-129.4.45a1.77,1.77,0,0,1,1.48.79L-120.78,12c0.91,1.38.31,2.49-1.34,2.49h-22.66c-1.66,0-2.25-1.13-1.35-2.5Zm1.87-12.16a3.57,3.57,0,0,1,3.58,3.56,3.57,3.57,0,0,1-3.58,3.56,3.57,3.57,0,0,1-3.58-3.56A3.57,3.57,0,0,1-140.64-5.65Zm-10.82,19.79a5,5,0,0,0,5,5h26a5,5,0,0,0,5-5V-4.13a5,5,0,0,0-5-5h-26a5,5,0,0,0-5,5V14.14Z"/></clipPath><clipPath id="clip-path-2"><path class="cls-1" d="M-89.47-3.42a1.83,1.83,0,0,0,1.83-1.84V-8.16A1.83,1.83,0,0,0-89.47-10,1.83,1.83,0,0,0-91.3-8.16v2.89A1.83,1.83,0,0,0-89.47-3.42Z"/></clipPath><clipPath id="clip-path-3"><path class="cls-1" d="M-76-3.42a1.83,1.83,0,0,0,1.83-1.84V-8.16A1.83,1.83,0,0,0-76-10a1.83,1.83,0,0,0-1.83,1.84v2.89A1.83,1.83,0,0,0-76-3.42Z"/></clipPath><clipPath id="clip-path-4"><path class="cls-1" d="M-73.78,15.4H-92.56a1.85,1.85,0,0,1-1.88-1.81v-12H-71.9v12A1.85,1.85,0,0,1-73.78,15.4Zm1.23-22.77v2.11A3.45,3.45,0,0,1-76-1.81a3.45,3.45,0,0,1-3.44-3.46V-7.38H-86v2.11a3.45,3.45,0,0,1-3.43,3.46,3.45,3.45,0,0,1-3.44-3.46V-7.38H-94a4.42,4.42,0,0,0-4.4,4.43V15.58A4.42,4.42,0,0,0-94,20h22.61A4.42,4.42,0,0,0-67,15.58V-2.95a4.42,4.42,0,0,0-4.4-4.43h-1.13Z"/></clipPath><clipPath id="clip-path-5"><path class="cls-1" d="M-30.79,5.14A1.93,1.93,0,0,1-32.72,3.2a1.93,1.93,0,0,1,1.93-1.93A1.93,1.93,0,0,1-28.85,3.2,1.93,1.93,0,0,1-30.79,5.14Zm-7.54,0A1.93,1.93,0,0,1-40.26,3.2a1.93,1.93,0,0,1,1.93-1.93A1.93,1.93,0,0,1-36.4,3.2,1.93,1.93,0,0,1-38.33,5.14Zm-7.54,0A1.93,1.93,0,0,1-47.8,3.2a1.93,1.93,0,0,1,1.93-1.93A1.93,1.93,0,0,1-43.94,3.2,1.93,1.93,0,0,1-45.87,5.14ZM-38.26-10C-48-10-54.54-5-54.54,2.65a12.38,12.38,0,0,0,5.77,11c0.25,0.16.55,0.19,0.44,0.66-0.45,1.9-1.24,5.27-1.24,5.27a0.37,0.37,0,0,0,.14.38,0.37,0.37,0,0,0,.4,0s5.56-3.3,6.31-3.71a8.48,8.48,0,0,1,4.34-1.18c7.69,0,16.27-3.08,16.27-12.51C-22.12-4.75-28-10-38.26-10Z"/></clipPath><clipPath id="clip-path-6"><path class="cls-1" d="M23.59-60.4a1.9,1.9,0,0,0-1.89-1.91,1.9,1.9,0,0,0-1.89,1.91,1.92,1.92,0,0,0,.53,1.33c-1.28,2.7-3.74,3.64-5.64,2.78C13-57,12.39-59.21,12.18-60.89a2.21,2.21,0,0,0,1.16-1.95A2.19,2.19,0,0,0,11.17-65,2.19,2.19,0,0,0,9-62.84a2.2,2.2,0,0,0,1.16,1.95C10-59.21,9.33-57,7.63-56.28c-1.9.85-4.35-.09-5.64-2.78a1.92,1.92,0,0,0,.53-1.33A1.9,1.9,0,0,0,.64-62.31,1.9,1.9,0,0,0-1.25-60.4,1.9,1.9,0,0,0,.39-58.5L3.1-48.29H19.25L22-58.5A1.9,1.9,0,0,0,23.59-60.4Z"/></clipPath><clipPath id="clip-path-7"><path class="cls-1" d="M42.83,7.91a3.43,3.43,0,0,0-2.42,5.8c-2.29,4.82-6.68,6.5-10.08,5-3-1.36-4.14-5.24-4.52-8.25a3.88,3.88,0,1,0-3.61,0c-0.38,3-1.5,6.89-4.52,8.25-3.4,1.52-7.78-.16-10.08-5a3.44,3.44,0,0,0,.95-2.38,3.37,3.37,0,1,0-6.75,0,3.4,3.4,0,0,0,2.93,3.39L9.56,33H38.44l4.84-18.25A3.42,3.42,0,0,0,42.83,7.91Z"/></clipPath><clipPath id="clip-path-8"><rect class="cls-2" x="-11.2" y="-336.98" width="375" height="667"/></clipPath><clipPath id="clip-path-9"><path class="cls-1" d="M95.89,9.92a3.43,3.43,0,0,0-2.42,5.8c-2.29,4.82-6.68,6.5-10.08,5-3-1.36-4.14-5.24-4.52-8.25a3.88,3.88,0,1,0-3.61,0c-0.38,3-1.5,6.89-4.52,8.25-3.4,1.52-7.78-.16-10.08-5a3.44,3.44,0,0,0,.95-2.38,3.37,3.37,0,1,0-3.82,3.39L62.63,35H91.5l4.84-18.25A3.42,3.42,0,0,0,95.89,9.92Z"/></clipPath><clipPath id="clip-path-10"><path class="cls-1" d="M-140.64,71.34H-140a1.28,1.28,0,0,1,.42.95,1.28,1.28,0,0,1-.47,1h-0.83a0.29,0.29,0,0,0-.29.29,0.29,0.29,0,0,0,.29.29h0.52a1,1,0,0,1,.22.68,1.28,1.28,0,0,1-.47,1h-0.8a0.29,0.29,0,0,0-.29.29,0.29,0.29,0,0,0,.29.29h0.23a1.23,1.23,0,0,1,0,.34,1.28,1.28,0,0,1-1.06,1.27l-0.8.12a12.4,12.4,0,0,1-1.73.11l-1.53,0a12.83,12.83,0,0,1-4.36-.81c-2.58-1.31-2.58-5.6-.78-7.42,1-1,2-1.67,2.78-2.66,1.28-1.53,2.52-3.34,2.65-4.13a1.25,1.25,0,0,1,1.13-1.2,1.21,1.21,0,0,1,1.08.94,4.55,4.55,0,0,1-.27,3.17c-0.23.63-1.47,1.65-.71,2.47a2,2,0,0,0,1.35.42h2.73A1.28,1.28,0,0,1-139.42,70a1.05,1.05,0,0,1-.39.77h-0.82a0.29,0.29,0,0,0-.29.29A0.29,0.29,0,0,0-140.64,71.34Z"/></clipPath><clipPath id="clip-path-11"><path class="cls-3" d="M-112,71.34h0.62a1.28,1.28,0,0,1,.42.95,1.28,1.28,0,0,1-.47,1h-0.83a0.29,0.29,0,0,0-.29.29,0.29,0.29,0,0,0,.29.29h0.52a1,1,0,0,1,.22.68,1.28,1.28,0,0,1-.47,1h-0.8a0.29,0.29,0,0,0-.29.29,0.29,0.29,0,0,0,.29.29h0.23a1.23,1.23,0,0,1,0,.34,1.28,1.28,0,0,1-1.06,1.27l-0.8.12a12.4,12.4,0,0,1-1.73.11l-1.53,0A12.83,12.83,0,0,1-122,77.1c-2.58-1.31-2.58-5.6-.78-7.42,1-1,2-1.67,2.78-2.66,1.28-1.53,2.52-3.34,2.65-4.13a1.25,1.25,0,0,1,1.13-1.2,1.21,1.21,0,0,1,1.08.94,4.55,4.55,0,0,1-.27,3.17c-0.23.63-1.47,1.65-.71,2.47a2,2,0,0,0,1.35.42H-112A1.28,1.28,0,0,1-110.74,70a1.05,1.05,0,0,1-.39.77H-112a0.29,0.29,0,0,0-.29.29A0.29,0.29,0,0,0-112,71.34Z"/></clipPath><clipPath id="clip-path-12"><path class="cls-1" d="M-82.12,69.89a1,1,0,0,1-1-1,1,1,0,0,1,1-1,1,1,0,0,1,1,1A1,1,0,0,1-82.12,69.89Zm-4.05,0a1,1,0,0,1-1-1,1,1,0,0,1,1-1,1,1,0,0,1,1,1A1,1,0,0,1-86.17,69.89Zm-4.05,0a1,1,0,0,1-1-1,1,1,0,0,1,1-1,1,1,0,0,1,1,1A1,1,0,0,1-90.22,69.89Zm4.09-8.07c-5.21,0-8.75,2.64-8.75,6.74a6.59,6.59,0,0,0,3.1,5.85c0.14,0.09.3,0.1,0.24,0.35-0.24,1-.67,2.81-0.67,2.81a0.2,0.2,0,0,0,.07.2,0.2,0.2,0,0,0,.22,0s3-1.76,3.39-2a4.58,4.58,0,0,1,2.33-.63c4.13,0,8.74-1.64,8.74-6.67C-77.46,64.62-80.62,61.82-86.13,61.82Z"/></clipPath><clipPath id="clip-path-13"><path class="cls-1" d="M-49.06,69l-7.38-6V66c-7.19.06-9.86,5.46-9,10.66,1.57-3.23,4.84-4.51,9-4.65v3Z"/></clipPath><clipPath id="clip-path-14"><path class="cls-1" d="M-21.94,76h-1.34A7.76,7.76,0,0,0-23,74h1.69A4,4,0,0,1-21.94,76Zm-0.61.75a4.32,4.32,0,0,1-1.6,1,4.31,4.31,0,0,0,.72-1.28h1.16C-22.36,76.56-22.46,76.66-22.56,76.76Zm-2.26,1a1.52,1.52,0,0,1-.34.2l-0.21,0V76.45h1.44c-0.06.14-.12,0.28-0.19,0.41A2.8,2.8,0,0,1-24.82,77.75ZM-25.37,74h1.91a7.24,7.24,0,0,1-.31,2h-1.6V74Zm0-2.41h1.6a7.25,7.25,0,0,1,.31,2h-1.92v-2Zm0-2,0.21,0a1.53,1.53,0,0,1,.34.2,3.2,3.2,0,0,1,.89,1.29h-1.44V69.68Zm2.81,1.21c0.1,0.1.19,0.2,0.28,0.3h-1.16a5.21,5.21,0,0,0-.27-0.62,3.75,3.75,0,0,0-.45-0.67A4.33,4.33,0,0,1-22.56,70.89Zm0.61,0.75a4,4,0,0,1,.64,2H-23a7.78,7.78,0,0,0-.29-2h1.34Zm-3.89-.44h-1.44c0.06-.14.12-0.28,0.19-0.41a2.8,2.8,0,0,1,.7-0.88,1.52,1.52,0,0,1,.34-0.2l0.21,0v1.51h0Zm0,2.41h-1.91a7.24,7.24,0,0,1,.31-2h1.6v2h0Zm0,2.41h-1.6a7.25,7.25,0,0,1-.31-2h1.92v2h0Zm0,2L-26,78a1.52,1.52,0,0,1-.34-0.2,3.2,3.2,0,0,1-.89-1.29h1.44V78h0Zm-2.81-1.21c-0.1-.1-0.19-0.2-0.28-0.3h1.16a5.2,5.2,0,0,0,.27.62,3.75,3.75,0,0,0,.45.67A4.33,4.33,0,0,1-28.64,76.76ZM-29.25,76a4,4,0,0,1-.64-2h1.69a7.78,7.78,0,0,0,.29,2h-1.34Zm0-4.37h1.34a7.76,7.76,0,0,0-.29,2h-1.69A4,4,0,0,1-29.25,71.64Zm0.61-.75a4.33,4.33,0,0,1,1.6-1,4.3,4.3,0,0,0-.72,1.28h-1.16C-28.84,71.08-28.74,71-28.64,70.89Zm3-1.81a4.83,4.83,0,0,0-4.91,4.74,4.83,4.83,0,0,0,4.91,4.74,4.83,4.83,0,0,0,4.91-4.74A4.83,4.83,0,0,0-25.6,69.08Z"/></clipPath><clipPath id="clip-path-15"><ellipse class="cls-2" cx="-0.82" cy="72.32" rx="1.78" ry="1.8"/></clipPath><clipPath id="clip-path-16"><ellipse class="cls-2" cx="-4.73" cy="73.59" rx="1.32" ry="1.34"/></clipPath><clipPath id="clip-path-17"><path class="cls-1" d="M-6.49,76.4v1A1.54,1.54,0,0,0-5,79h1.25V76a1.87,1.87,0,0,1,.13-0.38,1.91,1.91,0,0,0-1.18-.37A1.7,1.7,0,0,0-6.49,76.4Z"/></clipPath><clipPath id="clip-path-18"><path class="cls-1" d="M-3.15,76.1v2.58a0.84,0.84,0,0,0,.83.84h3a0.84,0.84,0,0,0,.83-0.84V76.1A2.29,2.29,0,0,0-.82,74.53,2.29,2.29,0,0,0-3.15,76.1Z"/></clipPath></defs><title>icon</title><g class="cls-10"><g class="cls-11"><rect class="cls-12" x="-3.2" y="-1.98" width="54.41" height="39.95"/></g></g><path class="cls-15" d="M-112,71.34h0.62a1.28,1.28,0,0,1,.42.95,1.28,1.28,0,0,1-.47,1h-0.83a0.29,0.29,0,0,0-.29.29,0.29,0.29,0,0,0,.29.29h0.52a1,1,0,0,1,.22.68,1.28,1.28,0,0,1-.47,1h-0.8a0.29,0.29,0,0,0-.29.29,0.29,0.29,0,0,0,.29.29h0.23a1.23,1.23,0,0,1,0,.34,1.28,1.28,0,0,1-1.06,1.27l-0.8.12a12.4,12.4,0,0,1-1.73.11l-1.53,0A12.83,12.83,0,0,1-122,77.1c-2.58-1.31-2.58-5.6-.78-7.42,1-1,2-1.67,2.78-2.66,1.28-1.53,2.52-3.34,2.65-4.13a1.25,1.25,0,0,1,1.13-1.2,1.21,1.21,0,0,1,1.08.94,4.55,4.55,0,0,1-.27,3.17c-0.23.63-1.47,1.65-.71,2.47a2,2,0,0,0,1.35.42H-112A1.28,1.28,0,0,1-110.74,70a1.05,1.05,0,0,1-.39.77H-112a0.29,0.29,0,0,0-.29.29A0.29,0.29,0,0,0-112,71.34Z"/><g class="cls-16"><rect class="cls-17" x="-145.87" y="-424.18" width="375" height="667"/></g></svg>