<svg id="レイヤー_1" data-name="レイヤー 1" xmlns="http://www.w3.org/2000/svg" xmlns:xlink="http://www.w3.org/1999/xlink" viewBox="0 0 25 25"><defs><style>.cls-1,.cls-2{fill:none;}.cls-1,.cls-3{clip-rule:evenodd;}.cls-17,.cls-19,.cls-3{fill:#a4aab3;}.cls-4{clip-path:url(#clip-path);}.cls-5{clip-path:url(#clip-path-2);}.cls-6{fill:#f5a623;}.cls-7{clip-path:url(#clip-path-3);}.cls-8{clip-path:url(#clip-path-4);}.cls-9{clip-path:url(#clip-path-5);}.cls-10{clip-path:url(#clip-path-6);}.cls-11{fill:#fff;}.cls-12{clip-path:url(#clip-path-7);}.cls-13{clip-path:url(#clip-path-8);}.cls-14{clip-path:url(#clip-path-9);}.cls-15{clip-path:url(#clip-path-10);}.cls-16{clip-path:url(#clip-path-11);}.cls-17{fill-rule:evenodd;}.cls-18{clip-path:url(#clip-path-12);}.cls-20{clip-path:url(#clip-path-13);}.cls-21{clip-path:url(#clip-path-14);}.cls-22{clip-path:url(#clip-path-15);}.cls-23{clip-path:url(#clip-path-16);}.cls-24{clip-path:url(#clip-path-17);}.cls-25{clip-path:url(#clip-path-18);}.cls-26{clip-path:url(#clip-path-19);}</style><clipPath id="clip-path"><path class="cls-1" d="M20.85,1.46L23.6,4.27,24,3.83a1.66,1.66,0,0,0,.09-2.21l-0.29-.35L23.42,0.9A1.57,1.57,0,0,0,21.25,1ZM20.37,2l-9.45,9.63s-1.47,2.27-.83,3.29,3.4-.65,3.4-0.65L23.1,4.77l-1-1-1-1Z"/></clipPath><clipPath id="clip-path-2"><rect class="cls-2" x="-340.08" y="-33.48" width="375" height="667"/></clipPath><clipPath id="clip-path-3"><path class="cls-1" d="M16.94,4H2.19a1,1,0,0,0-1,1V23a1,1,0,0,0,1,1h18a1,1,0,0,0,1-1V8.12l-2,2V21a1,1,0,0,1-1,1H4.2a1,1,0,0,1-1-1V7a1,1,0,0,1,1-1H15Z"/></clipPath><clipPath id="clip-path-4"><rect class="cls-2" x="-340.8" y="-33" width="375" height="667"/></clipPath><clipPath id="clip-path-5"><path class="cls-1" d="M-3.06,45a1.77,1.77,0,0,1,1.35-.79,1.77,1.77,0,0,1,1.45.59l1.15,1.3a2.19,2.19,0,0,0,3.64-.26l4-6.1a1.77,1.77,0,0,1,2.95,0L18.67,50.5C19.58,51.88,19,53,17.33,53H-5.33c-1.66,0-2.25-1.13-1.35-2.5Zm1.87-12.16A3.57,3.57,0,0,1,2.4,36.41,3.57,3.57,0,0,1-1.18,40a3.57,3.57,0,0,1-3.58-3.56A3.57,3.57,0,0,1-1.18,32.86ZM-12,52.65a5,5,0,0,0,5,5H19a5,5,0,0,0,5-5V34.38a5,5,0,0,0-5-5H-7a5,5,0,0,0-5,5V52.65Z"/></clipPath><clipPath id="clip-path-6"><rect class="cls-2" x="-62" y="-498.66" width="375" height="930"/></clipPath><clipPath id="clip-path-7"><path class="cls-1" d="M50,35.09a1.83,1.83,0,0,0,1.83-1.84V30.35a1.83,1.83,0,1,0-3.66,0v2.89A1.83,1.83,0,0,0,50,35.09Z"/></clipPath><clipPath id="clip-path-8"><path class="cls-1" d="M63.46,35.09a1.83,1.83,0,0,0,1.83-1.84V30.35a1.83,1.83,0,1,0-3.66,0v2.89A1.83,1.83,0,0,0,63.46,35.09Z"/></clipPath><clipPath id="clip-path-9"><path class="cls-1" d="M65.67,53.91H46.89A1.85,1.85,0,0,1,45,52.1v-12H67.55v12A1.85,1.85,0,0,1,65.67,53.91ZM66.9,31.14v2.11a3.43,3.43,0,1,1-6.87,0V31.14H53.42v2.11a3.43,3.43,0,1,1-6.87,0V31.14H45.42A4.42,4.42,0,0,0,41,35.56V54.09a4.42,4.42,0,0,0,4.4,4.43H68a4.42,4.42,0,0,0,4.4-4.43V35.56A4.42,4.42,0,0,0,68,31.14H66.9Z"/></clipPath><clipPath id="clip-path-10"><path class="cls-1" d="M108.66,43.65a1.93,1.93,0,1,1,1.93-1.93A1.93,1.93,0,0,1,108.66,43.65Zm-7.54,0a1.93,1.93,0,1,1,1.93-1.93A1.93,1.93,0,0,1,101.12,43.65Zm-7.54,0a1.93,1.93,0,1,1,1.93-1.93A1.93,1.93,0,0,1,93.58,43.65Zm7.61-15.13c-9.7,0-16.28,4.95-16.28,12.64a12.38,12.38,0,0,0,5.77,11c0.25,0.16.55,0.19,0.44,0.66-0.45,1.9-1.24,5.27-1.24,5.27a0.37,0.37,0,0,0,.54.41s5.56-3.3,6.31-3.71a8.48,8.48,0,0,1,4.34-1.18c7.69,0,16.27-3.08,16.27-12.51C117.34,33.76,111.44,28.52,101.19,28.52Z"/></clipPath><clipPath id="clip-path-11"><path class="cls-1" d="M-1.18,109.85h0.62a1.28,1.28,0,0,1,.42.95,1.28,1.28,0,0,1-.47,1H-1.45a0.29,0.29,0,0,0-.29.29,0.29,0.29,0,0,0,.29.29h0.52a1,1,0,0,1,.22.68,1.28,1.28,0,0,1-.47,1H-2a0.29,0.29,0,0,0-.29.29,0.29,0.29,0,0,0,.29.29h0.23a1.23,1.23,0,0,1,0,.34,1.28,1.28,0,0,1-1.06,1.27l-0.8.12a12.4,12.4,0,0,1-1.73.11l-1.53,0a12.83,12.83,0,0,1-4.36-.81c-2.58-1.31-2.58-5.6-.78-7.42,1-1,2-1.67,2.78-2.66,1.28-1.53,2.52-3.34,2.65-4.13a1.25,1.25,0,0,1,1.13-1.2,1.21,1.21,0,0,1,1.08.94,4.55,4.55,0,0,1-.27,3.17c-0.23.63-1.47,1.65-.71,2.47a2,2,0,0,0,1.35.42h2.73A1.28,1.28,0,0,1,0,108.5a1.05,1.05,0,0,1-.39.77H-1.18a0.29,0.29,0,0,0-.29.29A0.29,0.29,0,0,0-1.18,109.85Z"/></clipPath><clipPath id="clip-path-12"><path class="cls-3" d="M27.5,109.85h0.62a1.29,1.29,0,0,1-.06,1.94H27.23a0.29,0.29,0,0,0,0,.58h0.52a1,1,0,0,1,.22.68,1.28,1.28,0,0,1-.47,1h-0.8a0.29,0.29,0,0,0,0,.58h0.23a1.23,1.23,0,0,1,0,.34,1.28,1.28,0,0,1-1.06,1.27l-0.8.12a12.4,12.4,0,0,1-1.73.11l-1.53,0a12.83,12.83,0,0,1-4.36-.81c-2.58-1.31-2.58-5.6-.78-7.42,1-1,2-1.67,2.78-2.66,1.28-1.53,2.52-3.34,2.65-4.13a1.25,1.25,0,0,1,1.13-1.2,1.21,1.21,0,0,1,1.08.94,4.55,4.55,0,0,1-.27,3.17c-0.23.63-1.47,1.65-.71,2.47a2,2,0,0,0,1.35.42h2.73a1.28,1.28,0,0,1,1.27,1.29,1.05,1.05,0,0,1-.39.77H27.5A0.29,0.29,0,0,0,27.5,109.85Z"/></clipPath><clipPath id="clip-path-13"><path class="cls-1" d="M57.34,108.4a1,1,0,1,1,1-1A1,1,0,0,1,57.34,108.4Zm-4.05,0a1,1,0,1,1,1-1A1,1,0,0,1,53.28,108.4Zm-4.05,0a1,1,0,1,1,1-1A1,1,0,0,1,49.23,108.4Zm4.09-8.07c-5.21,0-8.75,2.64-8.75,6.74a6.59,6.59,0,0,0,3.1,5.85c0.14,0.09.3,0.1,0.24,0.35-0.24,1-.67,2.81-0.67,2.81a0.2,0.2,0,0,0,.07.2,0.2,0.2,0,0,0,.22,0s3-1.76,3.39-2a4.58,4.58,0,0,1,2.33-.63c4.13,0,8.74-1.64,8.74-6.67C62,103.13,58.83,100.33,53.32,100.33Z"/></clipPath><clipPath id="clip-path-14"><path class="cls-1" d="M90.39,107.5l-7.38-6v3.08c-7.19.06-9.86,5.46-9,10.66,1.57-3.23,4.84-4.51,9-4.65v3Z"/></clipPath><clipPath id="clip-path-15"><path class="cls-1" d="M117.51,114.52h-1.34a7.76,7.76,0,0,0,.29-2h1.69A4,4,0,0,1,117.51,114.52Zm-0.61.75a4.32,4.32,0,0,1-1.6,1A4.31,4.31,0,0,0,116,115h1.16C117.09,115.07,117,115.17,116.89,115.27Zm-2.26,1a1.52,1.52,0,0,1-.34.2l-0.21,0V115h1.44c-0.06.14-.12,0.28-0.19,0.41A2.8,2.8,0,0,1,114.63,116.26Zm-0.55-3.7H116a7.24,7.24,0,0,1-.31,2h-1.6v-2Zm0-2.41h1.6a7.25,7.25,0,0,1,.31,2h-1.92v-2Zm0-2,0.21,0a1.53,1.53,0,0,1,.34.2,3.2,3.2,0,0,1,.89,1.29h-1.44v-1.51Zm2.81,1.21c0.1,0.1.19,0.2,0.28,0.3H116a5.21,5.21,0,0,0-.27-0.62,3.75,3.75,0,0,0-.45-0.67A4.33,4.33,0,0,1,116.89,109.4Zm0.61,0.75a4,4,0,0,1,.64,2h-1.69a7.78,7.78,0,0,0-.29-2h1.34Zm-3.89-.44h-1.44c0.06-.14.12-0.28,0.19-0.41a2.8,2.8,0,0,1,.7-0.88,1.52,1.52,0,0,1,.34-0.2l0.21,0v1.51h0Zm0,2.41h-1.91a7.24,7.24,0,0,1,.31-2h1.6v2h0Zm0,2.41H112a7.25,7.25,0,0,1-.31-2h1.92v2h0Zm0,2-0.21,0a1.52,1.52,0,0,1-.34-0.2,3.2,3.2,0,0,1-.89-1.29h1.44v1.51h0Zm-2.81-1.21c-0.1-.1-0.19-0.2-0.28-0.3h1.16a5.2,5.2,0,0,0,.27.62,3.75,3.75,0,0,0,.45.67A4.33,4.33,0,0,1,110.81,115.27Zm-0.61-.75a4,4,0,0,1-.64-2h1.69a7.78,7.78,0,0,0,.29,2H110.2Zm0-4.37h1.34a7.76,7.76,0,0,0-.29,2h-1.69A4,4,0,0,1,110.2,110.15Zm0.61-.75a4.33,4.33,0,0,1,1.6-1,4.3,4.3,0,0,0-.72,1.28h-1.16C110.62,109.6,110.71,109.49,110.81,109.4Zm3-1.81a4.75,4.75,0,1,0,4.91,4.74A4.83,4.83,0,0,0,113.85,107.59Z"/></clipPath><clipPath id="clip-path-16"><ellipse class="cls-2" cx="138.63" cy="110.83" rx="1.78" ry="1.8"/></clipPath><clipPath id="clip-path-17"><ellipse class="cls-2" cx="134.72" cy="112.1" rx="1.32" ry="1.34"/></clipPath><clipPath id="clip-path-18"><path class="cls-1" d="M133,114.91v1a1.54,1.54,0,0,0,1.53,1.54h1.25v-3a1.87,1.87,0,0,1,.13-0.38,1.91,1.91,0,0,0-1.18-.37A1.7,1.7,0,0,0,133,114.91Z"/></clipPath><clipPath id="clip-path-19"><path class="cls-1" d="M136.31,114.61v2.58a0.84,0.84,0,0,0,.83.84h3a0.84,0.84,0,0,0,.83-0.84v-2.58A2.51,2.51,0,0,0,136.31,114.61Z"/></clipPath></defs><title>icon</title><g class="cls-4"><g class="cls-5"><rect class="cls-6" x="4.92" y="-4.48" width="24.6" height="24.75"/></g></g><g class="cls-7"><g class="cls-8"><rect class="cls-6" x="-3.8" y="-1" width="30" height="30"/></g></g><g class="cls-9"><g class="cls-10"><rect class="cls-11" x="-17" y="24.38" width="46" height="38.27"/></g></g><path class="cls-17" d="M27.5,109.85h0.62a1.29,1.29,0,0,1-.06,1.94H27.23a0.29,0.29,0,0,0,0,.58h0.52a1,1,0,0,1,.22.68,1.28,1.28,0,0,1-.47,1h-0.8a0.29,0.29,0,0,0,0,.58h0.23a1.23,1.23,0,0,1,0,.34,1.28,1.28,0,0,1-1.06,1.27l-0.8.12a12.4,12.4,0,0,1-1.73.11l-1.53,0a12.83,12.83,0,0,1-4.36-.81c-2.58-1.31-2.58-5.6-.78-7.42,1-1,2-1.67,2.78-2.66,1.28-1.53,2.52-3.34,2.65-4.13a1.25,1.25,0,0,1,1.13-1.2,1.21,1.21,0,0,1,1.08.94,4.55,4.55,0,0,1-.27,3.17c-0.23.63-1.47,1.65-.71,2.47a2,2,0,0,0,1.35.42h2.73a1.28,1.28,0,0,1,1.27,1.29,1.05,1.05,0,0,1-.39.77H27.5A0.29,0.29,0,0,0,27.5,109.85Z"/><g class="cls-18"><rect class="cls-19" x="-6.42" y="-385.67" width="375" height="667"/></g></svg>