<svg id="レイヤー_1" data-name="レイヤー 1" xmlns="http://www.w3.org/2000/svg" xmlns:xlink="http://www.w3.org/1999/xlink" viewBox="0 0 25.03 25.03"><defs><style>.cls-1,.cls-2,.cls-6{fill:#f5a623;}.cls-1,.cls-3,.cls-4{clip-rule:evenodd;}.cls-3,.cls-5{fill:none;}.cls-17,.cls-19,.cls-4{fill:#a4aab3;}.cls-17,.cls-6{fill-rule:evenodd;}.cls-7{clip-path:url(#clip-path);}.cls-8{clip-path:url(#clip-path-2);}.cls-9{clip-path:url(#clip-path-3);}.cls-10{clip-path:url(#clip-path-4);}.cls-11{clip-path:url(#clip-path-5);}.cls-12{clip-path:url(#clip-path-6);}.cls-13{clip-path:url(#clip-path-7);}.cls-14{clip-path:url(#clip-path-8);}.cls-15{clip-path:url(#clip-path-9);}.cls-16{clip-path:url(#clip-path-10);}.cls-18{clip-path:url(#clip-path-11);}.cls-20{clip-path:url(#clip-path-12);}.cls-21{clip-path:url(#clip-path-13);}.cls-22{clip-path:url(#clip-path-14);}.cls-23{clip-path:url(#clip-path-15);}.cls-24{clip-path:url(#clip-path-16);}.cls-25{clip-path:url(#clip-path-17);}.cls-26{clip-path:url(#clip-path-18);}</style><clipPath id="clip-path"><path class="cls-1" d="M-6.24,14.35a13.1,13.1,0,0,1-1-3.79,11.48,11.48,0,0,0-.82-3.12,7.5,7.5,0,0,0-1.1-1.81,6.19,6.19,0,0,0-2.38-1.77,6.73,6.73,0,0,0-1-.34,2.3,2.3,0,0,0,.25-1,2.29,2.29,0,0,0-.18-0.89,2.29,2.29,0,0,0-.83-1A2.28,2.28,0,0,0-14.6.2a2.28,2.28,0,0,0-.89.18,2.29,2.29,0,0,0-1,.83,2.29,2.29,0,0,0-.39,1.28,2.29,2.29,0,0,0,.18.89l0.07,0.14a6.9,6.9,0,0,0-.71.22,6.25,6.25,0,0,0-1.73,1A6.8,6.8,0,0,0-21,7.11a11.07,11.07,0,0,0-1,3.46,13.13,13.13,0,0,1-1,3.79,16.88,16.88,0,0,1-1.67,2.81,3.6,3.6,0,0,0-.66,2.06,3.3,3.3,0,0,0,.16,1,2.73,2.73,0,0,0,.8,1.24,2.21,2.21,0,0,0,.65.39,2.16,2.16,0,0,0,.78.14H-18a3.38,3.38,0,0,0,.25,1,3.44,3.44,0,0,0,1.23,1.5,3.4,3.4,0,0,0,1.91.58,3.39,3.39,0,0,0,1.33-.27,3.42,3.42,0,0,0,1.5-1.24A3.39,3.39,0,0,0-11.21,22h4.92a2.16,2.16,0,0,0,1-.25,2.32,2.32,0,0,0,.6-0.46,2.77,2.77,0,0,0,.58-0.95,3.26,3.26,0,0,0,.2-1.13,3.61,3.61,0,0,0-.66-2.06A16.8,16.8,0,0,1-6.24,14.35Zm-9.1-12.17A0.8,0.8,0,0,1-15,1.83a0.79,0.79,0,0,1,.44-0.14,0.79,0.79,0,0,1,.31.06,0.8,0.8,0,0,1,.35.29,0.79,0.79,0,0,1,.14.45,0.79,0.79,0,0,1-.06.31,0.8,0.8,0,0,1-.29.35,0.78,0.78,0,0,1-.44.14,0.78,0.78,0,0,1-.31-0.06,0.8,0.8,0,0,1-.35-0.29,0.79,0.79,0,0,1-.14-0.45,0.79,0.79,0,0,1,.06-0.31M-21.61,15a14.63,14.63,0,0,0,1.13-4.21A10,10,0,0,1-19.77,8a6,6,0,0,1,.88-1.45,4.7,4.7,0,0,1,1.81-1.35,6.32,6.32,0,0,1,2.48-.46,6.51,6.51,0,0,1,2.24.36A4.75,4.75,0,0,1-11,5.88,5.31,5.31,0,0,1-9.56,7.77a9.62,9.62,0,0,1,.83,3A14.63,14.63,0,0,0-7.6,15a12.84,12.84,0,0,0,1.16,1.9H-22.76A12.84,12.84,0,0,0-21.61,15m8.77,7.45a1.93,1.93,0,0,1-.69.84,1.89,1.89,0,0,1-1.07.33,1.9,1.9,0,0,1-.75-0.15,1.93,1.93,0,0,1-.84-0.7,1.91,1.91,0,0,1-.3-0.72h3.77a1.89,1.89,0,0,1-.12.4m7.36-2.54a1.25,1.25,0,0,1-.35.57,0.74,0.74,0,0,1-.22.13,0.66,0.66,0,0,1-.24,0H-22.91a0.67,0.67,0,0,1-.32-0.08,0.81,0.81,0,0,1-.21-0.17,1.28,1.28,0,0,1-.26-0.44,1.8,1.8,0,0,1-.11-0.62,2.11,2.11,0,0,1,.32-1.11H-5.72a2.11,2.11,0,0,1,.32,1.11,1.82,1.82,0,0,1-.09.56"/></clipPath><clipPath id="clip-path-2"><rect class="cls-2" x="-33.67" y="-6.31" width="37.21" height="37.21"/></clipPath><clipPath id="clip-path-3"><path class="cls-3" d="M-111.62,75.81a1.77,1.77,0,0,1,1.35-.79,1.77,1.77,0,0,1,1.45.59l1.15,1.3a2.19,2.19,0,0,0,3.64-.26l4-6.1a1.77,1.77,0,0,1,1.47-.79,1.77,1.77,0,0,1,1.48.79l7.14,10.75c0.91,1.38.31,2.49-1.34,2.49h-22.66c-1.66,0-2.25-1.13-1.35-2.5Zm1.87-12.16a3.57,3.57,0,0,1,3.58,3.56,3.57,3.57,0,0,1-3.58,3.56,3.57,3.57,0,0,1-3.58-3.56A3.57,3.57,0,0,1-109.75,63.65Zm-10.82,19.79a5,5,0,0,0,5,5h26a5,5,0,0,0,5-5V65.18a5,5,0,0,0-5-5h-26a5,5,0,0,0-5,5V83.44Z"/></clipPath><clipPath id="clip-path-4"><path class="cls-3" d="M-58.58,65.88A1.83,1.83,0,0,0-56.75,64V61.15a1.83,1.83,0,0,0-1.83-1.84,1.83,1.83,0,0,0-1.83,1.84V64A1.83,1.83,0,0,0-58.58,65.88Z"/></clipPath><clipPath id="clip-path-5"><path class="cls-3" d="M-45.1,65.88A1.83,1.83,0,0,0-43.27,64V61.15a1.83,1.83,0,0,0-1.83-1.84,1.83,1.83,0,0,0-1.83,1.84V64A1.83,1.83,0,0,0-45.1,65.88Z"/></clipPath><clipPath id="clip-path-6"><path class="cls-3" d="M-42.89,84.71H-61.67a1.85,1.85,0,0,1-1.88-1.81v-12H-41v12A1.85,1.85,0,0,1-42.89,84.71Zm1.23-22.77V64A3.45,3.45,0,0,1-45.1,67.5,3.45,3.45,0,0,1-48.54,64V61.93h-6.61V64a3.45,3.45,0,0,1-3.43,3.46A3.45,3.45,0,0,1-62,64V61.93h-1.13a4.42,4.42,0,0,0-4.4,4.43V84.88a4.42,4.42,0,0,0,4.4,4.43h22.61a4.42,4.42,0,0,0,4.4-4.43V66.36a4.42,4.42,0,0,0-4.4-4.43h-1.13Z"/></clipPath><clipPath id="clip-path-7"><path class="cls-3" d="M0.1,74.45A1.93,1.93,0,1,1,2,72.51,1.93,1.93,0,0,1,.1,74.45Zm-7.54,0a1.93,1.93,0,0,1-1.93-1.93,1.93,1.93,0,0,1,1.93-1.93,1.93,1.93,0,0,1,1.93,1.93A1.93,1.93,0,0,1-7.44,74.45Zm-7.54,0a1.93,1.93,0,0,1-1.93-1.93A1.93,1.93,0,0,1-15,70.58,1.93,1.93,0,0,1-13,72.51,1.93,1.93,0,0,1-15,74.45Zm7.61-15.13c-9.7,0-16.28,4.95-16.28,12.64a12.38,12.38,0,0,0,5.77,11c0.25,0.16.55,0.19,0.44,0.66-0.45,1.9-1.24,5.27-1.24,5.27a0.37,0.37,0,0,0,.14.38,0.37,0.37,0,0,0,.4,0s5.56-3.3,6.31-3.71A8.48,8.48,0,0,1-7.5,84.38c7.69,0,16.27-3.08,16.27-12.51C8.77,64.56,2.88,59.31-7.37,59.31Z"/></clipPath><clipPath id="clip-path-8"><path class="cls-3" d="M54.48,8.91a1.89,1.89,0,1,0-3.24,1.33C50,12.94,47.5,13.88,45.6,13c-1.69-.76-2.32-2.93-2.53-4.61a2.17,2.17,0,1,0-2,0c-0.21,1.68-.84,3.85-2.53,4.61-1.9.85-4.35-.09-5.64-2.78a1.92,1.92,0,0,0,.53-1.33,1.89,1.89,0,1,0-2.13,1.9L34,21H50.14l2.71-10.21A1.9,1.9,0,0,0,54.48,8.91Z"/></clipPath><clipPath id="clip-path-9"><path class="cls-3" d="M73.72,77.22A3.43,3.43,0,0,0,71.29,83c-2.29,4.82-6.68,6.5-10.08,5-3-1.36-4.14-5.24-4.52-8.25a3.88,3.88,0,1,0-3.61,0c-0.38,3-1.5,6.89-4.52,8.25-3.4,1.52-7.78-.16-10.08-5a3.44,3.44,0,0,0,.95-2.38A3.37,3.37,0,1,0,35.62,84l4.84,18.25H69.33L74.16,84A3.42,3.42,0,0,0,73.72,77.22Z"/></clipPath><clipPath id="clip-path-10"><path class="cls-3" d="M-109.75,140.65h0.62a1.28,1.28,0,0,1,.42.95,1.28,1.28,0,0,1-.47,1H-110a0.29,0.29,0,0,0-.29.29,0.29,0.29,0,0,0,.29.29h0.52a1,1,0,0,1,.22.68,1.28,1.28,0,0,1-.47,1h-0.8a0.29,0.29,0,0,0-.29.29,0.29,0.29,0,0,0,.29.29h0.23a1.23,1.23,0,0,1,0,.34,1.28,1.28,0,0,1-1.06,1.27l-0.8.12a12.4,12.4,0,0,1-1.73.11l-1.53,0a12.83,12.83,0,0,1-4.36-.81c-2.58-1.31-2.58-5.6-.78-7.42,1-1,2-1.67,2.78-2.66,1.28-1.53,2.52-3.34,2.65-4.13A1.25,1.25,0,0,1-114,131a1.21,1.21,0,0,1,1.08.94,4.55,4.55,0,0,1-.27,3.17c-0.23.63-1.47,1.65-.71,2.47a2,2,0,0,0,1.35.42h2.73a1.28,1.28,0,0,1,1.27,1.29,1.05,1.05,0,0,1-.39.77h-0.82a0.29,0.29,0,0,0-.29.29A0.29,0.29,0,0,0-109.75,140.65Z"/></clipPath><clipPath id="clip-path-11"><path class="cls-4" d="M-81.06,140.65h0.62a1.28,1.28,0,0,1,.42.95,1.28,1.28,0,0,1-.47,1h-0.83a0.29,0.29,0,0,0-.29.29,0.29,0.29,0,0,0,.29.29h0.52a1,1,0,0,1,.22.68,1.28,1.28,0,0,1-.47,1h-0.8a0.29,0.29,0,0,0-.29.29,0.29,0.29,0,0,0,.29.29h0.23a1.23,1.23,0,0,1,0,.34A1.28,1.28,0,0,1-82.65,147l-0.8.12a12.4,12.4,0,0,1-1.73.11l-1.53,0a12.83,12.83,0,0,1-4.36-.81c-2.58-1.31-2.58-5.6-.78-7.42,1-1,2-1.67,2.78-2.66,1.28-1.53,2.52-3.34,2.65-4.13A1.25,1.25,0,0,1-85.3,131a1.21,1.21,0,0,1,1.08.94,4.55,4.55,0,0,1-.27,3.17c-0.23.63-1.47,1.65-.71,2.47a2,2,0,0,0,1.35.42h2.73a1.28,1.28,0,0,1,1.27,1.29,1.05,1.05,0,0,1-.39.77h-0.82a0.29,0.29,0,0,0-.29.29A0.29,0.29,0,0,0-81.06,140.65Z"/></clipPath><clipPath id="clip-path-12"><path class="cls-3" d="M-51.23,139.2a1,1,0,0,1-1-1,1,1,0,0,1,1-1,1,1,0,0,1,1,1A1,1,0,0,1-51.23,139.2Zm-4.05,0a1,1,0,0,1-1-1,1,1,0,0,1,1-1,1,1,0,0,1,1,1A1,1,0,0,1-55.28,139.2Zm-4.05,0a1,1,0,0,1-1-1,1,1,0,0,1,1-1,1,1,0,0,1,1,1A1,1,0,0,1-59.33,139.2Zm4.09-8.07c-5.21,0-8.75,2.64-8.75,6.74a6.59,6.59,0,0,0,3.1,5.85c0.14,0.09.3,0.1,0.24,0.35-0.24,1-.67,2.81-0.67,2.81a0.2,0.2,0,0,0,.07.2,0.2,0.2,0,0,0,.22,0s3-1.76,3.39-2a4.58,4.58,0,0,1,2.33-.63c4.13,0,8.74-1.64,8.74-6.67C-46.57,133.93-49.74,131.13-55.24,131.13Z"/></clipPath><clipPath id="clip-path-13"><path class="cls-3" d="M-18.17,138.3l-7.38-6v3.08c-7.19.06-9.86,5.46-9,10.66,1.57-3.23,4.84-4.51,9-4.65v3Z"/></clipPath><clipPath id="clip-path-14"><path class="cls-3" d="M8.94,145.32H7.6a7.76,7.76,0,0,0,.29-2H9.58A4,4,0,0,1,8.94,145.32Zm-0.61.75a4.32,4.32,0,0,1-1.6,1,4.31,4.31,0,0,0,.72-1.28H8.61C8.52,145.87,8.43,146,8.33,146.07Zm-2.26,1a1.52,1.52,0,0,1-.34.2l-0.21,0v-1.51H7c-0.06.14-.12,0.28-0.19,0.41A2.8,2.8,0,0,1,6.07,147.06Zm-0.55-3.7H7.43a7.24,7.24,0,0,1-.31,2H5.52v-2Zm0-2.41h1.6a7.25,7.25,0,0,1,.31,2H5.52v-2Zm0-2,0.21,0a1.53,1.53,0,0,1,.34.2A3.2,3.2,0,0,1,7,140.5H5.52V139Zm2.81,1.21c0.1,0.1.19,0.2,0.28,0.3H7.45a5.21,5.21,0,0,0-.27-0.62,3.75,3.75,0,0,0-.45-0.67A4.33,4.33,0,0,1,8.33,140.19Zm0.61,0.75a4,4,0,0,1,.64,2H7.89a7.78,7.78,0,0,0-.29-2H8.94Zm-3.89-.44H3.62c0.06-.14.12-0.28,0.19-0.41a2.8,2.8,0,0,1,.7-0.88,1.52,1.52,0,0,1,.34-0.2l0.21,0v1.51h0Zm0,2.41H3.14a7.24,7.24,0,0,1,.31-2h1.6v2h0Zm0,2.41H3.46a7.25,7.25,0,0,1-.31-2H5.06v2h0Zm0,2-0.21,0a1.52,1.52,0,0,1-.34-0.2,3.2,3.2,0,0,1-.89-1.29H5.06v1.51h0Zm-2.81-1.21c-0.1-.1-0.19-0.2-0.28-0.3H3.13a5.2,5.2,0,0,0,.27.62,3.75,3.75,0,0,0,.45.67A4.33,4.33,0,0,1,2.25,146.07Zm-0.61-.75a4,4,0,0,1-.64-2H2.68a7.78,7.78,0,0,0,.29,2H1.63Zm0-4.37H3a7.76,7.76,0,0,0-.29,2H1A4,4,0,0,1,1.63,140.94Zm0.61-.75a4.33,4.33,0,0,1,1.6-1,4.3,4.3,0,0,0-.72,1.28H2C2.05,140.39,2.15,140.29,2.25,140.19Zm3-1.81a4.75,4.75,0,1,0,0,9.49A4.75,4.75,0,1,0,5.29,138.39Z"/></clipPath><clipPath id="clip-path-15"><ellipse class="cls-5" cx="30.07" cy="141.63" rx="1.78" ry="1.8"/></clipPath><clipPath id="clip-path-16"><ellipse class="cls-5" cx="26.15" cy="142.89" rx="1.32" ry="1.34"/></clipPath><clipPath id="clip-path-17"><path class="cls-3" d="M24.4,145.71v1a1.54,1.54,0,0,0,1.53,1.54h1.25v-3a1.87,1.87,0,0,1,.13-0.38,1.91,1.91,0,0,0-1.18-.37A1.7,1.7,0,0,0,24.4,145.71Z"/></clipPath><clipPath id="clip-path-18"><path class="cls-3" d="M27.74,145.41V148a0.84,0.84,0,0,0,.83.84h3A0.84,0.84,0,0,0,32.4,148v-2.58a2.29,2.29,0,0,0-2.33-1.57A2.29,2.29,0,0,0,27.74,145.41Z"/></clipPath></defs><title>icon</title><path class="cls-6" d="M-6.24,14.35a13.1,13.1,0,0,1-1-3.79,11.48,11.48,0,0,0-.82-3.12,7.5,7.5,0,0,0-1.1-1.81,6.19,6.19,0,0,0-2.38-1.77,6.73,6.73,0,0,0-1-.34,2.3,2.3,0,0,0,.25-1,2.29,2.29,0,0,0-.18-0.89,2.29,2.29,0,0,0-.83-1A2.28,2.28,0,0,0-14.6.2a2.28,2.28,0,0,0-.89.18,2.29,2.29,0,0,0-1,.83,2.29,2.29,0,0,0-.39,1.28,2.29,2.29,0,0,0,.18.89l0.07,0.14a6.9,6.9,0,0,0-.71.22,6.25,6.25,0,0,0-1.73,1A6.8,6.8,0,0,0-21,7.11a11.07,11.07,0,0,0-1,3.46,13.13,13.13,0,0,1-1,3.79,16.88,16.88,0,0,1-1.67,2.81,3.6,3.6,0,0,0-.66,2.06,3.3,3.3,0,0,0,.16,1,2.73,2.73,0,0,0,.8,1.24,2.21,2.21,0,0,0,.65.39,2.16,2.16,0,0,0,.78.14H-18a3.38,3.38,0,0,0,.25,1,3.44,3.44,0,0,0,1.23,1.5,3.4,3.4,0,0,0,1.91.58,3.39,3.39,0,0,0,1.33-.27,3.42,3.42,0,0,0,1.5-1.24A3.39,3.39,0,0,0-11.21,22h4.92a2.16,2.16,0,0,0,1-.25,2.32,2.32,0,0,0,.6-0.46,2.77,2.77,0,0,0,.58-0.95,3.26,3.26,0,0,0,.2-1.13,3.61,3.61,0,0,0-.66-2.06A16.8,16.8,0,0,1-6.24,14.35Zm-9.1-12.17A0.8,0.8,0,0,1-15,1.83a0.79,0.79,0,0,1,.44-0.14,0.79,0.79,0,0,1,.31.06,0.8,0.8,0,0,1,.35.29,0.79,0.79,0,0,1,.14.45,0.79,0.79,0,0,1-.06.31,0.8,0.8,0,0,1-.29.35,0.78,0.78,0,0,1-.44.14,0.78,0.78,0,0,1-.31-0.06,0.8,0.8,0,0,1-.35-0.29,0.79,0.79,0,0,1-.14-0.45,0.79,0.79,0,0,1,.06-0.31M-21.61,15a14.63,14.63,0,0,0,1.13-4.21A10,10,0,0,1-19.77,8a6,6,0,0,1,.88-1.45,4.7,4.7,0,0,1,1.81-1.35,6.32,6.32,0,0,1,2.48-.46,6.51,6.51,0,0,1,2.24.36A4.75,4.75,0,0,1-11,5.88,5.31,5.31,0,0,1-9.56,7.77a9.62,9.62,0,0,1,.83,3A14.63,14.63,0,0,0-7.6,15a12.84,12.84,0,0,0,1.16,1.9H-22.76A12.84,12.84,0,0,0-21.61,15m8.77,7.45a1.93,1.93,0,0,1-.69.84,1.89,1.89,0,0,1-1.07.33,1.9,1.9,0,0,1-.75-0.15,1.93,1.93,0,0,1-.84-0.7,1.91,1.91,0,0,1-.3-0.72h3.77a1.89,1.89,0,0,1-.12.4m7.36-2.54a1.25,1.25,0,0,1-.35.57,0.74,0.74,0,0,1-.22.13,0.66,0.66,0,0,1-.24,0H-22.91a0.67,0.67,0,0,1-.32-0.08,0.81,0.81,0,0,1-.21-0.17,1.28,1.28,0,0,1-.26-0.44,1.8,1.8,0,0,1-.11-0.62,2.11,2.11,0,0,1,.32-1.11H-5.72a2.11,2.11,0,0,1,.32,1.11,1.82,1.82,0,0,1-.09.56"/><g class="cls-7"><rect class="cls-2" x="-33.67" y="-6.31" width="37.21" height="37.21"/><g class="cls-8"><rect class="cls-2" x="-29.95" y="-4.45" width="30.7" height="34.19"/></g></g><path class="cls-2" d="M20.24,15.62a3.1,3.1,0,1,1,3.1-3.1A3.11,3.11,0,0,1,20.24,15.62Zm0-4.51a1.4,1.4,0,1,0,1.4,1.4A1.4,1.4,0,0,0,20.24,11.11Zm-7.72,4.51a3.1,3.1,0,1,1,3.1-3.1A3.11,3.11,0,0,1,12.51,15.62Zm0-4.51a1.4,1.4,0,1,0,1.4,1.4A1.4,1.4,0,0,0,12.51,11.11ZM4.79,15.62a3.1,3.1,0,1,1,3.1-3.1A3.11,3.11,0,0,1,4.79,15.62Zm0-4.51a1.4,1.4,0,1,0,1.4,1.4A1.4,1.4,0,0,0,4.79,11.11Z"/><path class="cls-17" d="M-81.06,140.65h0.62a1.28,1.28,0,0,1,.42.95,1.28,1.28,0,0,1-.47,1h-0.83a0.29,0.29,0,0,0-.29.29,0.29,0.29,0,0,0,.29.29h0.52a1,1,0,0,1,.22.68,1.28,1.28,0,0,1-.47,1h-0.8a0.29,0.29,0,0,0-.29.29,0.29,0.29,0,0,0,.29.29h0.23a1.23,1.23,0,0,1,0,.34A1.28,1.28,0,0,1-82.65,147l-0.8.12a12.4,12.4,0,0,1-1.73.11l-1.53,0a12.83,12.83,0,0,1-4.36-.81c-2.58-1.31-2.58-5.6-.78-7.42,1-1,2-1.67,2.78-2.66,1.28-1.53,2.52-3.34,2.65-4.13A1.25,1.25,0,0,1-85.3,131a1.21,1.21,0,0,1,1.08.94,4.55,4.55,0,0,1-.27,3.17c-0.23.63-1.47,1.65-.71,2.47a2,2,0,0,0,1.35.42h2.73a1.28,1.28,0,0,1,1.27,1.29,1.05,1.05,0,0,1-.39.77h-0.82a0.29,0.29,0,0,0-.29.29A0.29,0.29,0,0,0-81.06,140.65Z"/><g class="cls-18"><rect class="cls-19" x="-114.99" y="-354.87" width="375" height="667"/></g></svg>