<svg id="レイヤー_1" data-name="レイヤー 1" xmlns="http://www.w3.org/2000/svg" xmlns:xlink="http://www.w3.org/1999/xlink" viewBox="0 0 18 18"><defs><style>.cls-1,.cls-4{fill:none;}.cls-1,.cls-2{clip-rule:evenodd;}.cls-13,.cls-2,.cls-3{fill:#a4aab3;}.cls-5{clip-path:url(#clip-path);}.cls-6{clip-path:url(#clip-path-2);}.cls-7{clip-path:url(#clip-path-3);}.cls-8{clip-path:url(#clip-path-4);}.cls-9{clip-path:url(#clip-path-5);}.cls-10{clip-path:url(#clip-path-6);}.cls-11{clip-path:url(#clip-path-7);}.cls-12{clip-path:url(#clip-path-8);}.cls-13{fill-rule:evenodd;}.cls-14{clip-path:url(#clip-path-9);}.cls-15{clip-path:url(#clip-path-10);}.cls-16{clip-path:url(#clip-path-11);}.cls-17{clip-path:url(#clip-path-12);}.cls-18{clip-path:url(#clip-path-13);}.cls-19{clip-path:url(#clip-path-14);}.cls-20{clip-path:url(#clip-path-15);}.cls-21{clip-path:url(#clip-path-16);}.cls-22{clip-path:url(#clip-path-17);}</style><clipPath id="clip-path"><path class="cls-1" d="M7.77-97.88l2.76,2.81L11-95.51a1.66,1.66,0,0,0,.09-2.21l-0.29-.35-0.43-.37a1.57,1.57,0,0,0-2.16.12Zm-0.48.56-9.45,9.63S-3.64-85.42-3-84.39,0.4-85,.4-85L10-94.56l-1-1-1-1Z"/></clipPath><clipPath id="clip-path-2"><path class="cls-1" d="M3.86-95.33H-10.89a1,1,0,0,0-1,1v18a1,1,0,0,0,1,1h18a1,1,0,0,0,1-1V-91.22l-2,2v10.84a1,1,0,0,1-1,1h-14a1,1,0,0,1-1-1v-14a1,1,0,0,1,1-1H1.89Z"/></clipPath><clipPath id="clip-path-3"><path class="cls-1" d="M-16.13-54.32a1.77,1.77,0,0,1,1.35-.79,1.77,1.77,0,0,1,1.45.59l1.15,1.3a2.19,2.19,0,0,0,3.64-.26l4-6.1A1.77,1.77,0,0,1-3-60.37a1.77,1.77,0,0,1,1.48.79L5.59-48.83c0.91,1.38.31,2.49-1.34,2.49H-18.41c-1.66,0-2.25-1.13-1.35-2.5Zm1.87-12.16a3.57,3.57,0,0,1,3.58,3.56,3.57,3.57,0,0,1-3.58,3.56,3.57,3.57,0,0,1-3.58-3.56A3.57,3.57,0,0,1-14.26-66.48ZM-25.08-46.69a5,5,0,0,0,5,5h26a5,5,0,0,0,5-5V-64.95a5,5,0,0,0-5-5h-26a5,5,0,0,0-5,5v18.26Z"/></clipPath><clipPath id="clip-path-4"><path class="cls-1" d="M36.9-64.25a1.83,1.83,0,0,0,1.83-1.84V-69a1.83,1.83,0,0,0-1.83-1.84A1.83,1.83,0,0,0,35.07-69v2.89A1.83,1.83,0,0,0,36.9-64.25Z"/></clipPath><clipPath id="clip-path-5"><path class="cls-1" d="M50.38-64.25a1.83,1.83,0,0,0,1.83-1.84V-69a1.83,1.83,0,0,0-1.83-1.84A1.83,1.83,0,0,0,48.56-69v2.89A1.83,1.83,0,0,0,50.38-64.25Z"/></clipPath><clipPath id="clip-path-6"><path class="cls-1" d="M52.59-45.42H33.81a1.85,1.85,0,0,1-1.88-1.81v-12H54.47v12A1.85,1.85,0,0,1,52.59-45.42ZM53.82-68.2v2.11a3.45,3.45,0,0,1-3.43,3.46,3.45,3.45,0,0,1-3.44-3.46V-68.2H40.34v2.11a3.45,3.45,0,0,1-3.43,3.46,3.45,3.45,0,0,1-3.44-3.46V-68.2H32.34a4.42,4.42,0,0,0-4.4,4.43v18.52a4.42,4.42,0,0,0,4.4,4.43H55a4.42,4.42,0,0,0,4.4-4.43V-63.77A4.42,4.42,0,0,0,55-68.2H53.82Z"/></clipPath><clipPath id="clip-path-7"><path class="cls-1" d="M95.59-55.68a1.93,1.93,0,0,1-1.93-1.93,1.93,1.93,0,0,1,1.93-1.93,1.93,1.93,0,0,1,1.93,1.93A1.93,1.93,0,0,1,95.59-55.68Zm-7.54,0a1.93,1.93,0,0,1-1.93-1.93A1.93,1.93,0,0,1,88-59.55,1.93,1.93,0,0,1,90-57.62,1.93,1.93,0,0,1,88-55.68Zm-7.54,0a1.93,1.93,0,0,1-1.93-1.93,1.93,1.93,0,0,1,1.93-1.93,1.93,1.93,0,0,1,1.93,1.93A1.93,1.93,0,0,1,80.5-55.68Zm7.61-15.13c-9.7,0-16.28,4.95-16.28,12.64a12.38,12.38,0,0,0,5.77,11C77.85-47,78.15-47,78-46.55c-0.45,1.9-1.24,5.27-1.24,5.27a0.37,0.37,0,0,0,.14.38,0.37,0.37,0,0,0,.4,0s5.56-3.3,6.31-3.71A8.48,8.48,0,0,1,88-45.75c7.69,0,16.27-3.08,16.27-12.51C104.26-65.57,98.36-70.82,88.12-70.82Z"/></clipPath><clipPath id="clip-path-8"><path class="cls-1" d="M-14.26,10.52h0.62a1.28,1.28,0,0,1,.42.95,1.28,1.28,0,0,1-.47,1h-0.83a0.29,0.29,0,0,0-.29.29,0.29,0.29,0,0,0,.29.29H-14a1,1,0,0,1,.22.68,1.28,1.28,0,0,1-.47,1h-0.8a0.29,0.29,0,0,0-.29.29,0.29,0.29,0,0,0,.29.29h0.23a1.23,1.23,0,0,1,0,.34,1.28,1.28,0,0,1-1.06,1.27l-0.8.12a12.4,12.4,0,0,1-1.73.11l-1.53,0a12.83,12.83,0,0,1-4.36-.81c-2.58-1.31-2.58-5.6-.78-7.42,1-1,2-1.67,2.78-2.66,1.28-1.53,2.52-3.34,2.65-4.13A1.25,1.25,0,0,1-18.5.87a1.21,1.21,0,0,1,1.08.94A4.55,4.55,0,0,1-17.69,5c-0.23.63-1.47,1.65-.71,2.47a2,2,0,0,0,1.35.42h2.73A1.28,1.28,0,0,1-13,9.17a1.05,1.05,0,0,1-.39.77h-0.82a0.29,0.29,0,0,0-.29.29A0.29,0.29,0,0,0-14.26,10.52Z"/></clipPath><clipPath id="clip-path-9"><path class="cls-2" d="M14.42,10.52H15A1.29,1.29,0,0,1,15,12.46H14.15a0.29,0.29,0,0,0,0,.58h0.52a1,1,0,0,1,.22.68,1.28,1.28,0,0,1-.47,1h-0.8a0.29,0.29,0,0,0,0,.58h0.23a1.23,1.23,0,0,1,0,.34,1.28,1.28,0,0,1-1.06,1.27L12,17a12.4,12.4,0,0,1-1.73.11l-1.53,0a12.83,12.83,0,0,1-4.36-.81C1.83,15,1.83,10.68,3.63,8.85c1-1,2-1.67,2.78-2.66C7.68,4.67,8.93,2.86,9.06,2.07A1.25,1.25,0,0,1,10.18.87a1.21,1.21,0,0,1,1.08.94A4.55,4.55,0,0,1,11,5c-0.23.63-1.47,1.65-.71,2.47a2,2,0,0,0,1.35.42h2.73a1.28,1.28,0,0,1,1.27,1.29,1.05,1.05,0,0,1-.39.77H14.42A0.29,0.29,0,0,0,14.42,10.52Z"/></clipPath><clipPath id="clip-path-10"><rect class="cls-3" x="-19.5" y="-485" width="375" height="667"/></clipPath><clipPath id="clip-path-11"><path class="cls-1" d="M44.26,9.07a1,1,0,1,1,1-1A1,1,0,0,1,44.26,9.07Zm-4.05,0a1,1,0,1,1,1-1A1,1,0,0,1,40.2,9.07Zm-4.05,0a1,1,0,1,1,1-1A1,1,0,0,1,36.15,9.07ZM40.24,1C35,1,31.49,3.64,31.49,7.74a6.59,6.59,0,0,0,3.1,5.85c0.14,0.09.3,0.1,0.24,0.35-0.24,1-.67,2.81-0.67,2.81a0.2,0.2,0,0,0,.07.2,0.2,0.2,0,0,0,.22,0s3-1.76,3.39-2a4.58,4.58,0,0,1,2.33-.63c4.13,0,8.74-1.64,8.74-6.67C48.91,3.8,45.75,1,40.24,1Z"/></clipPath><clipPath id="clip-path-12"><path class="cls-1" d="M77.31,8.17l-7.38-6V5.21c-7.19.06-9.86,5.46-9,10.66,1.57-3.23,4.84-4.51,9-4.65v3Z"/></clipPath><clipPath id="clip-path-13"><path class="cls-1" d="M104.43,15.19h-1.34a7.76,7.76,0,0,0,.29-2h1.69A4,4,0,0,1,104.43,15.19Zm-0.61.75a4.32,4.32,0,0,1-1.6,1,4.31,4.31,0,0,0,.72-1.28h1.16C104,15.74,103.91,15.84,103.81,15.94Zm-2.26,1a1.52,1.52,0,0,1-.34.2l-0.21,0V15.63h1.44c-0.06.14-.12,0.28-0.19,0.41A2.8,2.8,0,0,1,101.55,16.93ZM101,13.22h1.91a7.24,7.24,0,0,1-.31,2H101v-2Zm0-2.41h1.6a7.25,7.25,0,0,1,.31,2H101v-2Zm0-2,0.21,0a1.53,1.53,0,0,1,.34.2,3.2,3.2,0,0,1,.89,1.29H101V8.85Zm2.81,1.21c0.1,0.1.19,0.2,0.28,0.3h-1.16a5.21,5.21,0,0,0-.27-0.62,3.75,3.75,0,0,0-.45-0.67A4.33,4.33,0,0,1,103.81,10.06Zm0.61,0.75a4,4,0,0,1,.64,2h-1.69a7.78,7.78,0,0,0-.29-2h1.34Zm-3.89-.44H99.1c0.06-.14.12-0.28,0.19-0.41a2.8,2.8,0,0,1,.7-0.88,1.52,1.52,0,0,1,.34-0.2l0.21,0v1.51h0Zm0,2.41H98.63a7.24,7.24,0,0,1,.31-2h1.6v2h0Zm0,2.41h-1.6a7.25,7.25,0,0,1-.31-2h1.92v2h0Zm0,2-0.21,0a1.52,1.52,0,0,1-.34-0.2,3.2,3.2,0,0,1-.89-1.29h1.44v1.51h0Zm-2.81-1.21c-0.1-.1-0.19-0.2-0.28-0.3h1.16a5.2,5.2,0,0,0,.27.62,3.75,3.75,0,0,0,.45.67A4.33,4.33,0,0,1,97.73,15.94Zm-0.61-.75a4,4,0,0,1-.64-2h1.69a7.78,7.78,0,0,0,.29,2H97.12Zm0-4.37h1.34a7.76,7.76,0,0,0-.29,2H96.48A4,4,0,0,1,97.12,10.81Zm0.61-.75a4.33,4.33,0,0,1,1.6-1,4.3,4.3,0,0,0-.72,1.28H97.45C97.54,10.26,97.63,10.16,97.73,10.06Zm3-1.81A4.83,4.83,0,0,0,95.86,13a4.92,4.92,0,0,0,9.83,0A4.83,4.83,0,0,0,100.77,8.26Z"/></clipPath><clipPath id="clip-path-14"><ellipse class="cls-4" cx="125.55" cy="11.5" rx="1.78" ry="1.8"/></clipPath><clipPath id="clip-path-15"><ellipse class="cls-4" cx="121.64" cy="12.76" rx="1.32" ry="1.34"/></clipPath><clipPath id="clip-path-16"><path class="cls-1" d="M119.89,15.58v1a1.54,1.54,0,0,0,1.53,1.54h1.25v-3a1.87,1.87,0,0,1,.13-0.38,1.91,1.91,0,0,0-1.18-.37A1.7,1.7,0,0,0,119.89,15.58Z"/></clipPath><clipPath id="clip-path-17"><path class="cls-1" d="M123.23,15.28v2.58a0.84,0.84,0,0,0,.83.84h3a0.84,0.84,0,0,0,.83-0.84V15.28A2.51,2.51,0,0,0,123.23,15.28Z"/></clipPath></defs><title>icon</title><path class="cls-13" d="M14.42,10.52H15A1.29,1.29,0,0,1,15,12.46H14.15a0.29,0.29,0,0,0,0,.58h0.52a1,1,0,0,1,.22.68,1.28,1.28,0,0,1-.47,1h-0.8a0.29,0.29,0,0,0,0,.58h0.23a1.23,1.23,0,0,1,0,.34,1.28,1.28,0,0,1-1.06,1.27L12,17a12.4,12.4,0,0,1-1.73.11l-1.53,0a12.83,12.83,0,0,1-4.36-.81C1.83,15,1.83,10.68,3.63,8.85c1-1,2-1.67,2.78-2.66C7.68,4.67,8.93,2.86,9.06,2.07A1.25,1.25,0,0,1,10.18.87a1.21,1.21,0,0,1,1.08.94A4.55,4.55,0,0,1,11,5c-0.23.63-1.47,1.65-.71,2.47a2,2,0,0,0,1.35.42h2.73a1.28,1.28,0,0,1,1.27,1.29,1.05,1.05,0,0,1-.39.77H14.42A0.29,0.29,0,0,0,14.42,10.52Z"/><g class="cls-14"><rect class="cls-3" x="-19.5" y="-485" width="375" height="667"/><g class="cls-15"><rect class="cls-3" x="-2.63" y="-4.13" width="23.27" height="26.26"/></g></g></svg>